<?xml version="1.0" encoding="UTF-8"?>
<svg id="Camada_1" data-name="Camada 1" xmlns="http://www.w3.org/2000/svg" viewBox="0 0 18.12 18.1">
  <defs>
    <style>
      .cls-1 {
        fill: #263339;
      }
    </style>
  </defs>
  <path class="cls-1" d="M15.62,3.25h-.36L12.2.18c-.24-.24-.64-.24-.9,0-.24.24-.24.64,0,.9l2.17,2.17H4.66l2.17-2.17c.24-.24.24-.64,0-.9-.24-.24-.64-.24-.9,0l-3.05,3.06h-.36c-.82,0-2.51,0-2.51,2.32,0,.88.18,1.46.56,1.84.22.23.48.34.76.41.26.06.54.07.82.07h13.85c.28,0,.54-.02.8-.07.76-.18,1.34-.72,1.34-2.25,0-2.32-1.69-2.32-2.5-2.32Z"/>
  <path class="cls-1" d="M15.49,9.03H2.64c-.56,0-.99.5-.9,1.05l.76,4.66c.25,1.56.93,3.35,3.95,3.35h5.08c3.05,0,3.6-1.53,3.92-3.24l.92-4.74c.11-.56-.32-1.08-.89-1.08ZM7.84,14.88c0,.35-.28.63-.63.63s-.63-.28-.63-.63v-2.99c0-.34.28-.63.63-.63s.63.29.63.63v2.99ZM11.72,14.88c0,.35-.28.63-.63.63s-.63-.28-.63-.63v-2.99c0-.34.29-.63.63-.63s.63.29.63.63v2.99Z"/>
</svg>