<svg width="21" height="20" viewBox="0 0 21 20" fill="none" xmlns="http://www.w3.org/2000/svg">
<path d="M10.5 0C4.98 0 0.5 4.48 0.5 10C0.5 15.52 4.98 20 10.5 20C16.02 20 20.5 15.52 20.5 10C20.5 4.48 16.02 0 10.5 0ZM14.53 10.53L11.53 13.53C11.38 13.68 11.19 13.75 11 13.75C10.81 13.75 10.62 13.68 10.47 13.53C10.18 13.24 10.18 12.76 10.47 12.47L12.19 10.75H7C6.59 10.75 6.25 10.41 6.25 10C6.25 9.59 6.59 9.25 7 9.25H12.19L10.47 7.53C10.18 7.24 10.18 6.76 10.47 6.47C10.76 6.18 11.24 6.18 11.53 6.47L14.53 9.47C14.82 9.76 14.82 10.24 14.53 10.53Z" fill="white"/>
</svg>
