<svg width="70" height="70" viewBox="0 0 70 70" fill="none" xmlns="http://www.w3.org/2000/svg">
<path d="M43.75 5.83337V35C43.75 38.2084 41.125 40.8334 37.9166 40.8334H5.83331V17.5C5.83331 11.0542 11.0541 5.83337 17.5 5.83337H43.75Z" stroke="#1E2021" stroke-width="2.5" stroke-linecap="round" stroke-linejoin="round"/>
<path d="M64.1666 40.8334V49.5834C64.1666 54.425 60.2583 58.3334 55.4166 58.3334H52.5C52.5 55.125 49.875 52.5 46.6666 52.5C43.4583 52.5 40.8333 55.125 40.8333 58.3334H29.1666C29.1666 55.125 26.5416 52.5 23.3333 52.5C20.125 52.5 17.5 55.125 17.5 58.3334H14.5833C9.74165 58.3334 5.83331 54.425 5.83331 49.5834V40.8334H37.9166C41.125 40.8334 43.75 38.2084 43.75 35V14.5834H49.1166C51.2166 14.5834 53.1416 15.7209 54.1916 17.5292L59.1792 26.25H55.4166C53.8125 26.25 52.5 27.5625 52.5 29.1667V37.9167C52.5 39.5209 53.8125 40.8334 55.4166 40.8334H64.1666Z" stroke="#1E2021" stroke-width="2.5" stroke-linecap="round" stroke-linejoin="round"/>
<path d="M23.3333 64.1667C26.555 64.1667 29.1667 61.555 29.1667 58.3333C29.1667 55.1117 26.555 52.5 23.3333 52.5C20.1117 52.5 17.5 55.1117 17.5 58.3333C17.5 61.555 20.1117 64.1667 23.3333 64.1667Z" stroke="#1E2021" stroke-width="2.5" stroke-linecap="round" stroke-linejoin="round"/>
<path d="M46.6666 64.1667C49.8883 64.1667 52.5 61.555 52.5 58.3333C52.5 55.1117 49.8883 52.5 46.6666 52.5C43.445 52.5 40.8333 55.1117 40.8333 58.3333C40.8333 61.555 43.445 64.1667 46.6666 64.1667Z" stroke="#1E2021" stroke-width="2.5" stroke-linecap="round" stroke-linejoin="round"/>
<path d="M64.1667 35V40.8333H55.4167C53.8125 40.8333 52.5 39.5208 52.5 37.9167V29.1667C52.5 27.5625 53.8125 26.25 55.4167 26.25H59.1792L64.1667 35Z" stroke="#1E2021" stroke-width="2.5" stroke-linecap="round" stroke-linejoin="round"/>
</svg>
