<svg width="43" height="86" viewBox="0 0 43 86" fill="none" xmlns="http://www.w3.org/2000/svg">
<path d="M22.4833 85.5767H21.372C19.8052 85.5767 18.5117 84.2831 18.5117 82.7163V44.8945C18.5117 43.3095 19.8052 42.0342 21.372 42.0342H22.4833C24.0501 42.0342 25.3436 43.3095 25.3436 44.8945V82.7163C25.3436 84.2831 24.0501 85.5767 22.4833 85.5767Z" fill="#DDA478"/>
<path fill-rule="evenodd" clip-rule="evenodd" d="M22.4833 85.7407H21.372C19.6959 85.7407 18.3477 84.3925 18.3477 82.7164V44.8946C18.3477 43.2184 19.6959 41.8521 21.372 41.8521H22.4833C24.1595 41.8521 25.5076 43.2184 25.5076 44.8946V82.7164C25.5076 84.3925 24.1595 85.7407 22.4833 85.7407ZM21.372 42.1982C19.8963 42.1982 18.6939 43.4006 18.6939 44.8946V82.7164C18.6939 84.1921 19.8963 85.3946 21.372 85.3946H22.4833C23.9591 85.3946 25.1615 84.1921 25.1615 82.7164V44.8946C25.1615 43.4006 23.9591 42.1982 22.4833 42.1982H21.372Z" fill="#231F20"/>
<g style="mix-blend-mode:multiply">
<path d="M18.9854 71.6946C19.8963 71.5124 20.6251 70.8383 21.4085 70.401C22.2648 69.9274 23.285 69.6723 24.2506 69.9638C24.6514 70.0913 24.9975 70.31 25.3437 70.5468V44.895C25.3437 43.31 24.0502 42.0347 22.4834 42.0347H21.372C19.8052 42.0347 18.5117 43.31 18.5117 44.895V71.7128C18.6757 71.731 18.8397 71.7128 18.9854 71.6946Z" fill="#DDA478"/>
</g>
<path d="M42.5785 58.8139C42.5785 58.8139 41.0663 28.2066 39.955 14.8159C38.8619 1.42523 24.4145 0.550738 24.4145 0.550738C24.4145 0.550738 21.6453 0.241021 19.4408 0.550738C19.4408 0.550738 4.99349 1.42523 3.90037 14.8159C2.78904 28.2066 1.27689 58.8139 1.27689 58.8139C1.27689 58.8139 0.311305 63.3504 3.75462 63.733C3.76677 63.733 3.77284 63.733 3.77284 63.733C4.06434 63.8787 4.3194 64.0609 4.53802 64.2977C5.15745 64.9536 5.43073 65.9192 5.54005 66.7937C5.68579 67.8868 5.54005 68.9799 5.3943 70.0548C5.24855 71.0204 5.12102 71.986 5.04814 72.9516C4.92061 74.737 4.90239 76.6682 5.64936 78.3443C5.99551 79.1095 6.52385 79.8929 7.30725 80.2937C7.98134 80.6216 8.7283 80.567 9.36595 80.2026C10.0765 79.7836 10.5502 79.0366 10.787 78.2532C11.0967 77.233 11.1696 76.1398 11.1514 75.0832C11.1332 73.9718 11.0056 72.8787 10.8599 71.7856C10.7323 70.8929 10.5502 70.0184 10.4409 69.1257C10.3315 68.2876 10.2769 67.322 10.8234 66.6297C10.9328 66.484 11.1149 66.2653 11.3336 66.2653C11.4975 66.2653 11.6433 66.4111 11.7526 66.5386C12.4085 67.3949 12.4085 68.5609 13.0826 69.3989C13.9753 70.4738 15.5603 70.9293 16.8356 70.2188C17.5097 69.818 17.9651 69.1621 18.1838 68.4151C18.457 67.5224 18.5846 66.4111 19.5684 66.0285C20.0603 65.8463 20.5704 65.9374 21.0441 66.0832C21.5724 66.2653 22.0643 66.484 22.5744 66.6662C23.54 67.0123 24.6331 67.2856 25.6352 66.9576C26.5279 66.6662 27.1655 65.9556 27.9307 65.4637C28.787 64.9172 29.8437 64.8625 30.8457 64.7714C31.3376 64.735 31.8295 64.6803 32.3214 64.571C32.8862 64.4435 33.4692 64.3159 34.034 64.2066C34.5076 64.1216 34.9813 64.0609 35.455 64.0245C37.4408 63.9334 38.625 63.9698 39.6088 63.8605C43.0522 63.4961 42.5785 58.8139 42.5785 58.8139Z" fill="#FD84B2"/>
<path fill-rule="evenodd" clip-rule="evenodd" d="M8.25461 80.6762C7.90846 80.6762 7.54409 80.6033 7.21615 80.4393C6.34166 80.0021 5.7951 79.0911 5.48539 78.417C4.7202 76.6681 4.73842 74.664 4.86595 72.9332C4.93883 71.9859 5.06636 71.0385 5.21211 70.1094V70.0365C5.37607 68.9434 5.5036 67.8685 5.37607 66.8118C5.28498 66.1013 5.04814 65.0992 4.41049 64.4069C4.24652 64.2247 4.0279 64.0608 3.71818 63.8968C2.8194 63.7875 2.13923 63.417 1.6777 62.7855C0.602799 61.2915 1.0947 58.8685 1.11292 58.7774C1.13114 58.5041 2.64328 28.0425 3.71818 14.7976C4.82952 1.40692 19.2951 0.386675 19.4408 0.386675C21.6271 0.0769586 24.3963 0.386675 24.4327 0.386675C24.5603 0.386675 39.0258 1.40692 40.1372 14.7976C41.2121 28.0061 42.7242 58.3037 42.7424 58.7956C42.7607 58.9778 43.1433 63.66 39.6271 64.0426C39.0623 64.0972 38.4064 64.1154 37.6048 64.1336C36.9854 64.1519 36.2931 64.1519 35.455 64.2065C34.9813 64.243 34.5258 64.2976 34.0704 64.3705C33.6514 64.4616 33.2141 64.5527 32.8133 64.6438L32.3578 64.7531C31.8659 64.8624 31.3558 64.8988 30.8457 64.9535L30.6635 64.9717C29.7344 65.0446 28.787 65.1175 28.0218 65.6094C27.7667 65.7733 27.5117 65.9737 27.2566 66.1741C26.7829 66.5385 26.3093 66.9211 25.6898 67.1215C24.5967 67.4859 23.4125 67.1579 22.5198 66.83C22.3012 66.7571 22.0825 66.6721 21.8639 66.5749C21.5724 66.4656 21.2809 66.3563 20.9894 66.2652C20.4246 66.0648 19.9874 66.0466 19.6412 66.1924C18.8943 66.4838 18.6939 67.2126 18.4935 67.996C18.4449 68.1539 18.3963 68.3118 18.3477 68.4697C18.0927 69.326 17.5825 69.9818 16.9085 70.3644C15.6514 71.0749 13.9388 70.7106 12.955 69.5081C12.5906 69.0527 12.4085 68.5243 12.2445 67.996C12.0805 67.5041 11.9166 67.0486 11.6251 66.6478C11.5036 66.5021 11.4004 66.4292 11.3153 66.4292C11.1878 66.4292 11.0238 66.666 10.951 66.7389C10.4773 67.3583 10.5137 68.2328 10.623 69.0891C10.6777 69.581 10.7506 70.0729 10.8417 70.5466C10.8963 70.9474 10.9692 71.3664 11.0238 71.7673C11.1696 72.8057 11.3153 73.9353 11.3336 75.083C11.3518 76.3219 11.2242 77.3786 10.951 78.3077C10.6777 79.2187 10.1494 79.9292 9.45704 80.3482C9.07445 80.5668 8.65542 80.6762 8.25461 80.6762ZM21.6999 0.58708C20.9712 0.58708 20.1878 0.623517 19.4773 0.732829C19.3133 0.732829 5.13923 1.73485 4.06433 14.834C2.97122 28.0608 1.47729 58.5223 1.45907 58.8138C1.44085 58.8685 0.967171 61.2004 1.96919 62.5851C2.37 63.1498 2.98944 63.4778 3.77284 63.5506C3.79106 63.5506 3.82749 63.5689 3.86393 63.5689C4.21008 63.7693 4.46514 63.9515 4.66555 64.1883C5.35786 64.9353 5.61292 65.9919 5.72223 66.7753C5.84976 67.8685 5.72223 68.9616 5.55826 70.0911L5.54004 70.164C5.41251 71.0749 5.28498 72.0223 5.21211 72.9697C5.08458 74.6458 5.06636 76.6134 5.81332 78.2713C6.0866 78.909 6.5785 79.7288 7.38012 80.1296C7.98134 80.4393 8.69186 80.4029 9.29308 80.0385C9.89429 79.6924 10.368 79.0365 10.623 78.2166C10.8781 77.3239 11.0056 76.3037 10.9874 75.083C10.9692 73.9535 10.8234 72.8422 10.6777 71.8219C10.6291 71.409 10.5684 71.0021 10.4955 70.6013C10.4226 70.1276 10.3315 69.6357 10.2769 69.1438C10.1494 68.2146 10.1311 67.249 10.6777 66.5203C10.8599 66.3017 11.0603 66.083 11.3153 66.083C11.3153 66.083 11.3214 66.083 11.3336 66.083C11.6251 66.083 11.8255 66.3563 11.8983 66.4474C12.2263 66.8847 12.4085 67.3948 12.5724 67.8867C12.7364 68.3968 12.9004 68.8887 13.2283 69.2895C14.1028 70.3644 15.6149 70.6924 16.7445 70.0547C17.4915 69.6357 17.8558 68.9069 18.0198 68.3604C18.0684 68.2146 18.1109 68.0628 18.1473 67.9049C18.3659 67.1215 18.6028 66.2288 19.5137 65.8644C20.0785 65.6458 20.6979 65.7915 21.0987 65.9191C21.4085 66.0284 21.6999 66.1377 21.9914 66.2652C22.2101 66.3503 22.4226 66.4292 22.6291 66.5021C23.4854 66.8118 24.5967 67.1215 25.5805 66.7936C26.1453 66.6114 26.5825 66.2652 27.0562 65.9009C27.2931 65.7004 27.5663 65.5 27.8396 65.3179C28.6777 64.7895 29.6615 64.6984 30.6271 64.6255L30.8275 64.6073C31.3194 64.5527 31.8113 64.5162 32.285 64.4069L32.7222 64.3158C33.1412 64.2065 33.5785 64.1154 34.0157 64.0426C34.4712 63.9515 34.9449 63.8968 35.4368 63.8604C36.2931 63.8057 36.9854 63.8057 37.5866 63.7875C38.4064 63.7693 39.0441 63.7511 39.5906 63.6964C42.8335 63.3502 42.4145 58.8685 42.3963 58.832C42.3963 58.832 42.3963 58.826 42.3963 58.8138C42.3963 58.5223 40.8841 28.0608 39.791 14.834C38.7161 1.73485 24.5421 0.732829 24.3963 0.732829C24.3781 0.732829 23.1574 0.58708 21.6999 0.58708Z" fill="#231F20"/>
<g style="mix-blend-mode:multiply">
<path d="M5.35786 65.8825C5.3943 65.6639 5.41859 65.4453 5.43074 65.2266C5.52183 64.1882 5.55827 63.0404 5.17568 62.0566C4.88418 61.2368 4.33762 60.6173 3.77284 59.9615C3.15341 59.2327 2.57041 58.4675 2.1696 57.6113C1.84167 56.9189 1.60483 56.2266 1.44086 55.5161C1.34977 57.5748 1.27689 58.8137 1.27689 58.8137C1.27689 58.8137 0.311304 63.3501 3.75462 63.7327C3.76677 63.7327 3.77284 63.7327 3.77284 63.7327C4.06434 63.8785 4.3194 64.0606 4.53802 64.2975C4.95705 64.7347 5.21211 65.2995 5.35786 65.8825Z" fill="#FD84B2"/>
</g>
<g style="mix-blend-mode:multiply">
<path d="M42.5785 58.8139C42.5785 58.8139 41.0664 28.2066 39.955 14.8159C38.8619 1.42523 24.4146 0.550738 24.4146 0.550738C24.4146 0.550738 21.6453 0.241021 19.4409 0.550738C19.4409 0.550738 5.77691 1.37058 4.0097 13.741C5.97732 10.4252 8.8012 7.61957 12.2627 5.77949C15.1413 4.26734 18.5299 3.28353 21.7911 3.35641C24.8336 3.42928 27.7486 4.59527 29.9166 6.74507C32.0846 8.91309 33.3781 11.8463 33.9065 14.8341C34.2526 16.82 34.3255 18.8422 34.453 20.8281C34.5988 23.1236 34.6716 25.4192 34.7081 27.7147C34.781 32.3787 34.6899 37.0244 34.5623 41.6884C34.4895 43.82 34.3984 45.9516 34.3801 48.0831C34.3619 50.1601 34.3801 52.2552 34.1251 54.3139C34.0158 55.2613 33.8154 56.154 33.5603 57.0649C33.4328 57.5933 33.2688 58.2309 32.868 58.6317C32.6312 58.8686 32.3032 58.9415 31.9753 58.9415C31.4652 58.9415 30.9733 58.8686 30.4631 58.9232C29.7162 59.0143 29.0057 59.233 28.4591 59.7613C28.0036 60.1985 27.6939 60.7633 27.366 61.3099C26.7101 62.4394 25.7992 63.5872 24.3599 63.6965C23.0482 63.7876 22.4105 62.3301 21.2263 62.0386C20.4065 61.82 19.6595 62.0386 19.0947 62.6763C18.5117 63.3504 18.1838 64.2431 17.8923 65.0629C17.5826 65.9192 17.3275 66.7755 16.9449 67.5953C16.6716 68.1965 16.2891 68.8524 15.6514 69.071C14.8862 69.3443 13.9389 68.8524 13.4105 68.3241C12.3721 67.2309 12.7546 65.573 12.5542 64.2431C12.4449 63.569 12.1352 63.0406 11.5887 62.6398C11.2972 62.403 10.9146 62.2572 10.5502 62.4759C9.80323 62.9313 9.56638 64.1884 9.3842 64.9718C9.16557 65.9556 9.05626 66.9759 9.01983 67.9961C8.98339 68.907 9.0927 69.818 9.14736 70.7289C9.23845 72.0589 9.2931 73.3888 9.11092 74.7188C8.98339 75.7208 8.72833 76.905 7.87205 77.5427C7.034 78.1985 5.90444 78.0892 5.28501 77.2512C5.3761 77.6156 5.48541 77.9799 5.64938 78.3443C5.99553 79.1095 6.52387 79.8929 7.30727 80.2937C7.98136 80.6216 8.72833 80.567 9.36598 80.2026C10.0765 79.7836 10.5502 79.0366 10.787 78.2532C11.0967 77.233 11.1696 76.1398 11.1514 75.0832C11.1332 73.9718 11.0057 72.8787 10.8599 71.7856C10.7324 70.8929 10.5502 70.0184 10.4409 69.1257C10.3316 68.2876 10.2769 67.322 10.8235 66.6297C10.9328 66.484 11.115 66.2653 11.3336 66.2653C11.4976 66.2653 11.6433 66.4111 11.7526 66.5386C12.4085 67.3949 12.4085 68.5609 13.0826 69.3989C13.9753 70.4738 15.5603 70.9293 16.8356 70.2188C17.5097 69.818 17.9652 69.1621 18.1838 68.4151C18.4571 67.5224 18.5846 66.4111 19.5684 66.0285C20.0603 65.8463 20.5704 65.9374 21.0441 66.0832C21.5725 66.2653 22.0644 66.484 22.5745 66.6662C23.5401 67.0123 24.6332 67.2856 25.6352 66.9576C26.5279 66.6662 27.1656 65.9556 27.9308 65.4637C28.787 64.9172 29.8437 64.8625 30.8457 64.7714C31.3376 64.735 31.8295 64.6803 32.3214 64.571C32.8862 64.4435 33.4692 64.3159 34.034 64.2066C34.5077 64.1216 34.9814 64.0609 35.455 64.0245C37.4409 63.9334 38.6251 63.9698 39.6089 63.8605C43.0522 63.4961 42.5785 58.8139 42.5785 58.8139Z" fill="#FD84B2"/>
</g>
<path d="M4.3923 36.66C4.3923 36.66 4.38622 36.66 4.37408 36.66C4.19189 36.66 4.04614 36.4961 4.04614 36.3139C4.04614 36.1681 4.66558 22.1216 5.57651 14.8341C6.50566 7.38272 10.5138 5.5973 10.6959 5.52442C10.8599 5.45155 11.0603 5.54264 11.1514 5.70661C11.2243 5.88879 11.1332 6.0892 10.9692 6.16207C10.8963 6.19851 7.14331 7.91106 6.26881 14.9252C5.35788 22.1762 4.73845 36.1864 4.73845 36.3321C4.73845 36.5143 4.57448 36.66 4.3923 36.66Z" fill="white"/>
<path d="M4.08255 42.5629C4.07041 42.5629 4.06434 42.5629 4.06434 42.5629C3.86393 42.5447 3.71818 42.3807 3.7364 42.1803L4.08255 38.3908C4.10077 38.2087 4.26474 38.0629 4.46515 38.0811C4.64733 38.0993 4.79308 38.2633 4.77486 38.4637L4.42871 42.2532C4.41049 42.4354 4.26474 42.5629 4.08255 42.5629Z" fill="white"/>
<mask id="mask0_26_1218" style="mask-type:luminance" maskUnits="userSpaceOnUse" x="1" y="0" width="42" height="81">
<path d="M42.5767 58.81C42.5767 58.81 41.0627 28.2082 39.9623 14.8139C38.8619 1.4177 24.4127 0.555954 24.4127 0.555954C24.4127 0.555954 21.6471 0.249881 19.4445 0.555954C19.4445 0.555954 4.9953 1.4177 3.8949 14.8139C2.7945 28.2082 1.28053 58.81 1.28053 58.81C1.28053 58.81 0.316764 63.3574 3.75826 63.7272C3.76312 63.7272 3.76798 63.7278 3.77283 63.729C4.05705 63.8802 4.3285 64.0588 4.54713 64.2975C5.15563 64.9606 5.43437 65.9171 5.54368 66.7916C5.6785 67.8774 5.54004 68.9833 5.387 70.0618C5.25036 71.0238 5.1119 71.9821 5.04267 72.9513C4.9115 74.7367 4.90603 76.6752 5.64571 78.3422C5.99004 79.1147 6.52202 79.8981 7.29996 80.2843C7.97223 80.6195 8.73012 80.574 9.37506 80.195C10.0819 79.7778 10.552 79.0327 10.7834 78.2602C11.0894 77.2327 11.1714 76.1469 11.1532 75.0792C11.135 73.9788 11.0074 72.8821 10.8562 71.7926C10.7342 70.8981 10.5556 70.0108 10.4427 69.1163C10.3388 68.2873 10.2823 67.3272 10.8216 66.6276C10.94 66.4764 11.1222 66.2578 11.3245 66.2578C11.5048 66.2596 11.6524 66.4145 11.7544 66.5475C12.4066 67.391 12.4103 68.5643 13.0862 69.3896C13.9807 70.4809 15.5676 70.9272 16.8301 70.2094C17.5151 69.8195 17.9578 69.1564 18.1874 68.4149C18.4661 67.5258 18.5791 66.4181 19.5775 66.0282C20.053 65.8424 20.5777 65.939 21.0495 66.092C21.567 66.2596 22.0625 66.4892 22.5744 66.6732C23.5346 67.0193 24.6332 67.2944 25.637 66.9628C26.5334 66.6677 27.1564 65.9535 27.9344 65.4598C28.7943 64.9132 29.8528 64.8586 30.8384 64.7748C31.334 64.7329 31.8295 64.6855 32.3141 64.5798C32.8898 64.4505 33.4619 64.312 34.0431 64.2064C34.5095 64.1226 34.9783 64.0618 35.4495 64.0242C37.4445 63.9367 38.6342 63.9732 39.6143 63.8675C43.054 63.4995 42.5767 58.81 42.5767 58.81Z" fill="white"/>
</mask>
<g mask="url(#mask0_26_1218)">
<g style="mix-blend-mode:multiply" opacity="0.5">
<path fill-rule="evenodd" clip-rule="evenodd" d="M9.07444 79.638C8.52788 80.2938 8.03598 80.3849 7.58051 79.9659C7.12505 79.5104 7.23436 79.0185 7.94489 78.3991C7.56229 78.144 7.23436 77.8525 7.38011 77.3424C7.4712 76.9963 7.70804 76.7776 8.0542 76.723C8.5461 76.6319 8.81938 76.9598 9.07444 77.3606C9.36594 76.9781 9.63922 76.559 10.204 76.7412C10.5501 76.8505 10.7688 77.0874 10.8052 77.4335C10.8781 77.889 10.623 78.1805 10.2404 78.3809C10.9327 79.0914 11.0238 79.5651 10.5684 79.9841C10.1129 80.3849 9.65744 80.2756 9.07444 79.638ZM9.89428 78.3627C9.38416 78.308 9.29306 77.9436 9.11088 77.7797C8.43679 78.2169 8.38213 78.6359 9.1291 79.0732C9.25663 78.7999 9.49347 78.6177 9.89428 78.3627Z" fill="#FD84B2"/>
<path d="M6.03199 78.3807C5.57652 78.1621 5.32146 77.8524 5.43077 77.3605C5.54009 76.9414 5.83158 76.7228 6.23239 76.7046C6.61498 76.7046 6.88826 76.905 7.03401 77.2694C7.23442 77.8341 6.88826 78.1256 6.48745 78.3989C7.19798 79.0184 7.30729 79.5285 6.85183 79.9475C6.4328 80.3301 5.97733 80.3119 5.59474 79.9111C5.17571 79.4556 5.32146 79.0001 6.03199 78.3807Z" fill="#FD84B2"/>
<path d="M11.6797 78.3989C11.2607 78.1256 10.9327 77.8159 11.1514 77.2511C11.2789 76.8868 11.5704 76.7046 11.9348 76.7046C12.3174 76.7228 12.5906 76.9232 12.7182 77.2876C12.8821 77.8341 12.5906 78.1439 12.1716 78.3807C12.8821 79.0912 12.9732 79.5649 12.4995 79.9657C12.117 80.3119 11.6979 80.3119 11.3153 79.9475C10.8599 79.5103 10.9874 79.0366 11.6797 78.3989Z" fill="#FD84B2"/>
<path d="M17.6372 72.478C17.1818 72.4597 16.872 72.2411 16.8538 71.7674C16.8356 71.2755 17.0907 70.984 17.6008 70.9658C18.0745 70.9658 18.3477 71.2391 18.3477 71.7128C18.366 72.1865 18.0927 72.4233 17.6372 72.478Z" fill="#FD84B2"/>
<path d="M15.0502 71.7128C15.1048 71.2573 15.3417 70.9658 15.7971 70.9658C16.2708 70.9658 16.5441 71.2391 16.5623 71.6946C16.5623 72.2047 16.2708 72.478 15.7789 72.478C15.3052 72.4597 15.0866 72.1683 15.0502 71.7128Z" fill="#FD84B2"/>
<path d="M14.6311 71.7128C14.5947 72.1683 14.3578 72.4597 13.8842 72.478C13.3922 72.478 13.1008 72.1865 13.119 71.6946C13.1372 71.2209 13.4105 70.9658 13.8842 70.9658C14.3578 70.984 14.5765 71.2573 14.6311 71.7128Z" fill="#FD84B2"/>
<path d="M11.1514 71.822C11.1878 71.2936 11.4064 71.0021 11.8801 70.9657C12.372 70.9475 12.6635 71.2208 12.6635 71.7309C12.6817 72.1863 12.4085 72.4596 11.9348 72.4778C11.4611 72.4778 11.2425 72.1863 11.1514 71.822Z" fill="#FD84B2"/>
<path d="M11.1332 73.6986C11.1696 73.1885 11.4247 72.897 11.9348 72.897C12.4267 72.897 12.7 73.1885 12.7 73.6986C12.6818 74.1541 12.4267 74.4273 11.953 74.4273C11.4429 74.4456 11.1878 74.1723 11.1332 73.6986Z" fill="#FD84B2"/>
<path d="M11.8984 76.4129C11.4065 76.3583 11.115 76.085 11.1332 75.5931C11.1332 75.0648 11.4611 74.7733 11.9895 74.8097C12.4814 74.8461 12.7546 75.1741 12.7182 75.666C12.7 76.1579 12.3721 76.3947 11.8984 76.4129Z" fill="#FD84B2"/>
<path d="M9.94893 72.478C9.49347 72.4233 9.22019 72.1865 9.23841 71.7128C9.23841 71.2573 9.51169 70.984 9.96715 70.9658C10.4773 70.9658 10.7506 71.2573 10.7323 71.7674C10.7141 72.2411 10.4044 72.4597 9.94893 72.478Z" fill="#FD84B2"/>
<path d="M10.0036 74.4456C9.51174 74.4091 9.20203 74.1723 9.22024 73.6622C9.22024 73.1702 9.49352 72.897 10.0036 72.897C10.4591 72.897 10.7324 73.1703 10.7506 73.6257C10.7688 74.1358 10.4955 74.3909 10.0036 74.4456Z" fill="#FD84B2"/>
<path d="M9.93073 76.4128C9.42061 76.34 9.14733 76.0485 9.18377 75.5566C9.22021 75.0282 9.54814 74.755 10.0765 74.8096C10.5684 74.8643 10.8234 75.2104 10.7688 75.6841C10.7324 76.1942 10.4044 76.4128 9.93073 76.4128Z" fill="#FD84B2"/>
<path d="M8.94696 71.6399C8.92874 72.15 8.6919 72.4597 8.23643 72.478C7.72631 72.4962 7.43481 72.2047 7.43481 71.7128C7.45303 71.2391 7.72631 70.984 8.18178 70.9658C8.65546 70.9658 8.87408 71.2573 8.94696 71.6399Z" fill="#FD84B2"/>
<path d="M8.2182 74.4455C7.68986 74.4091 7.39836 74.154 7.41658 73.6439C7.4348 73.1338 7.72629 72.8787 8.23642 72.8969C8.69188 72.9151 8.94694 73.1884 8.96516 73.6439C8.96516 74.154 8.67366 74.3908 8.2182 74.4455Z" fill="#FD84B2"/>
<path d="M9.00157 75.6115C8.96513 76.1034 8.71007 76.3949 8.19995 76.4131C7.67161 76.4131 7.38011 76.1034 7.39833 75.5751C7.39833 75.0832 7.70804 74.7917 8.19995 74.8099C8.69185 74.8099 8.96513 75.1196 9.00157 75.6115Z" fill="#FD84B2"/>
<path d="M6.26878 72.4962C5.77688 72.4415 5.5036 72.2047 5.5036 71.731C5.5036 71.2573 5.75866 70.984 6.23235 70.9658C6.72425 70.9658 6.99753 71.2573 6.99753 71.7492C6.97931 72.2229 6.66959 72.4415 6.26878 72.4962Z" fill="#FD84B2"/>
<path d="M7.03398 73.6985C6.97932 74.1904 6.70604 74.4637 6.19592 74.4273C5.6858 74.4091 5.44896 74.0993 5.48539 73.6074C5.50361 73.1337 5.79511 72.8787 6.25058 72.8969C6.7607 72.8969 6.99754 73.2066 7.03398 73.6985Z" fill="#FD84B2"/>
<path d="M7.05221 75.6115C6.99756 76.1216 6.72428 76.4131 6.23238 76.4131C5.70404 76.3949 5.41254 76.067 5.44898 75.5386C5.48541 75.0467 5.81335 74.7734 6.30525 74.8099C6.79715 74.8281 7.03399 75.156 7.05221 75.6115Z" fill="#FD84B2"/>
<path d="M5.06634 71.6763C5.04813 72.15 4.8295 72.4415 4.35582 72.478C3.86392 72.4962 3.5542 72.2229 3.5542 71.7128C3.5542 71.2573 3.82748 70.984 4.28294 70.9658C4.75663 70.9658 4.99347 71.2391 5.06634 71.6763Z" fill="#FD84B2"/>
<path d="M5.08459 73.662C5.04815 74.1539 4.79309 74.4454 4.28297 74.4272C3.77285 74.4272 3.51779 74.1357 3.53601 73.6255C3.55423 73.1701 3.8275 72.8968 4.28297 72.8968C4.79309 72.8786 5.04815 73.1701 5.08459 73.662Z" fill="#FD84B2"/>
<path d="M3.49957 75.575C3.57245 75.0467 3.86394 74.7734 4.35585 74.8099C4.88419 74.8463 5.15747 75.1742 5.10281 75.7026C5.04816 76.1945 4.702 76.4495 4.22832 76.3949C3.7182 76.3584 3.49957 76.0305 3.49957 75.575Z" fill="#FD84B2"/>
<path d="M3.5542 69.9273C3.60886 69.49 3.8457 69.1803 4.31938 69.1985C4.77485 69.2167 5.04813 69.49 5.02991 69.9637C5.02991 70.3827 4.75663 70.656 4.31938 70.656C3.86392 70.6742 3.62707 70.3827 3.5542 69.9273Z" fill="#FD84B2"/>
<path d="M4.3376 68.7246C3.90035 68.6517 3.59064 68.4331 3.59064 68.014C3.59064 67.5586 3.88213 67.2671 4.3376 67.2671C4.75663 67.2853 5.02991 67.5768 5.01169 67.9958C5.01169 68.4331 4.72019 68.6335 4.3376 68.7246Z" fill="#FD84B2"/>
<path d="M6.21414 70.6744C5.77689 70.6016 5.4854 70.3465 5.50362 69.891C5.54005 69.472 5.81333 69.1987 6.23236 69.1987C6.68783 69.1987 6.97932 69.472 6.97932 69.9457C6.97932 70.4012 6.66961 70.638 6.21414 70.6744Z" fill="#FD84B2"/>
<path d="M6.25058 68.7246C5.83155 68.6699 5.54005 68.4331 5.54005 68.014C5.52183 67.5586 5.81333 67.2671 6.2688 67.2671C6.68783 67.2853 6.9611 67.5768 6.9611 67.9958C6.9611 68.4149 6.66961 68.6517 6.25058 68.7246Z" fill="#FD84B2"/>
<path d="M7.43481 70.0004C7.48947 69.4902 7.72631 69.1987 8.18178 69.1987C8.65546 69.1987 8.92874 69.4902 8.92874 69.9457C8.91052 70.3829 8.65546 70.638 8.21821 70.6562C7.74453 70.6927 7.52591 70.3829 7.43481 70.0004Z" fill="#FD84B2"/>
<path d="M8.16356 68.7246C7.74453 68.6335 7.47125 68.4149 7.47125 67.9776C7.47125 67.5586 7.74453 67.2853 8.18178 67.2671C8.63724 67.2671 8.92874 67.5768 8.8923 68.0323C8.87409 68.4513 8.58259 68.6699 8.16356 68.7246Z" fill="#FD84B2"/>
<path d="M10.7324 69.9457C10.6595 70.3829 10.4226 70.6744 9.94896 70.6562C9.52994 70.6562 9.25666 70.3829 9.25666 69.9457C9.23844 69.4902 9.51172 69.1987 9.96718 69.1987C10.4409 69.1987 10.6777 69.4902 10.7324 69.9457Z" fill="#FD84B2"/>
<path d="M9.25665 67.9776C9.31131 67.5768 9.54815 67.2853 9.96718 67.2671C10.4226 67.2671 10.7141 67.5586 10.6959 68.0323C10.6777 68.4513 10.3862 68.7064 9.96718 68.7064C9.52993 68.6881 9.31131 68.3966 9.25665 67.9776Z" fill="#FD84B2"/>
<path d="M11.9348 70.6744C11.4975 70.6198 11.1878 70.4012 11.1878 69.9275C11.1878 69.472 11.4793 69.1987 11.9348 69.1987C12.372 69.1987 12.6453 69.472 12.6635 69.891C12.6817 70.3647 12.3902 70.6016 11.9348 70.6744Z" fill="#FD84B2"/>
<path d="M12.6453 67.9776C12.6089 68.3966 12.372 68.6881 11.953 68.7064C11.4976 68.7246 11.2061 68.4331 11.2061 67.9594C11.2243 67.5404 11.4976 67.2671 11.9166 67.2671C12.3538 67.2671 12.5725 67.5586 12.6453 67.9776Z" fill="#FD84B2"/>
<path d="M13.8477 70.6743C13.4105 70.6014 13.119 70.3646 13.1372 69.8909C13.1554 69.4718 13.4105 69.1986 13.8477 69.1986C14.3032 69.1803 14.5947 69.4718 14.5947 69.9273C14.5947 70.401 14.3032 70.6196 13.8477 70.6743Z" fill="#FD84B2"/>
<path d="M25.2344 68.7246C24.8153 68.6699 24.5238 68.4513 24.5056 68.014C24.4874 67.5586 24.7789 67.2671 25.2344 67.2671C25.6534 67.2853 25.9267 67.5586 25.9267 67.9958C25.9267 68.4149 25.6534 68.6517 25.2344 68.7246Z" fill="#FD84B2"/>
<path d="M22.702 67.9962C22.7384 67.5953 22.9752 67.2856 23.3943 67.2674C23.8497 67.2492 24.1412 67.5407 24.1412 68.0144C24.1412 68.4334 23.8497 68.7067 23.4307 68.7067C22.9935 68.7067 22.7748 68.4152 22.702 67.9962Z" fill="#FD84B2"/>
<path d="M13.8842 68.7246C13.4652 68.6699 13.1737 68.4513 13.1555 68.0323C13.1372 67.5768 13.4105 67.2671 13.8842 67.2671C14.3032 67.2671 14.5765 67.5586 14.5765 67.9776C14.5765 68.4149 14.3032 68.6335 13.8842 68.7246Z" fill="#FD84B2"/>
<path d="M15.8335 70.6744C15.3781 70.6198 15.0684 70.4012 15.0684 69.9275C15.0866 69.472 15.3599 69.1987 15.8335 69.1987C16.2526 69.1987 16.5258 69.472 16.5441 69.891C16.5623 70.3647 16.2708 70.6016 15.8335 70.6744Z" fill="#FD84B2"/>
<path d="M16.5441 68.0144C16.453 68.4334 16.2162 68.7249 15.7971 68.7067C15.3417 68.6885 15.0502 68.3787 15.1048 67.9233C15.1413 67.5042 15.4328 67.231 15.8518 67.2674C16.2708 67.3038 16.5077 67.5953 16.5441 68.0144Z" fill="#FD84B2"/>
<path d="M21.5178 68.7246C21.0988 68.6881 20.8073 68.4513 20.7708 68.0323C20.7344 67.5768 21.0259 67.2853 21.4814 67.2671C21.9004 67.2671 22.1919 67.5404 22.1919 67.9776C22.2101 68.3966 21.9368 68.6335 21.5178 68.7246Z" fill="#FD84B2"/>
<path d="M18.3477 69.9457C18.2748 70.4012 18.038 70.6927 17.5643 70.6562C17.1453 70.638 16.872 70.3647 16.872 69.9457C16.872 69.4902 17.1453 69.1987 17.6008 69.1987C18.0744 69.1987 18.2931 69.5084 18.3477 69.9457Z" fill="#FD84B2"/>
<path d="M16.872 68.0144C16.9084 67.5953 17.1271 67.3038 17.5461 67.2674C18.0016 67.2492 18.3113 67.5407 18.3113 67.9962C18.3113 68.4152 18.038 68.6885 17.619 68.7067C17.1817 68.7067 16.9631 68.4334 16.872 68.0144Z" fill="#FD84B2"/>
<path d="M19.5319 68.7247C19.0947 68.6336 18.8214 68.3967 18.8214 67.9777C18.8578 67.5222 19.1493 67.2307 19.6048 67.2854C20.0238 67.3218 20.2971 67.6133 20.2607 68.0323C20.2242 68.4514 19.9327 68.67 19.5319 68.7247Z" fill="#FD84B2"/>
<path d="M17.6008 66.739C17.1453 66.6662 16.8903 66.4111 16.9267 65.9921C16.9449 65.5913 17.2364 65.3362 17.619 65.3544C18.0563 65.3909 18.3113 65.6641 18.2749 66.1014C18.2567 66.5022 17.9652 66.7026 17.6008 66.739Z" fill="#FD84B2"/>
<path d="M20.2425 66.0466C20.1878 66.4838 19.9327 66.7389 19.5137 66.7207C19.1129 66.7025 18.8578 66.4474 18.8578 66.0466C18.8578 65.6093 19.1493 65.3543 19.5866 65.3725C19.9692 65.3725 20.1878 65.6458 20.2425 66.0466Z" fill="#FD84B2"/>
<path d="M4.30117 66.7391C3.86393 66.6844 3.59065 66.4294 3.62709 65.9921C3.6453 65.6096 3.91858 65.3545 4.31939 65.3545C4.75664 65.3727 5.0117 65.6642 4.99348 66.1015C4.95705 66.484 4.68377 66.7027 4.30117 66.7391Z" fill="#FD84B2"/>
<path d="M15.8153 66.739C15.4327 66.7026 15.1594 66.5022 15.123 66.1013C15.0866 65.6823 15.3416 65.3908 15.7789 65.3726C16.1797 65.3362 16.453 65.5912 16.4894 65.9738C16.5258 66.4111 16.2708 66.6661 15.8153 66.739Z" fill="#FD84B2"/>
<path d="M21.4631 66.7387C21.0259 66.6659 20.7708 66.4108 20.8073 65.9735C20.8437 65.5727 21.117 65.3359 21.5178 65.3723C21.9368 65.3905 22.2101 65.682 22.1555 66.1193C22.1372 66.5019 21.8457 66.7023 21.4631 66.7387Z" fill="#FD84B2"/>
<path d="M13.8842 66.739C13.4834 66.7026 13.2101 66.5022 13.1919 66.1014C13.1554 65.6641 13.4105 65.3909 13.8477 65.3544C14.2303 65.3362 14.5218 65.5913 14.54 65.9921C14.5765 66.4111 14.3214 66.6662 13.8842 66.739Z" fill="#FD84B2"/>
<path d="M24.123 66.0285C24.0866 66.411 23.8862 66.6843 23.4854 66.7208C23.0481 66.7572 22.7748 66.5021 22.7384 66.0649C22.7202 65.6823 22.9752 65.3908 23.3578 65.3726C23.7951 65.3361 24.0501 65.5912 24.123 66.0285Z" fill="#FD84B2"/>
<path d="M5.55829 66.0283C5.61294 65.6092 5.86801 65.336 6.28703 65.3724C6.68784 65.3906 6.9429 65.6639 6.92469 66.0465C6.92469 66.4837 6.63319 66.757 6.19594 66.7206C5.81335 66.7024 5.59473 66.4291 5.55829 66.0283Z" fill="#FD84B2"/>
<path d="M25.2161 66.7391C24.7971 66.6844 24.5238 66.4476 24.5421 66.0104C24.5603 65.6095 24.8153 65.3545 25.2161 65.3545C25.6534 65.3727 25.9267 65.646 25.9085 66.0832C25.8902 66.484 25.617 66.7027 25.2161 66.7391Z" fill="#FD84B2"/>
<path d="M28.4044 66.0285C28.4773 65.5912 28.7324 65.3361 29.1696 65.3726C29.5704 65.409 29.8073 65.6823 29.789 66.0649C29.7526 66.5021 29.4793 66.7572 29.0421 66.7208C28.6413 66.6843 28.4409 66.411 28.4044 66.0285Z" fill="#FD84B2"/>
<path d="M12.6089 66.0286C12.5907 66.4294 12.3721 66.7027 11.9713 66.7209C11.5522 66.7573 11.2607 66.5023 11.2425 66.065C11.2243 65.6278 11.5158 65.3545 11.953 65.3545C12.3356 65.3727 12.5725 65.6278 12.6089 66.0286Z" fill="#FD84B2"/>
<path d="M8.87409 66.0466C8.83765 66.4838 8.58259 66.7389 8.14534 66.7207C7.76275 66.7025 7.50769 66.4474 7.50769 66.0466C7.50769 65.6093 7.79919 65.3543 8.21822 65.3725C8.61902 65.3725 8.83765 65.6458 8.87409 66.0466Z" fill="#FD84B2"/>
<path d="M27.8579 66.0466C27.8032 66.4838 27.5664 66.7389 27.1291 66.7207C26.7283 66.7025 26.4733 66.4474 26.4733 66.0466C26.4915 65.6093 26.7648 65.3543 27.202 65.3725C27.5846 65.3725 27.8214 65.6458 27.8579 66.0466Z" fill="#FD84B2"/>
<path d="M9.96718 66.7387C9.52994 66.6659 9.25666 66.4108 9.31131 65.9735C9.32953 65.5727 9.62103 65.3359 10.0036 65.3723C10.4409 65.3905 10.6959 65.682 10.6595 66.1193C10.6231 66.5019 10.3498 66.7023 9.96718 66.7387Z" fill="#FD84B2"/>
<path d="M9.9854 64.753C9.60281 64.7348 9.34775 64.5344 9.32953 64.1153C9.32953 63.7145 9.54815 63.4777 9.96718 63.4595C10.368 63.4413 10.6048 63.6781 10.6231 64.0789C10.6413 64.4797 10.4044 64.7166 9.9854 64.753Z" fill="#FD84B2"/>
<path d="M39.8093 64.1154C39.8275 63.7328 40.0097 63.4778 40.4288 63.4596C40.8296 63.4413 41.0846 63.66 41.1028 64.0608C41.1211 64.4798 40.9024 64.7349 40.5016 64.7531C40.1008 64.7713 39.8458 64.5527 39.8093 64.1154Z" fill="#FD84B2"/>
<path d="M27.1656 64.753C26.783 64.7348 26.5279 64.5344 26.5279 64.1336C26.5097 63.7145 26.7283 63.4777 27.1473 63.4595C27.5482 63.4413 27.785 63.6781 27.8032 64.0789C27.8214 64.4797 27.6028 64.7166 27.1656 64.753Z" fill="#FD84B2"/>
<path d="M8.2 64.753C7.79919 64.7348 7.56235 64.5344 7.54413 64.1336C7.52591 63.7145 7.76276 63.4777 8.16356 63.4595C8.56437 63.4413 8.81944 63.6781 8.83765 64.0789C8.83765 64.4797 8.61903 64.7166 8.2 64.753Z" fill="#FD84B2"/>
<path d="M25.2344 64.753C24.8336 64.7348 24.5967 64.5344 24.5785 64.1336C24.5603 63.7145 24.7971 63.4777 25.1979 63.4595C25.5987 63.4413 25.8538 63.6781 25.872 64.0789C25.872 64.4797 25.6534 64.7166 25.2344 64.753Z" fill="#FD84B2"/>
<path d="M28.459 64.1154C28.459 63.7328 28.6595 63.4778 29.0603 63.4596C29.4793 63.4413 29.7343 63.66 29.7526 64.0608C29.7708 64.4798 29.5522 64.7349 29.1331 64.7531C28.7323 64.7713 28.4955 64.5527 28.459 64.1154Z" fill="#FD84B2"/>
<path d="M11.953 64.7531C11.5522 64.7349 11.2971 64.5527 11.2789 64.1336C11.2607 63.7328 11.4793 63.4778 11.8801 63.4596C12.2991 63.4413 12.5542 63.66 12.5724 64.0608C12.5906 64.4798 12.372 64.7166 11.953 64.7531Z" fill="#FD84B2"/>
<path d="M31.538 64.0971C31.5198 64.4979 31.3194 64.7348 30.9004 64.753C30.4995 64.753 30.2627 64.5162 30.2627 64.1153C30.2445 63.6963 30.4813 63.4595 30.8821 63.4595C31.3012 63.4595 31.5198 63.6781 31.538 64.0971Z" fill="#FD84B2"/>
<path d="M41.7587 64.1154C41.7587 63.7328 41.9591 63.4778 42.3599 63.4596C42.7607 63.4413 43.034 63.66 43.0522 64.0608C43.0704 64.4798 42.8518 64.7349 42.4328 64.7531C42.0319 64.7713 41.7951 64.5527 41.7587 64.1154Z" fill="#FD84B2"/>
<path d="M6.26882 64.753C5.83157 64.7166 5.59473 64.4979 5.59473 64.0971C5.61295 63.6781 5.84979 63.4595 6.2506 63.4595C6.66962 63.4595 6.88825 63.6963 6.88825 64.1153C6.88825 64.5162 6.63319 64.7348 6.26882 64.753Z" fill="#FD84B2"/>
<path d="M38.534 64.753C38.0967 64.7166 37.8781 64.4979 37.8781 64.0971C37.8781 63.6781 38.115 63.4595 38.534 63.4595C38.9348 63.4595 39.1716 63.6963 39.1534 64.1153C39.1534 64.5162 38.9166 64.7348 38.534 64.753Z" fill="#FD84B2"/>
<path d="M23.4308 64.753C23.0482 64.7348 22.7931 64.5344 22.7931 64.1153C22.7749 63.7145 22.9935 63.4777 23.4125 63.4595C23.8133 63.4413 24.0684 63.6781 24.0684 64.0789C24.0866 64.4797 23.868 64.7166 23.4308 64.753Z" fill="#FD84B2"/>
<path d="M13.866 64.753C13.4652 64.7348 13.2283 64.5162 13.2283 64.1153C13.2101 63.6963 13.447 63.4595 13.866 63.4595C14.2668 63.4595 14.5036 63.6781 14.5036 64.0971C14.5219 64.4979 14.285 64.7166 13.866 64.753Z" fill="#FD84B2"/>
<path d="M20.8437 64.0971C20.8619 63.6781 21.0805 63.4595 21.4996 63.4595C21.9004 63.4595 22.1372 63.6963 22.1372 64.1153C22.119 64.5162 21.8821 64.753 21.4813 64.753C21.0623 64.7348 20.8619 64.4979 20.8437 64.0971Z" fill="#FD84B2"/>
<path d="M32.1938 64.1153C32.2303 63.6781 32.4489 63.4413 32.8679 63.4595C33.2687 63.4777 33.4874 63.7145 33.4874 64.1336C33.4692 64.5344 33.2323 64.753 32.8133 64.753C32.4125 64.7348 32.2121 64.4797 32.1938 64.1153Z" fill="#FD84B2"/>
<path d="M15.8154 64.753C15.4145 64.7348 15.1777 64.5162 15.1595 64.1153C15.1595 63.6963 15.3963 63.4595 15.7971 63.4595C16.2162 63.4595 16.453 63.6781 16.453 64.0971C16.453 64.4979 16.2162 64.7166 15.8154 64.753Z" fill="#FD84B2"/>
<path d="M3.66351 64.1153C3.66351 63.7145 3.86392 63.4777 4.28295 63.4595C4.68376 63.4413 4.93882 63.6781 4.93882 64.0789C4.95703 64.4797 4.73841 64.7348 4.31938 64.753C3.91857 64.753 3.69995 64.5344 3.66351 64.1153Z" fill="#FD84B2"/>
<path d="M35.4368 64.0971C35.4186 64.4797 35.2182 64.7348 34.7991 64.753C34.3983 64.753 34.1433 64.5344 34.1433 64.1153C34.125 63.7145 34.3437 63.4777 34.7627 63.4595C35.1635 63.4413 35.4004 63.6781 35.4368 64.0971Z" fill="#FD84B2"/>
<path d="M37.3679 64.0972C37.3679 64.4616 37.1675 64.7349 36.7667 64.7531C36.3477 64.7713 36.0926 64.5527 36.0744 64.1336C36.0562 63.7328 36.2748 63.4778 36.6938 63.4595C37.0947 63.4413 37.3315 63.66 37.3679 64.0972Z" fill="#FD84B2"/>
<path d="M18.8943 64.1153C18.9307 63.6781 19.1493 63.4595 19.5502 63.4595C19.9692 63.4595 20.1878 63.6963 20.1878 64.1153C20.1878 64.5162 19.951 64.753 19.5319 64.753C19.1311 64.7348 18.9125 64.4979 18.8943 64.1153Z" fill="#FD84B2"/>
<path d="M17.619 64.753C17.1636 64.7166 16.9449 64.4797 16.9631 64.0789C16.9631 63.6781 17.2182 63.4413 17.619 63.4595C18.038 63.4777 18.2567 63.7145 18.2385 64.1336C18.2385 64.5344 17.9834 64.7348 17.619 64.753Z" fill="#FD84B2"/>
<path d="M36.1655 56.6092C36.2384 56.2813 36.4388 56.0444 36.7667 56.0808C37.0947 56.1173 37.3133 56.3541 37.2586 56.7003C37.2404 56.9918 37.0218 57.1922 36.7121 57.174C36.3842 57.174 36.202 56.9371 36.1655 56.6092Z" fill="#FD84B2"/>
<path d="M36.7303 59.0141C36.3842 58.9595 36.1473 58.7773 36.1473 58.4494C36.1473 58.0668 36.3842 57.8299 36.7668 57.8481C37.0947 57.8664 37.3133 58.1032 37.2951 58.4494C37.2769 58.7955 37.0583 58.9595 36.7303 59.0141Z" fill="#FD84B2"/>
<path d="M36.6939 60.9821C36.3295 60.9092 36.0927 60.7088 36.1291 60.3262C36.1656 59.9436 36.4206 59.7432 36.785 59.7796C37.1311 59.8161 37.3315 60.0347 37.3133 60.3808C37.3133 60.7634 37.0765 60.9456 36.6939 60.9821Z" fill="#FD84B2"/>
<path d="M36.0927 62.3483C36.1109 61.9657 36.2931 61.7107 36.6756 61.6925C37.0947 61.6742 37.3315 61.8929 37.3315 62.3119C37.3497 62.6945 37.1311 62.9131 36.7485 62.9313C36.3477 62.9313 36.1473 62.7309 36.0927 62.3483Z" fill="#FD84B2"/>
<path d="M34.2162 56.6095C34.2891 56.2815 34.4895 56.0629 34.8174 56.0811C35.1453 56.1176 35.364 56.3544 35.3275 56.7006C35.2911 56.9921 35.0725 57.1925 34.781 57.1743C34.4348 57.1743 34.2526 56.9374 34.2162 56.6095Z" fill="#FD84B2"/>
<path d="M35.3822 58.4311C35.3093 58.7773 35.1089 59.0141 34.781 58.9959C34.4348 58.9959 34.2162 58.7773 34.2162 58.4311C34.2162 58.0668 34.453 57.8299 34.8356 57.8481C35.1636 57.8664 35.3275 58.1214 35.3822 58.4311Z" fill="#FD84B2"/>
<path d="M35.3821 60.3805C35.3457 60.7449 35.1453 60.9817 34.7627 60.9635C34.3801 60.9453 34.1615 60.7085 34.1797 60.3259C34.2161 59.9797 34.4165 59.7793 34.7627 59.7793C35.1635 59.7611 35.3457 59.9979 35.3821 60.3805Z" fill="#FD84B2"/>
<path d="M34.1615 62.2936C34.1979 61.911 34.3983 61.6924 34.7809 61.6924C35.2 61.6924 35.4186 61.9474 35.4004 62.3665C35.3639 62.7491 35.1271 62.9495 34.7445 62.9312C34.3619 62.913 34.1797 62.6762 34.1615 62.2936Z" fill="#FD84B2"/>
<path d="M13.3012 56.6641C13.3559 56.3179 13.5381 56.0811 13.866 56.0811C14.2121 56.0993 14.4308 56.3179 14.4125 56.6641C14.3943 56.9556 14.1939 57.1742 13.9024 57.1742C13.5563 57.1924 13.3741 56.9738 13.3012 56.6641Z" fill="#FD84B2"/>
<path d="M13.9206 59.0141C13.5562 58.9959 13.3194 58.8137 13.3012 58.4676C13.2647 58.1032 13.5016 57.8481 13.866 57.8481C14.2121 57.8481 14.4307 58.0668 14.4489 58.4129C14.4489 58.7591 14.2121 58.9413 13.9206 59.0141Z" fill="#FD84B2"/>
<path d="M37.8963 62.3118C37.9145 61.9474 38.0967 61.7106 38.4975 61.6924C38.9165 61.6924 39.1534 61.911 39.1352 62.33C39.1169 62.7308 38.8983 62.9312 38.5157 62.9312C38.1149 62.9312 37.9327 62.6944 37.8963 62.3118Z" fill="#FD84B2"/>
<path d="M38.6069 60.9817C38.1696 60.9453 37.9328 60.7631 37.9146 60.3805C37.9146 59.9979 38.1514 59.7793 38.534 59.7793C38.8801 59.7793 39.0805 59.9797 39.117 60.3259C39.1534 60.7267 38.8984 60.8906 38.6069 60.9817Z" fill="#FD84B2"/>
<path d="M38.4976 59.0141C38.1696 58.9595 37.9328 58.7773 37.951 58.4311C37.951 58.085 38.1514 57.8664 38.4976 57.8481C38.8801 57.8481 39.117 58.085 39.0988 58.4676C39.0805 58.7955 38.8437 58.9777 38.4976 59.0141Z" fill="#FD84B2"/>
<path d="M38.4975 57.1923C38.1513 57.1194 37.9327 56.919 37.9692 56.5911C38.0056 56.2632 38.2424 56.0445 38.5886 56.0992C38.8801 56.1356 39.0805 56.336 39.0623 56.6457C39.0441 56.9919 38.8254 57.1559 38.4975 57.1923Z" fill="#FD84B2"/>
<path d="M14.4672 60.3989C14.4125 60.7633 14.2121 60.9819 13.8295 60.9637C13.4469 60.9272 13.2465 60.6904 13.2648 60.3078C13.3012 59.9616 13.5198 59.7612 13.866 59.7795C14.2486 59.7795 14.449 60.0163 14.4672 60.3989Z" fill="#FD84B2"/>
<path d="M33.3963 56.6095C33.3599 56.9374 33.1777 57.1743 32.8498 57.1743C32.5036 57.1743 32.285 56.9556 32.285 56.6277C32.285 56.318 32.5036 56.0994 32.7951 56.0811C33.1412 56.0629 33.3234 56.2815 33.3963 56.6095Z" fill="#FD84B2"/>
<path d="M32.8316 59.0141C32.4854 58.9595 32.2668 58.7773 32.2668 58.4311C32.2668 58.085 32.4854 57.8664 32.8133 57.8481C33.1959 57.8481 33.4328 58.085 33.4146 58.4676C33.3963 58.7955 33.1595 58.9777 32.8316 59.0141Z" fill="#FD84B2"/>
<path d="M32.8315 59.7612C33.2505 59.8341 33.4692 60.0345 33.4327 60.4171C33.3963 60.7997 33.1412 61.0001 32.7769 60.9637C32.4307 60.9272 32.2303 60.7086 32.2485 60.3442C32.2485 59.9616 32.5218 59.7977 32.8315 59.7612Z" fill="#FD84B2"/>
<path d="M33.4692 62.3302C33.4327 62.7128 33.2323 62.9314 32.8315 62.9314C32.4125 62.9132 32.1939 62.6764 32.2303 62.2573C32.2485 61.8747 32.5036 61.6743 32.8862 61.6925C33.2688 61.7108 33.451 61.9476 33.4692 62.3302Z" fill="#FD84B2"/>
<path d="M13.9024 62.9312C13.5198 62.9312 13.2648 62.7491 13.2465 62.3483C13.2283 61.9474 13.4469 61.6924 13.866 61.6924C14.2668 61.6924 14.4672 61.911 14.4854 62.2936C14.4854 62.6944 14.2668 62.8948 13.9024 62.9312Z" fill="#FD84B2"/>
<path d="M15.7789 62.9314C15.4146 62.895 15.1777 62.6946 15.1959 62.312C15.1959 61.8747 15.451 61.6743 15.87 61.6925C16.2526 61.729 16.453 61.9658 16.4166 62.3484C16.3984 62.731 16.1615 62.9132 15.7789 62.9314Z" fill="#FD84B2"/>
<path d="M15.7789 60.9821C15.4145 60.9092 15.1777 60.7088 15.2141 60.3262C15.2324 59.9436 15.4874 59.7432 15.87 59.7796C16.2162 59.7978 16.4166 60.0165 16.3983 60.3626C16.3983 60.7634 16.1615 60.9456 15.7789 60.9821Z" fill="#FD84B2"/>
<path d="M40.4651 62.9312C40.0825 62.913 39.8457 62.7126 39.8457 62.33C39.8275 61.911 40.0643 61.6742 40.4834 61.6924C40.8842 61.7106 41.0846 61.9474 41.0846 62.33C41.0664 62.7126 40.8477 62.913 40.4651 62.9312Z" fill="#FD84B2"/>
<path d="M39.8457 60.4352C39.8821 59.9979 40.0825 59.7611 40.4651 59.7793C40.8477 59.7793 41.0664 60.0161 41.0481 60.3987C41.0481 60.7449 40.8295 60.9453 40.4834 60.9635C40.1008 60.9817 39.9186 60.7267 39.8457 60.4352Z" fill="#FD84B2"/>
<path d="M30.3356 56.6276C30.3902 56.2997 30.5724 56.0811 30.9186 56.0811C31.2465 56.0993 31.4651 56.3361 31.4469 56.6641C31.4287 56.9738 31.2283 57.1742 30.9186 57.1742C30.5724 57.1924 30.3902 56.9738 30.3356 56.6276Z" fill="#FD84B2"/>
<path d="M30.3174 58.4494C30.3356 58.1032 30.5178 57.8664 30.8457 57.8481C31.2283 57.8299 31.4652 58.0668 31.4652 58.4311C31.4652 58.7773 31.2465 58.9959 30.9004 58.9959C30.5542 59.0141 30.372 58.7773 30.3174 58.4494Z" fill="#FD84B2"/>
<path d="M31.5016 60.4171C31.4469 60.7815 31.2283 61.0001 30.8457 60.9637C30.4631 60.9272 30.2627 60.6722 30.2992 60.2896C30.3356 59.9616 30.5724 59.7612 30.9186 59.7795C31.3012 59.7795 31.4834 60.0345 31.5016 60.4171Z" fill="#FD84B2"/>
<path d="M30.9004 62.9312C30.536 62.913 30.2992 62.7308 30.2809 62.33C30.2627 61.911 30.4996 61.6742 30.9186 61.6924C31.3194 61.7106 31.5198 61.9292 31.5198 62.3118C31.5198 62.7126 31.283 62.8948 30.9004 62.9312Z" fill="#FD84B2"/>
<path d="M15.8336 59.0141C15.4692 58.9595 15.2324 58.7773 15.2324 58.4311C15.2324 58.085 15.451 57.8664 15.7789 57.8481C16.1615 57.8481 16.3984 58.085 16.3801 58.4494C16.3801 58.7955 16.1251 58.9595 15.8336 59.0141Z" fill="#FD84B2"/>
<path d="M15.2506 56.6092C15.3235 56.2813 15.5239 56.0444 15.8518 56.0808C16.1798 56.1173 16.3984 56.3541 16.3437 56.7003C16.3073 56.9918 16.1069 57.1922 15.7972 57.174C15.451 57.1557 15.287 56.9371 15.2506 56.6092Z" fill="#FD84B2"/>
<path d="M41.0482 58.4676C40.9753 58.7956 40.7931 59.0142 40.447 58.996C40.0644 58.9777 39.8457 58.7409 39.8822 58.3583C39.9368 58.0304 40.1737 57.8118 40.5198 57.8482C40.8478 57.8846 41.0299 58.1215 41.0482 58.4676Z" fill="#FD84B2"/>
<path d="M40.4651 57.1925C40.1372 57.1378 39.9004 56.9556 39.9186 56.6095C39.9186 56.2815 40.1554 56.0629 40.5016 56.0811C40.7931 56.0994 40.9935 56.318 41.0117 56.6095C41.0117 56.9556 40.7931 57.1378 40.4651 57.1925Z" fill="#FD84B2"/>
<path d="M29.1332 57.1924C28.787 57.156 28.5502 56.9738 28.5502 56.6276C28.5684 56.2997 28.787 56.0811 29.1332 56.0811C29.4247 56.0993 29.6433 56.2997 29.6433 56.6094C29.6615 56.9373 29.4429 57.1195 29.1332 57.1924Z" fill="#FD84B2"/>
<path d="M28.5137 58.4311C28.5684 58.085 28.7506 57.8481 29.0967 57.8481C29.4611 57.8481 29.6979 58.085 29.6797 58.4676C29.6615 58.7955 29.4247 59.0141 29.0785 58.9959C28.7324 58.9777 28.5684 58.7591 28.5137 58.4311Z" fill="#FD84B2"/>
<path d="M29.0967 60.9818C28.7324 60.9271 28.4955 60.7267 28.5137 60.3441C28.532 59.9615 28.7688 59.7429 29.1514 59.7793C29.4975 59.7975 29.6979 60.0162 29.6979 60.3623C29.6979 60.7449 29.4793 60.9271 29.0967 60.9818Z" fill="#FD84B2"/>
<path d="M28.4773 62.3483C28.4955 61.9657 28.6595 61.7107 29.0603 61.6925C29.4611 61.6742 29.7162 61.8929 29.7162 62.3119C29.7162 62.6945 29.5158 62.9131 29.1149 62.9313C28.7324 62.9313 28.532 62.7309 28.4773 62.3483Z" fill="#FD84B2"/>
<path d="M11.37 56.6276C11.4247 56.2997 11.6068 56.0811 11.9348 56.0811C12.2809 56.0993 12.4813 56.3361 12.4631 56.6641C12.4631 56.9738 12.2445 57.1742 11.9348 57.1742C11.6068 57.1924 11.4247 56.9738 11.37 56.6276Z" fill="#FD84B2"/>
<path d="M41.7769 62.3118C41.7951 61.9474 41.9773 61.7106 42.3781 61.6924C42.7972 61.6924 43.034 61.911 43.0158 62.33C42.9976 62.7308 42.7789 62.9312 42.3963 62.9312C41.9955 62.9312 41.8134 62.6944 41.7769 62.3118Z" fill="#FD84B2"/>
<path d="M43.0158 60.4171C42.9429 60.7815 42.7243 61.0001 42.3417 60.9637C41.9773 60.9272 41.7769 60.6722 41.8133 60.2896C41.8498 59.9616 42.0684 59.7612 42.4145 59.7795C42.7971 59.7795 42.9793 60.0345 43.0158 60.4171Z" fill="#FD84B2"/>
<path d="M42.3963 59.0141C42.0684 58.9595 41.8315 58.7773 41.8315 58.4494C41.8315 58.0668 42.0684 57.8299 42.4328 57.8481C42.7789 57.8664 42.9975 58.1032 42.9793 58.4494C42.9611 58.7955 42.7425 58.9595 42.3963 59.0141Z" fill="#FD84B2"/>
<path d="M27.1838 57.1923C26.8558 57.1559 26.6372 56.9919 26.619 56.6458C26.6008 56.3361 26.8012 56.1356 27.0927 56.0992C27.4388 56.0446 27.6757 56.2632 27.7121 56.5729C27.7486 56.919 27.5299 57.1195 27.1838 57.1923Z" fill="#FD84B2"/>
<path d="M27.7486 58.4494C27.6939 58.7773 27.5117 58.9959 27.1656 58.9959C26.8194 58.9959 26.6008 58.7773 26.5826 58.4494C26.5826 58.0668 26.8194 57.8299 27.202 57.8481C27.53 57.8664 27.7121 58.1032 27.7486 58.4494Z" fill="#FD84B2"/>
<path d="M27.1655 60.9818C26.8012 60.9454 26.5643 60.745 26.5643 60.3624C26.5825 59.9798 26.8012 59.7612 27.1838 59.7794C27.5299 59.7794 27.7485 59.998 27.7668 60.3442C27.7668 60.7267 27.5481 60.9272 27.1655 60.9818Z" fill="#FD84B2"/>
<path d="M27.202 62.9312C26.8194 62.9312 26.5643 62.7491 26.5461 62.3483C26.5279 61.9474 26.7465 61.6924 27.1655 61.6924C27.5481 61.6924 27.7667 61.911 27.785 62.2936C27.785 62.6944 27.5663 62.8948 27.202 62.9312Z" fill="#FD84B2"/>
<path d="M11.3336 58.4494C11.3882 58.085 11.5704 57.8481 11.9166 57.8481C12.2627 57.8481 12.4813 58.0668 12.4995 58.3947C12.4995 58.7773 12.2627 59.0141 11.8983 58.9959C11.5522 58.9959 11.3882 58.7409 11.3336 58.4494Z" fill="#FD84B2"/>
<path d="M11.9166 60.9818C11.534 60.9271 11.3154 60.7267 11.3336 60.3441C11.3518 59.9615 11.5886 59.7429 11.9712 59.7793C12.3174 59.7975 12.5178 60.0162 12.5178 60.3623C12.5178 60.7449 12.2992 60.9271 11.9166 60.9818Z" fill="#FD84B2"/>
<path d="M12.5543 62.2754C12.5178 62.6944 12.3356 62.913 11.953 62.9312C11.5158 62.9312 11.2972 62.6944 11.3154 62.2754C11.3154 61.8928 11.5522 61.6924 11.9348 61.6924C12.3356 61.6924 12.5178 61.9292 12.5543 62.2754Z" fill="#FD84B2"/>
<path d="M41.8497 56.6095C41.9044 56.2815 42.1048 56.0629 42.4509 56.0811C42.7789 56.1176 42.9793 56.3544 42.9428 56.7006C42.9064 56.9921 42.706 57.1925 42.3963 57.1743C42.0501 57.1743 41.8862 56.9374 41.8497 56.6095Z" fill="#FD84B2"/>
<path d="M25.1979 57.1923C24.8518 57.1194 24.6332 56.919 24.6696 56.5911C24.706 56.2632 24.9429 56.0445 25.289 56.0992C25.5805 56.1356 25.7809 56.336 25.7627 56.6457C25.7445 56.9919 25.5259 57.1559 25.1979 57.1923Z" fill="#FD84B2"/>
<path d="M25.7992 58.4676C25.7445 58.7956 25.5441 59.0142 25.1979 58.996C24.8336 58.9777 24.5967 58.7409 24.6514 58.3583C24.6878 58.0304 24.9247 57.8118 25.2708 57.8482C25.5987 57.8846 25.7809 58.1215 25.7992 58.4676Z" fill="#FD84B2"/>
<path d="M25.2526 60.9817C24.87 60.9453 24.6332 60.7631 24.6332 60.3805C24.615 59.9979 24.8518 59.7793 25.2344 59.7793C25.5806 59.7793 25.7992 59.9797 25.8174 60.3259C25.8356 60.7084 25.617 60.9089 25.2526 60.9817Z" fill="#FD84B2"/>
<path d="M25.2708 62.9312C24.87 62.9312 24.6332 62.7491 24.5968 62.3665C24.5785 61.9474 24.7972 61.6924 25.2162 61.6924C25.617 61.6924 25.8356 61.911 25.8356 62.2936C25.8538 62.6762 25.6352 62.8948 25.2708 62.9312Z" fill="#FD84B2"/>
<path d="M9.42059 56.6276C9.47525 56.2997 9.65744 56.0811 10.0036 56.0811C10.3315 56.0993 10.5501 56.3361 10.5319 56.6641C10.5137 56.9738 10.2951 57.1742 10.0036 57.1742C9.65744 57.1924 9.47525 56.9738 9.42059 56.6276Z" fill="#FD84B2"/>
<path d="M10.5684 58.4129C10.532 58.7591 10.3498 58.9959 10.0036 58.9959C9.63925 59.0141 9.4024 58.7773 9.4024 58.3947C9.42062 58.0668 9.63925 57.8481 9.9854 57.8481C10.3316 57.8481 10.5137 58.085 10.5684 58.4129Z" fill="#FD84B2"/>
<path d="M1.20402 62.2938C1.14937 62.7128 0.948963 62.9314 0.566372 62.9314C0.129124 62.9132 -0.0712805 62.6581 -0.0530619 62.2573C-0.0166246 61.8747 0.220218 61.6743 0.602809 61.6925C1.00362 61.7108 1.16759 61.9658 1.20402 62.2938Z" fill="#FD84B2"/>
<path d="M0.6028 60.9817C0.22021 60.9453 -0.0166325 60.7631 -0.0348511 60.3805C-0.0348511 59.9979 0.201991 59.7793 0.584582 59.7793C0.930735 59.7793 1.14936 59.9797 1.16758 60.3259C1.1858 60.7084 0.967173 60.9089 0.6028 60.9817Z" fill="#FD84B2"/>
<path d="M22.866 56.6092C22.9388 56.2813 23.1392 56.0444 23.4672 56.0808C23.7951 56.1173 24.0137 56.3541 23.9773 56.7003C23.9409 56.9918 23.7222 57.1922 23.4125 57.174C23.0846 57.174 22.9024 56.9371 22.866 56.6092Z" fill="#FD84B2"/>
<path d="M23.4672 59.0141C23.1028 58.9595 22.8659 58.7955 22.8477 58.4494C22.8477 58.0668 23.0846 57.8299 23.4672 57.8481C23.7951 57.8664 24.0137 58.1032 23.9955 58.4311C23.9955 58.7773 23.7586 58.9595 23.4672 59.0141Z" fill="#FD84B2"/>
<path d="M22.8113 60.4534C22.8477 60.0161 23.0299 59.7793 23.4125 59.7793C23.7951 59.7611 24.0319 59.9979 24.0319 60.3805C24.0319 60.7267 23.8133 60.9271 23.4672 60.9635C23.0846 60.9999 22.9024 60.7449 22.8113 60.4534Z" fill="#FD84B2"/>
<path d="M23.4489 62.9313C23.0299 62.8949 22.8113 62.6945 22.8113 62.3119C22.8113 61.8929 23.0663 61.6742 23.4854 61.6925C23.868 61.7107 24.0684 61.9657 24.0501 62.3483C24.0319 62.7309 23.7769 62.9131 23.4489 62.9313Z" fill="#FD84B2"/>
<path d="M10.0218 60.9821C9.58457 60.9274 9.36595 60.727 9.38417 60.3262C9.40239 59.9436 9.65745 59.7432 10.04 59.7796C10.368 59.7978 10.5684 60.0165 10.5866 60.3626C10.5866 60.7634 10.3133 60.9274 10.0218 60.9821Z" fill="#FD84B2"/>
<path d="M9.34772 62.2936C9.38415 61.911 9.58456 61.6924 9.98537 61.6924C10.4044 61.6924 10.623 61.9474 10.6048 62.3665C10.5684 62.7491 10.3315 62.9495 9.94893 62.9312C9.56634 62.913 9.38415 62.6762 9.34772 62.2936Z" fill="#FD84B2"/>
<path d="M17.6372 62.9312C17.2546 62.9312 16.9996 62.7491 16.9813 62.3483C16.9631 61.9474 17.1817 61.6924 17.619 61.6924C18.0016 61.6924 18.2202 61.911 18.2202 62.2936C18.2202 62.6944 18.0016 62.8948 17.6372 62.9312Z" fill="#FD84B2"/>
<path d="M2.49752 62.9313C2.11492 62.8949 1.8963 62.6945 1.8963 62.3119C1.8963 61.8929 2.15136 61.6742 2.57039 61.6925C2.95298 61.7107 3.15339 61.9657 3.13517 62.3483C3.11695 62.7309 2.88011 62.9131 2.49752 62.9313Z" fill="#FD84B2"/>
<path d="M3.11698 60.3441C3.09876 60.7267 2.89836 60.9635 2.51576 60.9635C2.13317 60.9635 1.91455 60.7449 1.91455 60.3623C1.91455 60.0162 2.11496 59.7975 2.46111 59.7793C2.86192 59.7429 3.06232 59.9615 3.11698 60.3441Z" fill="#FD84B2"/>
<path d="M1.93274 58.4494C1.95096 58.1032 2.13314 57.8664 2.4793 57.8481C2.84367 57.8299 3.08051 58.0668 3.08051 58.4494C3.08051 58.7773 2.86189 58.9959 2.51573 58.9959C2.16958 58.9959 1.9874 58.7773 1.93274 58.4494Z" fill="#FD84B2"/>
<path d="M2.53397 57.1926C2.1696 57.1379 1.95098 56.9375 1.9692 56.6096C1.98741 56.2634 2.22426 56.063 2.55219 56.0812C2.86191 56.1177 3.06231 56.3181 3.06231 56.6278C3.06231 56.9739 2.82547 57.1379 2.53397 57.1926Z" fill="#FD84B2"/>
<path d="M18.202 60.3441C18.1838 60.7267 18.0016 60.9635 17.6008 60.9635C17.2182 60.9635 16.9996 60.7449 16.9996 60.3623C16.9996 60.0162 17.2182 59.7975 17.5643 59.7793C17.9469 59.7429 18.1473 59.9615 18.202 60.3441Z" fill="#FD84B2"/>
<path d="M4.92063 62.2754C4.92063 62.658 4.73844 62.913 4.35585 62.9312C3.93682 62.9495 3.68176 62.7308 3.68176 62.2936C3.68176 61.911 3.90039 61.6924 4.3012 61.6924C4.68379 61.6924 4.88419 61.911 4.92063 62.2754Z" fill="#FD84B2"/>
<path d="M18.1838 58.4494C18.1291 58.7773 17.9469 58.9959 17.6008 58.9959C17.2546 58.9959 17.036 58.7773 17.036 58.4311C17.0178 58.0668 17.2729 57.8299 17.6372 57.8481C17.9834 57.8664 18.1656 58.1032 18.1838 58.4494Z" fill="#FD84B2"/>
<path d="M21.4995 57.1924C21.1716 57.156 20.953 56.9738 20.9348 56.6277C20.9348 56.3362 21.1352 56.1175 21.4267 56.0811C21.7728 56.0447 22.0097 56.2633 22.0279 56.5912C22.0643 56.9374 21.8275 57.1196 21.4995 57.1924Z" fill="#FD84B2"/>
<path d="M22.0826 58.4312C22.0097 58.7956 21.8093 59.0142 21.4631 58.996C21.0988 58.9777 20.8619 58.7409 20.9166 58.3583C20.953 58.0304 21.1899 57.8118 21.536 57.8482C21.8822 57.8846 22.0461 58.1215 22.0826 58.4312Z" fill="#FD84B2"/>
<path d="M21.4631 60.9821C21.0987 60.9274 20.8619 60.727 20.8983 60.3262C20.9166 59.9436 21.1534 59.7432 21.536 59.7796C21.8821 59.7978 22.0826 60.0165 22.0826 60.3626C22.0826 60.7634 21.8457 60.9456 21.4631 60.9821Z" fill="#FD84B2"/>
<path d="M20.8619 62.403C20.8619 61.9657 21.0441 61.7107 21.4267 61.6925C21.8457 61.6742 22.1008 61.8929 22.1008 62.3119C22.1008 62.6945 21.8822 62.9131 21.4996 62.9313C21.117 62.9495 20.9166 62.7127 20.8619 62.403Z" fill="#FD84B2"/>
<path d="M4.37404 60.9818C3.93679 60.9454 3.69995 60.745 3.69995 60.3624C3.71817 59.9798 3.93679 59.7612 4.31938 59.7794C4.66554 59.7794 4.88416 59.998 4.90238 60.3442C4.9206 60.7267 4.66554 60.9089 4.37404 60.9818Z" fill="#FD84B2"/>
<path d="M4.31938 59.0141C3.95501 58.9595 3.73639 58.7773 3.73639 58.4311C3.73639 58.085 3.95501 57.8664 4.28295 57.8481C4.66554 57.8481 4.88416 58.085 4.88416 58.4676C4.86594 58.8137 4.61088 58.9595 4.31938 59.0141Z" fill="#FD84B2"/>
<path d="M4.3012 57.1924C3.99148 57.156 3.75464 56.9738 3.75464 56.6276C3.75464 56.2997 3.99148 56.0811 4.31942 56.0811C4.62913 56.0993 4.82954 56.2997 4.84776 56.6094C4.86597 56.9373 4.64735 57.1377 4.3012 57.1924Z" fill="#FD84B2"/>
<path d="M17.6008 57.1926C17.2546 57.1379 17.036 56.9375 17.0542 56.5913C17.0724 56.2634 17.3093 56.063 17.6554 56.0812C17.9469 56.1177 18.1473 56.3181 18.1473 56.6278C18.1473 56.9739 17.9105 57.1561 17.6008 57.1926Z" fill="#FD84B2"/>
<path d="M6.87003 62.2754C6.85181 62.658 6.68784 62.913 6.28703 62.9312C5.86801 62.9495 5.63116 62.7308 5.63116 62.2936C5.63116 61.911 5.84979 61.6924 6.23238 61.6924C6.61497 61.6924 6.83359 61.911 6.87003 62.2754Z" fill="#FD84B2"/>
<path d="M6.21415 60.9821C5.84978 60.9274 5.63115 60.7088 5.64937 60.3262C5.68581 59.9436 5.92265 59.7432 6.30524 59.7796C6.6514 59.7978 6.8518 60.0165 6.83358 60.3626C6.83358 60.7634 6.59674 60.9456 6.21415 60.9821Z" fill="#FD84B2"/>
<path d="M6.2506 59.0141C5.92266 58.9777 5.68582 58.7955 5.6676 58.4494C5.6676 58.085 5.90445 57.8481 6.26882 57.8481C6.61497 57.8664 6.8336 58.085 6.81538 58.4311C6.81538 58.7773 6.59675 58.9595 6.2506 59.0141Z" fill="#FD84B2"/>
<path d="M6.79715 56.6277C6.76071 56.9374 6.57853 57.1743 6.25059 57.1743C5.94087 57.1925 5.74047 56.9921 5.70403 56.6824C5.66759 56.3544 5.88622 56.1176 6.21415 56.0811C6.54209 56.0629 6.74249 56.2815 6.79715 56.6277Z" fill="#FD84B2"/>
<path d="M20.0967 56.6092C20.0603 56.9371 19.8963 57.174 19.5502 57.174C19.2587 57.1922 19.04 56.9918 19.0036 56.7003C18.949 56.3541 19.1676 56.1173 19.4955 56.0808C19.8417 56.0444 20.0239 56.2813 20.0967 56.6092Z" fill="#FD84B2"/>
<path d="M18.949 58.4677C18.9854 58.1215 19.1676 57.8847 19.4955 57.8482C19.8781 57.83 20.115 58.0486 20.115 58.4312C20.115 58.7774 19.8963 58.996 19.5502 58.996C19.204 59.0142 19.0218 58.7774 18.949 58.4677Z" fill="#FD84B2"/>
<path d="M18.9307 60.3623C18.9854 59.9979 19.1858 59.7611 19.5684 59.7793C19.951 59.7975 20.1514 60.0161 20.1332 60.3987C20.1149 60.7449 19.9145 60.9635 19.5502 60.9635C19.1676 60.9635 18.9854 60.7449 18.9307 60.3623Z" fill="#FD84B2"/>
<path d="M20.1696 62.3118C20.1514 62.6944 19.951 62.913 19.5684 62.9312C19.1494 62.9312 18.9125 62.6944 18.9307 62.2754C18.9489 61.8928 19.1676 61.6924 19.5502 61.6924C19.951 61.6924 20.1332 61.9292 20.1696 62.3118Z" fill="#FD84B2"/>
<path d="M7.56232 62.2936C7.59875 61.911 7.79916 61.6924 8.18175 61.6924C8.619 61.6924 8.8194 61.9474 8.80118 62.3665C8.78296 62.7491 8.5279 62.9495 8.16353 62.9312C7.76272 62.913 7.58054 62.6762 7.56232 62.2936Z" fill="#FD84B2"/>
<path d="M8.80121 60.4171C8.72834 60.7815 8.50971 61.0001 8.12712 60.9637C7.76275 60.9272 7.56234 60.6722 7.59878 60.2896C7.63522 59.9616 7.85384 59.7612 8.2 59.7795C8.60081 59.7795 8.78299 60.0345 8.80121 60.4171Z" fill="#FD84B2"/>
<path d="M7.59875 58.4494C7.63519 58.1032 7.81738 57.8664 8.14531 57.8481C8.5279 57.8299 8.76475 58.0668 8.76475 58.4494C8.76475 58.7773 8.5279 58.9959 8.18175 58.9959C7.85382 58.9959 7.65341 58.7773 7.59875 58.4494Z" fill="#FD84B2"/>
<path d="M8.74651 56.6094C8.71007 56.9374 8.5461 57.156 8.19995 57.1742C7.90845 57.1924 7.68983 56.992 7.65339 56.7005C7.59873 56.3544 7.81736 56.1175 8.14529 56.0811C8.47323 56.0447 8.67363 56.2633 8.74651 56.6094Z" fill="#FD84B2"/>
<path d="M7.72632 50.834C7.74454 50.5608 7.89029 50.3604 8.18178 50.3604C8.47328 50.3604 8.63725 50.5243 8.63725 50.8158C8.63725 51.0709 8.4915 51.2348 8.23644 51.2531C7.94494 51.2713 7.78097 51.1255 7.72632 50.834Z" fill="#FD84B2"/>
<path d="M34.3073 52.7107C34.3437 52.4192 34.5077 52.2734 34.7992 52.2734C35.1271 52.2917 35.2728 52.4921 35.2546 52.82C35.2182 53.1115 35.0178 53.239 34.7263 53.2208C34.4348 53.1844 34.3073 53.0022 34.3073 52.7107Z" fill="#FD84B2"/>
<path d="M34.7991 55.2067C34.453 55.1702 34.2708 54.988 34.289 54.6601C34.3072 54.3322 34.5076 54.1682 34.8356 54.1864C35.1089 54.2046 35.2911 54.4051 35.2911 54.6783C35.2911 55.0063 35.0724 55.1702 34.7991 55.2067Z" fill="#FD84B2"/>
<path d="M15.8336 55.2067C15.4874 55.1702 15.287 54.988 15.3052 54.6601C15.3234 54.3322 15.5421 54.1682 15.8518 54.1864C16.1433 54.2046 16.3072 54.3868 16.3072 54.6783C16.3072 55.0063 16.1068 55.1702 15.8336 55.2067Z" fill="#FD84B2"/>
<path d="M15.8154 53.2206C15.5056 53.2024 15.3417 53.0566 15.3417 52.7651C15.3417 52.4372 15.5239 52.255 15.8518 52.2732C16.1433 52.2914 16.289 52.4736 16.2708 52.7651C16.2708 53.0748 16.0886 53.2024 15.8154 53.2206Z" fill="#FD84B2"/>
<path d="M15.7971 50.3423C16.125 50.3969 16.289 50.5791 16.2526 50.8524C16.2161 51.1439 16.0157 51.2897 15.7425 51.2532C15.4874 51.2168 15.3416 51.0528 15.3599 50.7978C15.3781 50.488 15.5603 50.3787 15.7971 50.3423Z" fill="#FD84B2"/>
<path d="M15.7971 49.4493C15.5603 49.3765 15.3781 49.2489 15.3963 48.9939C15.4146 48.757 15.5785 48.5748 15.8336 48.5931C16.0704 48.6113 16.2344 48.7752 16.2162 49.0303C16.2162 49.2854 16.034 49.4129 15.7971 49.4493Z" fill="#FD84B2"/>
<path d="M13.8842 49.4493C13.6291 49.4129 13.4652 49.2854 13.4469 49.0303C13.4287 48.7752 13.6109 48.6113 13.8477 48.5931C14.1028 48.5748 14.2668 48.757 14.285 48.9939C14.3032 49.2489 14.121 49.3765 13.8842 49.4493Z" fill="#FD84B2"/>
<path d="M13.8842 51.2531C13.5927 51.2349 13.4287 51.0892 13.4287 50.7977C13.4105 50.5426 13.5744 50.3786 13.8113 50.3604C14.1028 50.3422 14.285 50.4879 14.3032 50.7794C14.3396 51.0709 14.1574 51.2167 13.8842 51.2531Z" fill="#FD84B2"/>
<path d="M13.866 53.2207C13.5562 53.2025 13.3923 53.0567 13.3923 52.747C13.3923 52.4191 13.5927 52.2551 13.9206 52.2733C14.2121 52.3098 14.3396 52.492 14.3396 52.7835C14.3214 53.075 14.1392 53.2207 13.866 53.2207Z" fill="#FD84B2"/>
<path d="M13.9024 55.2068C13.5745 55.1885 13.3741 55.0246 13.3558 54.6966C13.3558 54.3869 13.5562 54.1865 13.866 54.1865C14.1575 54.1865 14.3396 54.3505 14.3761 54.642C14.3943 54.9699 14.2121 55.1521 13.9024 55.2068Z" fill="#FD84B2"/>
<path d="M34.3255 50.7979C34.3619 50.5246 34.5077 50.3424 34.7992 50.3606C35.0907 50.3788 35.2547 50.561 35.2182 50.8525C35.2182 51.0894 35.0542 51.2533 34.7992 51.2533C34.5077 51.2533 34.3619 51.0894 34.3255 50.7979Z" fill="#FD84B2"/>
<path d="M35.2182 48.9939C35.1818 49.2489 35.0542 49.4129 34.7992 49.4311C34.5441 49.4493 34.3801 49.2671 34.3619 49.0303C34.3437 48.7752 34.5259 48.6113 34.7627 48.5931C35.0178 48.5748 35.1453 48.757 35.2182 48.9939Z" fill="#FD84B2"/>
<path d="M11.9166 49.4493C11.6615 49.3765 11.4976 49.2489 11.5158 48.9939C11.5158 48.757 11.698 48.5748 11.9348 48.5931C12.1899 48.6113 12.3538 48.7752 12.3356 49.0303C12.3356 49.2854 12.1534 49.4129 11.9166 49.4493Z" fill="#FD84B2"/>
<path d="M11.9166 50.3423C12.2445 50.3969 12.4085 50.5791 12.372 50.8524C12.3356 51.1439 12.1352 51.2897 11.8619 51.2532C11.6068 51.2168 11.4611 51.0528 11.4793 50.7978C11.4975 50.488 11.6797 50.3787 11.9166 50.3423Z" fill="#FD84B2"/>
<path d="M11.4429 52.7653C11.4611 52.4738 11.5886 52.2917 11.8801 52.2734C12.2081 52.2734 12.3902 52.4374 12.3902 52.7653C12.3902 53.0568 12.2081 53.2208 11.9166 53.2208C11.6251 53.2208 11.4793 53.0568 11.4429 52.7653Z" fill="#FD84B2"/>
<path d="M11.9348 55.2067C11.6251 55.1702 11.4247 55.0063 11.4247 54.6966C11.4247 54.4051 11.5887 54.2046 11.8619 54.1864C12.1899 54.1682 12.4085 54.3322 12.4267 54.6601C12.4449 54.9698 12.2627 55.152 11.9348 55.2067Z" fill="#FD84B2"/>
<path d="M32.8498 49.4493C32.5765 49.3765 32.4125 49.2489 32.4308 48.9939C32.4308 48.757 32.6129 48.5748 32.8498 48.5931C33.1048 48.6113 33.2688 48.7752 33.2506 49.0303C33.2506 49.2854 33.0502 49.3947 32.8498 49.4493Z" fill="#FD84B2"/>
<path d="M32.8133 51.2532C32.5401 51.2168 32.3761 51.0528 32.3943 50.7613C32.4308 50.488 32.6129 50.3241 32.9044 50.3605C33.1413 50.3969 33.287 50.5609 33.287 50.816C33.2688 51.1075 33.1048 51.235 32.8133 51.2532Z" fill="#FD84B2"/>
<path d="M17.0906 54.6782C17.1271 54.3503 17.3275 54.1681 17.6372 54.1863C17.9651 54.2227 18.1291 54.4414 18.0927 54.7511C18.0744 55.0244 17.8923 55.2065 17.6008 55.1883C17.2728 55.1883 17.1089 54.9879 17.0906 54.6782Z" fill="#FD84B2"/>
<path d="M18.0744 52.7107C18.0744 53.0204 17.9287 53.2026 17.6372 53.2208C17.3093 53.239 17.1271 53.0568 17.1271 52.7289C17.1453 52.4374 17.3093 52.2734 17.6008 52.2734C17.8923 52.2734 18.038 52.4374 18.0744 52.7107Z" fill="#FD84B2"/>
<path d="M17.619 51.2532C17.3457 51.235 17.1635 51.1074 17.1635 50.8159C17.1453 50.5609 17.291 50.3969 17.5461 50.3605C17.8194 50.324 18.0198 50.4698 18.038 50.7613C18.0744 51.0528 17.9105 51.2168 17.619 51.2532Z" fill="#FD84B2"/>
<path d="M10.4044 48.9939C10.3862 49.2489 10.2405 49.4129 10.0036 49.4311C9.74857 49.4493 9.5846 49.2671 9.56638 49.0303C9.54816 48.7752 9.71213 48.6113 9.96719 48.5931C10.2223 48.5748 10.3498 48.757 10.4044 48.9939Z" fill="#FD84B2"/>
<path d="M10.0036 51.2532C9.71209 51.235 9.54813 51.1074 9.52991 50.8159C9.52991 50.5609 9.67566 50.3969 9.93072 50.3605C10.204 50.324 10.4044 50.4698 10.4226 50.7613C10.4591 51.0528 10.2769 51.2168 10.0036 51.2532Z" fill="#FD84B2"/>
<path d="M10.4591 52.7472C10.4408 53.0569 10.2769 53.2209 9.98537 53.2209C9.65743 53.2209 9.49347 53.0205 9.51168 52.6925C9.5299 52.401 9.73031 52.2553 10.0218 52.2735C10.3133 52.2917 10.4408 52.4739 10.4591 52.7472Z" fill="#FD84B2"/>
<path d="M10.4955 54.6966C10.4591 55.0064 10.2951 55.2068 9.96721 55.1885C9.63928 55.1885 9.45709 54.9699 9.47531 54.6602C9.49353 54.3687 9.67571 54.2047 9.96721 54.1865C10.2769 54.1865 10.4591 54.3687 10.4955 54.6966Z" fill="#FD84B2"/>
<path d="M36.2931 49.0667C36.3295 48.7752 36.4571 48.6113 36.7121 48.5931C36.949 48.5748 37.1311 48.757 37.1494 48.9939C37.1494 49.2489 36.9854 49.4129 36.7486 49.4311C36.4753 49.4493 36.366 49.2489 36.2931 49.0667Z" fill="#FD84B2"/>
<path d="M17.1635 49.0303C17.2 48.7752 17.3457 48.6113 17.5825 48.5931C17.8376 48.5748 18.0016 48.757 18.0198 48.9939C18.038 49.2489 17.8558 49.4129 17.619 49.4311C17.3639 49.4493 17.2364 49.2671 17.1635 49.0303Z" fill="#FD84B2"/>
<path d="M33.3052 52.7471C33.3052 53.0386 33.1412 53.2208 32.8497 53.2208C32.5218 53.2208 32.3578 53.0386 32.3761 52.7107C32.3943 52.4192 32.5765 52.2734 32.868 52.2734C33.1595 52.2917 33.3052 52.4556 33.3052 52.7471Z" fill="#FD84B2"/>
<path d="M36.785 51.2713C36.457 51.2349 36.2748 51.0892 36.2748 50.7977C36.2748 50.5426 36.4206 50.3786 36.6757 50.3604C36.9671 50.3422 37.1493 50.4879 37.1676 50.7794C37.204 51.0709 37.0036 51.1985 36.785 51.2713Z" fill="#FD84B2"/>
<path d="M20.0603 54.6966C20.0239 55.0064 19.8599 55.2068 19.532 55.1885C19.204 55.1885 19.0218 54.9699 19.0401 54.6602C19.0583 54.3687 19.2405 54.2047 19.5137 54.1865C19.8417 54.1865 20.0239 54.3687 20.0603 54.6966Z" fill="#FD84B2"/>
<path d="M19.5319 53.2207C19.2162 53.1843 19.0643 53.0203 19.0765 52.7288C19.0947 52.4009 19.2951 52.2552 19.6048 52.2916C19.9145 52.3098 20.0421 52.5102 20.0056 52.8017C19.9874 53.0932 19.787 53.2207 19.5319 53.2207Z" fill="#FD84B2"/>
<path d="M19.9874 50.7795C19.9874 51.0528 19.8417 51.235 19.5502 51.2532C19.2769 51.2532 19.0947 51.0892 19.0947 50.7977C19.0947 50.5427 19.2405 50.3787 19.4955 50.3605C19.787 50.3241 19.951 50.488 19.9874 50.7795Z" fill="#FD84B2"/>
<path d="M19.9692 48.9939C19.9328 49.2489 19.8052 49.4129 19.5684 49.4311C19.3133 49.4493 19.1494 49.2671 19.1311 49.0303C19.1129 48.7752 19.2769 48.6113 19.5319 48.5931C19.787 48.5748 19.9145 48.757 19.9692 48.9939Z" fill="#FD84B2"/>
<path d="M7.7627 49.0303C7.79913 48.7752 7.92666 48.6113 8.1635 48.5931C8.41857 48.5748 8.58253 48.757 8.60075 48.9939C8.61897 49.2489 8.455 49.4129 8.19994 49.4311C7.94488 49.4493 7.81735 49.2671 7.7627 49.0303Z" fill="#FD84B2"/>
<path d="M32.3397 54.6966C32.3579 54.3869 32.5036 54.1865 32.8316 54.1865C33.1595 54.1865 33.3417 54.3869 33.3417 54.7149C33.3417 54.9881 33.1595 55.1703 32.8862 55.1885C32.5583 55.2068 32.3761 55.0428 32.3397 54.6966Z" fill="#FD84B2"/>
<path d="M7.70807 52.7107C7.74451 52.4192 7.90847 52.2734 8.19997 52.2734C8.54613 52.2917 8.69187 52.4921 8.65544 52.82C8.619 53.1115 8.4186 53.239 8.14532 53.2208C7.8356 53.1844 7.70807 53.0022 7.70807 52.7107Z" fill="#FD84B2"/>
<path d="M8.21821 55.2068C7.90849 55.1885 7.68987 55.0246 7.68987 54.6966C7.67165 54.3869 7.87205 54.1865 8.19999 54.1865C8.47327 54.1865 8.67367 54.3505 8.69189 54.642C8.71011 54.9699 8.54614 55.1521 8.21821 55.2068Z" fill="#FD84B2"/>
<path d="M36.2567 52.8018C36.2567 52.4738 36.3842 52.2917 36.6939 52.2734C37.0218 52.2734 37.204 52.4374 37.1858 52.7653C37.1858 53.0568 37.0218 53.2208 36.7303 53.2208C36.4206 53.2208 36.2749 53.0568 36.2567 52.8018Z" fill="#FD84B2"/>
<path d="M40.9752 54.6602C40.9388 55.0246 40.7566 55.2068 40.4287 55.1885C40.1007 55.1703 39.9368 54.9517 39.955 54.642C39.9732 54.3505 40.1736 54.1865 40.4469 54.1865C40.7748 54.1865 40.9388 54.3869 40.9752 54.6602Z" fill="#FD84B2"/>
<path d="M40.4469 53.2209C40.1372 53.2026 39.9915 53.0387 39.9915 52.7472C39.9915 52.401 40.1919 52.2553 40.5198 52.2735C40.8113 52.3099 40.9388 52.5103 40.9206 52.7836C40.9024 53.0933 40.7202 53.2209 40.4469 53.2209Z" fill="#FD84B2"/>
<path d="M40.9206 50.834C40.866 51.1073 40.702 51.2713 40.4287 51.2531C40.1372 51.2166 39.9915 51.0344 40.0097 50.7429C40.0461 50.5061 40.2101 50.3604 40.4652 50.3604C40.7567 50.3604 40.9024 50.5425 40.9206 50.834Z" fill="#FD84B2"/>
<path d="M40.5016 49.4493C40.2283 49.4129 40.0643 49.2854 40.0461 49.0303C40.0279 48.7752 40.1919 48.6113 40.4469 48.5931C40.6838 48.5748 40.866 48.757 40.8842 48.9939C40.9024 49.2489 40.702 49.3582 40.5016 49.4493Z" fill="#FD84B2"/>
<path d="M6.26883 49.4493C6.01376 49.4129 5.8498 49.2854 5.83158 49.0303C5.81336 48.7752 5.97733 48.6113 6.23239 48.5931C6.48745 48.5748 6.65142 48.757 6.66963 48.9939C6.68785 49.2489 6.50567 49.3765 6.26883 49.4493Z" fill="#FD84B2"/>
<path d="M6.25057 51.253C5.95907 51.2165 5.7951 51.0708 5.7951 50.7793C5.81332 50.506 5.99551 50.342 6.28701 50.3603C6.54207 50.3785 6.68782 50.5424 6.68782 50.7975C6.70604 51.089 6.52385 51.2348 6.25057 51.253Z" fill="#FD84B2"/>
<path d="M6.23238 53.2209C5.92267 53.1844 5.77692 53.0387 5.77692 52.7472C5.77692 52.401 5.99554 52.2553 6.30526 52.2735C6.59675 52.3099 6.7425 52.5103 6.70607 52.7836C6.68785 53.0933 6.50566 53.2209 6.23238 53.2209Z" fill="#FD84B2"/>
<path d="M6.76072 54.6601C6.7425 54.9698 6.57853 55.1885 6.2506 55.1885C5.94088 55.2067 5.74048 55.0063 5.74048 54.6783C5.74048 54.4051 5.90445 54.2046 6.19594 54.1864C6.52388 54.1682 6.70606 54.3322 6.76072 54.6601Z" fill="#FD84B2"/>
<path d="M21.5178 55.2068C21.1898 55.1885 20.9894 55.0246 20.9894 54.6966C20.9712 54.3869 21.1716 54.1865 21.4995 54.1865C21.7728 54.1865 21.955 54.3505 21.9915 54.642C22.0097 54.9699 21.8275 55.1521 21.5178 55.2068Z" fill="#FD84B2"/>
<path d="M30.9186 49.4493C30.6635 49.4129 30.4996 49.2854 30.4814 49.0303C30.4631 48.7752 30.6453 48.6113 30.8822 48.5931C31.1372 48.5748 31.3012 48.757 31.3194 48.9939C31.3376 49.2489 31.1554 49.3765 30.9186 49.4493Z" fill="#FD84B2"/>
<path d="M21.4813 53.2207C21.1656 53.1843 21.0137 53.0203 21.0259 52.7288C21.0259 52.4009 21.2445 52.2552 21.5542 52.2916C21.8457 52.3098 21.9732 52.5102 21.955 52.8017C21.9368 53.0932 21.7364 53.2207 21.4813 53.2207Z" fill="#FD84B2"/>
<path d="M21.9368 50.7614C21.9186 51.0712 21.7728 51.2533 21.4813 51.2533C21.2263 51.2533 21.0623 51.1076 21.0441 50.8525C21.0077 50.5793 21.1716 50.3788 21.4631 50.3606C21.7546 50.3424 21.8821 50.5246 21.9368 50.7614Z" fill="#FD84B2"/>
<path d="M21.4996 49.4493C21.2627 49.4129 21.0805 49.2854 21.0623 49.0303C21.0623 48.7752 21.2263 48.6113 21.4631 48.5931C21.7182 48.5748 21.8822 48.757 21.9004 48.9939C21.9186 49.2489 21.7364 49.3765 21.4996 49.4493Z" fill="#FD84B2"/>
<path d="M30.8822 51.2532C30.5907 51.2168 30.4267 51.0528 30.4449 50.7613C30.4814 50.488 30.6635 50.3241 30.955 50.3605C31.1919 50.3969 31.3558 50.5609 31.3376 50.816C31.3376 51.1075 31.1554 51.235 30.8822 51.2532Z" fill="#FD84B2"/>
<path d="M4.73845 48.9939C4.70201 49.2489 4.57448 49.4129 4.31942 49.4311C4.06436 49.4493 3.9004 49.2671 3.88218 49.0303C3.86396 48.7752 4.04614 48.6113 4.28299 48.5931C4.53805 48.5748 4.66558 48.757 4.73845 48.9939Z" fill="#FD84B2"/>
<path d="M3.8457 50.8161C3.88214 50.5246 4.02789 50.3424 4.31939 50.3606C4.61089 50.3788 4.75663 50.5428 4.75663 50.8343C4.73842 51.0894 4.57445 51.2351 4.31939 51.2533C4.02789 51.2533 3.88214 51.0894 3.8457 50.8161Z" fill="#FD84B2"/>
<path d="M4.77489 52.7833C4.73845 53.0748 4.57448 53.2206 4.28298 53.2206C3.95505 53.2023 3.8093 53.0019 3.84574 52.674C3.86396 52.3825 4.08258 52.255 4.35586 52.2732C4.64736 52.3096 4.77489 52.4918 4.77489 52.7833Z" fill="#FD84B2"/>
<path d="M3.79108 54.6966C3.82751 54.3687 3.99148 54.1865 4.31942 54.1865C4.64735 54.2047 4.81132 54.4051 4.81132 54.7149C4.7931 55.0064 4.61091 55.1885 4.31942 55.1885C4.0097 55.2068 3.82751 55.0246 3.79108 54.6966Z" fill="#FD84B2"/>
<path d="M36.2202 54.7149C36.2202 54.4051 36.3842 54.2047 36.7121 54.1865C37.0401 54.1865 37.2222 54.3687 37.2222 54.6966C37.2222 54.9881 37.0583 55.1703 36.785 55.1885C36.4571 55.225 36.2567 55.0428 36.2202 54.7149Z" fill="#FD84B2"/>
<path d="M30.955 53.2208C30.6271 53.2208 30.4449 53.0751 30.4267 52.7836C30.4084 52.4556 30.5906 52.2734 30.9186 52.2734C31.2101 52.2917 31.3558 52.4556 31.374 52.7471C31.374 53.0386 31.2101 53.1844 30.955 53.2208Z" fill="#FD84B2"/>
<path d="M30.9186 55.2068C30.6089 55.1885 30.4085 55.0246 30.3903 54.7149C30.3903 54.3869 30.5724 54.1865 30.9004 54.1865C31.1919 54.1865 31.3741 54.3505 31.3923 54.642C31.4287 54.9517 31.2648 55.1521 30.9186 55.2068Z" fill="#FD84B2"/>
<path d="M2.93477 49.0303C2.88012 49.2671 2.75259 49.4493 2.49752 49.4311C2.24246 49.4129 2.0785 49.2489 2.09671 48.9939C2.11493 48.757 2.2789 48.5748 2.53396 48.5931C2.7708 48.6113 2.91655 48.7935 2.93477 49.0303Z" fill="#FD84B2"/>
<path d="M2.0603 50.7793C2.09674 50.506 2.26071 50.342 2.55221 50.3603C2.8437 50.3967 2.98945 50.5789 2.95301 50.8704C2.9348 51.1072 2.77083 51.253 2.51577 51.253C2.22427 51.2348 2.07852 51.0708 2.0603 50.7793Z" fill="#FD84B2"/>
<path d="M2.49752 53.2209C2.1878 53.2026 2.04205 53.0387 2.04205 52.7472C2.04205 52.401 2.24246 52.2553 2.57039 52.2735C2.86189 52.3099 2.98942 52.5103 2.9712 52.7836C2.95298 53.0933 2.7708 53.2209 2.49752 53.2209Z" fill="#FD84B2"/>
<path d="M3.02588 54.6966C2.98945 55.0064 2.82548 55.2068 2.49754 55.1885C2.16961 55.1885 1.98742 54.9699 2.00564 54.6602C2.02386 54.3687 2.20605 54.2047 2.49754 54.1865C2.80726 54.1865 2.98945 54.3687 3.02588 54.6966Z" fill="#FD84B2"/>
<path d="M42.4327 55.2067C42.0683 55.1702 41.8862 54.988 41.9044 54.6601C41.9226 54.3322 42.1412 54.1682 42.4509 54.1864C42.7424 54.2046 42.9064 54.4051 42.9064 54.6783C42.9064 55.0063 42.706 55.1702 42.4327 55.2067Z" fill="#FD84B2"/>
<path d="M42.87 52.7289C42.87 53.0204 42.7424 53.2026 42.4327 53.2208C42.1048 53.239 41.9226 53.0568 41.9408 52.7289C41.9408 52.4374 42.1048 52.2734 42.3963 52.2734C42.6878 52.2734 42.8518 52.4374 42.87 52.7289Z" fill="#FD84B2"/>
<path d="M23.449 55.2066C23.1211 55.1701 22.9207 55.0061 22.9207 54.6782C22.9389 54.3503 23.1393 54.1681 23.4672 54.1863C23.7405 54.2045 23.9227 54.3867 23.9227 54.66C23.9409 54.9879 23.7405 55.1519 23.449 55.2066Z" fill="#FD84B2"/>
<path d="M23.9044 52.7471C23.8862 53.0386 23.7405 53.2208 23.449 53.2208C23.1028 53.2208 22.9388 53.0386 22.9571 52.7107C22.9753 52.4192 23.1575 52.2734 23.449 52.2734C23.7405 52.2917 23.8862 52.4556 23.9044 52.7471Z" fill="#FD84B2"/>
<path d="M23.8862 50.7794C23.868 51.0527 23.7222 51.2349 23.449 51.2531C23.1575 51.2531 22.9935 51.0892 22.9753 50.7977C22.9753 50.5426 23.1392 50.3786 23.3761 50.3604C23.6676 50.3422 23.8316 50.4879 23.8862 50.7794Z" fill="#FD84B2"/>
<path d="M22.9935 49.0303C23.0299 48.7935 23.1574 48.6113 23.4125 48.5931C23.6676 48.5748 23.8315 48.757 23.8497 48.9939C23.868 49.2489 23.6858 49.4129 23.4489 49.4311C23.1939 49.4493 23.0663 49.2671 22.9935 49.0303Z" fill="#FD84B2"/>
<path d="M29.0968 49.4493C28.8599 49.3765 28.6777 49.2489 28.696 48.9939C28.696 48.757 28.8781 48.5748 29.115 48.5931C29.37 48.6113 29.534 48.7752 29.5158 49.0303C29.5158 49.2854 29.3336 49.4129 29.0968 49.4493Z" fill="#FD84B2"/>
<path d="M29.1332 50.3604C29.4247 50.3968 29.5886 50.579 29.5522 50.8523C29.5158 51.1438 29.3154 51.2895 29.0421 51.2531C28.787 51.2166 28.6413 51.0527 28.6595 50.7976C28.6777 50.5061 28.8599 50.3604 29.1332 50.3604Z" fill="#FD84B2"/>
<path d="M29.1149 53.2208C28.8417 53.2208 28.6595 53.0751 28.6413 52.7836C28.623 52.4556 28.787 52.2734 29.1332 52.2734C29.4247 52.2917 29.5704 52.4556 29.5704 52.7471C29.5704 53.0386 29.4064 53.2026 29.1149 53.2208Z" fill="#FD84B2"/>
<path d="M29.6068 54.6966C29.5886 55.0064 29.4064 55.2068 29.0967 55.1885C28.7688 55.1885 28.5866 54.9699 28.6048 54.6602C28.623 54.3687 28.8052 54.2047 29.0785 54.1865C29.4064 54.1865 29.5886 54.3687 29.6068 54.6966Z" fill="#FD84B2"/>
<path d="M25.2344 55.2067C24.9247 55.1702 24.7243 55.0063 24.7243 54.6966C24.7061 54.4051 24.8882 54.2046 25.1615 54.1864C25.4895 54.1682 25.7081 54.3322 25.7263 54.6601C25.7445 54.9698 25.5623 55.152 25.2344 55.2067Z" fill="#FD84B2"/>
<path d="M38.534 49.4493C38.2607 49.3765 38.0785 49.2489 38.0967 48.9939C38.1149 48.757 38.2789 48.5748 38.534 48.5931C38.7708 48.6113 38.953 48.7752 38.9348 49.0303C38.9165 49.2854 38.7344 49.3947 38.534 49.4493Z" fill="#FD84B2"/>
<path d="M24.7425 52.7107C24.7789 52.4192 24.9429 52.2734 25.2344 52.2734C25.5805 52.2917 25.7263 52.4921 25.6899 52.82C25.6534 53.1115 25.453 53.239 25.1615 53.2208C24.87 53.1844 24.7425 53.0022 24.7425 52.7107Z" fill="#FD84B2"/>
<path d="M25.2708 51.2713C24.9429 51.2349 24.7789 51.0892 24.7789 50.7977C24.7789 50.5426 24.9247 50.3786 25.1797 50.3604C25.453 50.3422 25.6352 50.4879 25.6716 50.7794C25.6899 51.0709 25.4895 51.1985 25.2708 51.2713Z" fill="#FD84B2"/>
<path d="M25.6534 49.0303C25.5805 49.2671 25.453 49.4493 25.1979 49.4311C24.9611 49.4129 24.7971 49.2489 24.7971 48.9939C24.8153 48.757 24.9793 48.5748 25.2344 48.5931C25.4894 48.6113 25.617 48.7752 25.6534 49.0303Z" fill="#FD84B2"/>
<path d="M42.8518 50.8158C42.8153 51.1073 42.6514 51.2713 42.3781 51.2531C42.0866 51.2348 41.9226 51.0344 41.9591 50.7612C41.9773 50.5061 42.1413 50.3604 42.3963 50.3604C42.6878 50.3604 42.8336 50.5425 42.8518 50.8158Z" fill="#FD84B2"/>
<path d="M42.4145 49.4493C42.1777 49.4129 41.9955 49.2854 41.9773 49.0303C41.9773 48.7752 42.1413 48.6113 42.3781 48.5931C42.6332 48.5748 42.7971 48.757 42.8154 48.9939C42.8336 49.2489 42.6514 49.3765 42.4145 49.4493Z" fill="#FD84B2"/>
<path d="M27.1838 49.4493C26.9105 49.3765 26.7283 49.2489 26.7466 48.9939C26.7648 48.757 26.9287 48.5748 27.1838 48.5931C27.4206 48.6113 27.5846 48.7752 27.5846 49.0303C27.5664 49.2854 27.3842 49.3947 27.1838 49.4493Z" fill="#FD84B2"/>
<path d="M38.5158 51.253C38.2243 51.2165 38.0603 51.0708 38.0785 50.7793C38.0967 50.506 38.2789 50.342 38.5522 50.3603C38.8073 50.3785 38.953 50.5424 38.9712 50.7975C38.9712 51.089 38.789 51.2348 38.5158 51.253Z" fill="#FD84B2"/>
<path d="M27.1655 51.253C26.8923 51.2348 26.7101 51.089 26.7101 50.7975C26.7283 50.506 26.9105 50.342 27.202 50.3603C27.4388 50.3785 27.6028 50.5242 27.6028 50.7793C27.621 51.0708 27.457 51.2165 27.1655 51.253Z" fill="#FD84B2"/>
<path d="M27.6392 52.7833C27.6028 53.0748 27.4388 53.2206 27.1473 53.2206C26.8012 53.2023 26.6554 53.0019 26.6918 52.674C26.7283 52.3825 26.9287 52.255 27.2202 52.2732C27.5117 52.3096 27.6392 52.4918 27.6392 52.7833Z" fill="#FD84B2"/>
<path d="M27.202 55.2068C26.8741 55.1885 26.6737 55.0246 26.6555 54.6966C26.6555 54.3869 26.8376 54.1865 27.1656 54.1865C27.4571 54.1865 27.6393 54.3505 27.6575 54.642C27.6939 54.9699 27.5117 55.1521 27.202 55.2068Z" fill="#FD84B2"/>
<path d="M38.5522 55.2067C38.1878 55.1702 38.0056 54.988 38.0238 54.6601C38.042 54.3322 38.2425 54.1682 38.5704 54.1864C38.8437 54.2046 39.0259 54.3868 39.0259 54.6783C39.0259 55.0063 38.8254 55.1702 38.5522 55.2067Z" fill="#FD84B2"/>
<path d="M38.0421 52.7107C38.0785 52.4192 38.2425 52.2734 38.534 52.2734C38.8619 52.2917 39.0076 52.4921 38.9894 52.82C38.953 53.1115 38.7526 53.239 38.4611 53.2208C38.1696 53.1844 38.0421 53.0022 38.0421 52.7107Z" fill="#FD84B2"/>
<path d="M2.89837 47.0627C2.88015 47.2813 2.75262 47.4271 2.534 47.4453C2.29715 47.4635 2.15141 47.3177 2.13319 47.0991C2.11497 46.8623 2.26072 46.7165 2.47934 46.6983C2.71618 46.6801 2.84371 46.8258 2.89837 47.0627Z" fill="#FD84B2"/>
<path d="M15.8153 47.4452C15.5785 47.427 15.4327 47.2995 15.4327 47.0626C15.4327 46.844 15.5785 46.6982 15.8153 46.6982C16.034 46.6982 16.1797 46.844 16.1797 47.0626C16.1797 47.2995 16.034 47.427 15.8153 47.4452Z" fill="#FD84B2"/>
<path d="M13.4833 47.0627C13.538 46.8258 13.6655 46.6801 13.8841 46.6983C14.121 46.7165 14.2667 46.8623 14.2485 47.0991C14.2303 47.3177 14.0663 47.4635 13.8477 47.4453C13.6109 47.4271 13.5016 47.2813 13.4833 47.0627Z" fill="#FD84B2"/>
<path d="M4.3012 47.4452C4.08258 47.427 3.93683 47.2995 3.93683 47.0626C3.93683 46.844 4.08258 46.6982 4.3012 46.6982C4.53804 46.6982 4.68379 46.844 4.68379 47.0626C4.68379 47.2995 4.53804 47.427 4.3012 47.4452Z" fill="#FD84B2"/>
<path d="M21.8639 47.0627C21.8457 47.2813 21.7364 47.4271 21.4995 47.4453C21.2809 47.4635 21.1352 47.3177 21.117 47.0991C21.0987 46.8623 21.2445 46.7165 21.4631 46.6983C21.6817 46.6801 21.8275 46.8258 21.8639 47.0627Z" fill="#FD84B2"/>
<path d="M31.2829 47.0627C31.2647 47.2813 31.1372 47.4271 30.9186 47.4453C30.6817 47.4635 30.536 47.3177 30.5178 47.0991C30.4995 46.8623 30.6453 46.7165 30.8821 46.6983C31.1008 46.6801 31.2283 46.8258 31.2829 47.0627Z" fill="#FD84B2"/>
<path d="M40.4834 47.4634C40.2283 47.427 40.0826 47.2995 40.0826 47.0626C40.0826 46.844 40.2283 46.6982 40.4652 46.6982C40.6838 46.6982 40.8295 46.844 40.8295 47.0626C40.8295 47.2995 40.6838 47.427 40.4834 47.4634Z" fill="#FD84B2"/>
<path d="M29.4976 47.0809C29.4429 47.3177 29.3154 47.4635 29.0785 47.4453C28.8599 47.4271 28.7142 47.2813 28.7324 47.0445C28.7506 46.8258 28.8963 46.6801 29.1332 46.6983C29.3518 46.7165 29.4793 46.8623 29.4976 47.0809Z" fill="#FD84B2"/>
<path d="M23.449 47.4453C23.2303 47.4453 23.0664 47.3177 23.0482 47.0991C23.0299 46.8623 23.1757 46.7165 23.4125 46.6983C23.6312 46.6801 23.7951 46.8258 23.7951 47.0445C23.8133 47.2813 23.6676 47.4088 23.449 47.4453Z" fill="#FD84B2"/>
<path d="M6.63317 47.0627C6.61495 47.2813 6.48742 47.4271 6.2688 47.4453C6.05018 47.4635 5.88621 47.3177 5.86799 47.0991C5.84977 46.8623 5.99552 46.7165 6.21414 46.6983C6.45098 46.6801 6.57852 46.8258 6.63317 47.0627Z" fill="#FD84B2"/>
<path d="M19.5501 47.4452C19.3133 47.427 19.1675 47.2995 19.1675 47.0626C19.1675 46.844 19.3133 46.6982 19.5501 46.6982C19.7688 46.6982 19.9145 46.844 19.9145 47.0626C19.9145 47.2995 19.7688 47.427 19.5501 47.4452Z" fill="#FD84B2"/>
<path d="M35.1635 47.0626C35.1271 47.2995 35.0177 47.4452 34.7809 47.4452C34.5623 47.4452 34.3983 47.2995 34.3983 47.0626C34.3983 46.844 34.5623 46.6982 34.7809 46.6982C35.0177 46.6982 35.1271 46.844 35.1635 47.0626Z" fill="#FD84B2"/>
<path d="M8.19998 47.4635C7.98136 47.4453 7.83561 47.3177 7.81739 47.0991C7.79917 46.8623 7.94492 46.7165 8.16354 46.6983C8.40039 46.6801 8.54614 46.8258 8.56435 47.0445C8.58257 47.2813 8.43682 47.4088 8.19998 47.4635Z" fill="#FD84B2"/>
<path d="M17.9834 47.0627C17.9287 47.3177 17.8012 47.4635 17.5826 47.4453C17.3457 47.4271 17.2 47.2813 17.2182 47.0445C17.2364 46.8258 17.4004 46.6801 17.619 46.6983C17.8559 46.7165 17.947 46.8805 17.9834 47.0627Z" fill="#FD84B2"/>
<path d="M42.3781 47.4635C42.1595 47.4088 42.0137 47.2813 42.0319 47.0445C42.0501 46.8258 42.1959 46.6801 42.4327 46.6983C42.6514 46.7165 42.7971 46.8623 42.7789 47.0991C42.7607 47.3177 42.6149 47.4453 42.3781 47.4635Z" fill="#FD84B2"/>
<path d="M9.60278 47.0626C9.621 46.844 9.74853 46.6982 9.98537 46.6982C10.204 46.6982 10.3497 46.844 10.3497 47.0626C10.3497 47.2995 10.204 47.4452 9.98537 47.4452C9.74853 47.4452 9.621 47.2995 9.60278 47.0626Z" fill="#FD84B2"/>
<path d="M37.1129 47.0809C37.0583 47.3177 36.9307 47.4635 36.6939 47.4453C36.4753 47.4271 36.3295 47.2813 36.3477 47.0445C36.3659 46.8258 36.5117 46.6801 36.7485 46.6983C36.9672 46.7165 37.0947 46.8623 37.1129 47.0809Z" fill="#FD84B2"/>
<path d="M26.783 47.0626C26.8012 46.844 26.9287 46.6982 27.1656 46.6982C27.3842 46.6982 27.5299 46.844 27.5299 47.0626C27.5299 47.2995 27.3842 47.4452 27.1656 47.4452C26.9287 47.4452 26.8012 47.2995 26.783 47.0626Z" fill="#FD84B2"/>
<path d="M32.868 47.4634C32.6129 47.427 32.4672 47.2995 32.4672 47.0626C32.4672 46.844 32.6129 46.6982 32.8315 46.6982C33.0684 46.6982 33.2141 46.844 33.2141 47.0626C33.2141 47.2995 33.0684 47.427 32.868 47.4634Z" fill="#FD84B2"/>
<path d="M25.5987 47.0627C25.5987 47.2813 25.4712 47.4271 25.2526 47.4453C25.0157 47.4635 24.87 47.3177 24.8518 47.0991C24.8335 46.8623 24.9793 46.7165 25.1979 46.6983C25.4165 46.6801 25.5623 46.8258 25.5987 47.0627Z" fill="#FD84B2"/>
<path d="M38.8984 47.0627C38.8801 47.2813 38.7708 47.4271 38.534 47.4453C38.3154 47.4635 38.1514 47.3177 38.1332 47.0991C38.115 46.8623 38.2607 46.7165 38.4976 46.6983C38.7162 46.6801 38.8619 46.8258 38.8984 47.0627Z" fill="#FD84B2"/>
<path d="M11.9166 47.4452C11.6979 47.427 11.5522 47.2995 11.5522 47.0626C11.5522 46.844 11.6979 46.6982 11.9166 46.6982C12.1534 46.6982 12.2991 46.844 12.2991 47.0626C12.2991 47.2995 12.1534 47.427 11.9166 47.4452Z" fill="#FD84B2"/>
<path d="M34.7809 45.4596C34.5805 45.4414 34.4712 45.3503 34.453 45.1499C34.453 44.8948 34.5988 44.7855 34.8174 44.8037C35.0178 44.8219 35.1271 44.9495 35.1089 45.1499C35.0907 45.3503 34.9813 45.4596 34.7809 45.4596Z" fill="#FD84B2"/>
<path d="M40.4834 45.4594C40.283 45.4594 40.1554 45.3683 40.1372 45.1679C40.119 44.9857 40.1919 44.8217 40.3923 44.8035C40.6291 44.7853 40.7749 44.8764 40.7931 45.1132C40.7931 45.3319 40.6838 45.4412 40.4834 45.4594Z" fill="#FD84B2"/>
<path d="M33.1595 45.1501C33.1412 45.3505 33.0319 45.4598 32.8315 45.4598C32.5765 45.4416 32.4854 45.2959 32.5218 45.059C32.54 44.8586 32.6858 44.7857 32.8862 44.804C33.0866 44.8222 33.1777 44.9679 33.1595 45.1501Z" fill="#FD84B2"/>
<path d="M31.2283 45.1134C31.2283 45.3138 31.119 45.4414 30.9186 45.4596C30.7364 45.4778 30.5907 45.3867 30.5724 45.1681C30.5542 44.9495 30.6635 44.8037 30.9004 44.8037C31.1008 44.8037 31.2101 44.913 31.2283 45.1134Z" fill="#FD84B2"/>
<path d="M42.0684 45.1501C42.0684 44.9497 42.1595 44.8222 42.3599 44.804C42.542 44.7857 42.706 44.8586 42.7242 45.059C42.7607 45.2959 42.6514 45.4416 42.4145 45.4598C42.2141 45.4598 42.1048 45.3505 42.0684 45.1501Z" fill="#FD84B2"/>
<path d="M29.1331 45.4594C28.8963 45.4412 28.7688 45.3319 28.787 45.1315C28.787 44.8764 28.9327 44.7853 29.1514 44.8035C29.37 44.8217 29.4429 44.9675 29.4246 45.1679C29.4064 45.3683 29.2789 45.4594 29.1331 45.4594Z" fill="#FD84B2"/>
<path d="M27.4935 45.1317C27.4753 45.3321 27.3842 45.4414 27.1838 45.4596C26.9287 45.4596 26.8194 45.3138 26.8376 45.0952C26.8559 44.8948 26.9834 44.7855 27.1838 44.8037C27.3842 44.8219 27.4935 44.9313 27.4935 45.1317Z" fill="#FD84B2"/>
<path d="M38.5522 45.4594C38.2971 45.4412 38.1878 45.3319 38.1878 45.1315C38.1878 44.8764 38.3336 44.7853 38.5704 44.8035C38.7708 44.8217 38.8619 44.9675 38.8437 45.1679C38.8255 45.3683 38.6979 45.4594 38.5522 45.4594Z" fill="#FD84B2"/>
<path d="M15.4692 45.1134C15.5056 44.8948 15.6149 44.7855 15.8153 44.8037C16.0157 44.8037 16.1433 44.9313 16.125 45.1317C16.125 45.3685 15.9793 45.4778 15.7607 45.4596C15.5421 45.4414 15.4874 45.2774 15.4692 45.1134Z" fill="#FD84B2"/>
<path d="M24.8882 45.1134C24.9065 44.913 25.0158 44.8037 25.2162 44.8037C25.4712 44.8037 25.5623 44.9677 25.5441 45.1863C25.5259 45.3867 25.3801 45.4778 25.1797 45.4596C24.9793 45.4414 24.8882 45.3138 24.8882 45.1134Z" fill="#FD84B2"/>
<path d="M23.1028 45.1501C23.1028 44.9497 23.1757 44.8222 23.3761 44.804C23.5765 44.7857 23.7222 44.8586 23.7587 45.059C23.7769 45.2959 23.6858 45.4416 23.4307 45.4598C23.2303 45.4598 23.121 45.3505 23.1028 45.1501Z" fill="#FD84B2"/>
<path d="M2.55218 45.4596C2.29712 45.4414 2.18781 45.3321 2.18781 45.1316C2.18781 44.8948 2.33355 44.7855 2.55218 44.8037C2.75258 44.8219 2.84368 44.9495 2.84368 45.1499C2.82546 45.3685 2.69793 45.4414 2.55218 45.4596Z" fill="#FD84B2"/>
<path d="M36.4024 45.1134C36.4206 44.8948 36.5482 44.7855 36.7486 44.8037C36.949 44.8037 37.0583 44.9313 37.0583 45.1317C37.0401 45.3685 36.8943 45.4778 36.6757 45.4596C36.4571 45.4414 36.4024 45.2774 36.4024 45.1134Z" fill="#FD84B2"/>
<path d="M4.3012 45.4596C4.1008 45.4414 3.99149 45.3503 3.97327 45.1499C3.97327 44.8948 4.11902 44.7855 4.33764 44.8037C4.53804 44.8219 4.64736 44.9495 4.62914 45.1499C4.61092 45.3503 4.50161 45.4596 4.3012 45.4596Z" fill="#FD84B2"/>
<path d="M21.1534 45.1134C21.1898 44.8948 21.2991 44.7855 21.4995 44.8037C21.6999 44.8037 21.8093 44.9313 21.8093 45.1317C21.8093 45.3685 21.6635 45.4778 21.4267 45.4596C21.2263 45.4414 21.1534 45.2774 21.1534 45.1134Z" fill="#FD84B2"/>
<path d="M6.21412 45.4596C6.01371 45.4232 5.9044 45.3139 5.92262 45.1135C5.92262 44.8766 6.08659 44.7673 6.30521 44.8037C6.50562 44.8402 6.59671 44.9859 6.57849 45.1681C6.54205 45.3867 6.41452 45.4596 6.21412 45.4596Z" fill="#FD84B2"/>
<path d="M7.85382 45.1134C7.89026 44.8948 7.99957 44.7855 8.19997 44.8037C8.40038 44.8037 8.50969 44.9313 8.50969 45.1317C8.50969 45.3685 8.36394 45.4778 8.1271 45.4596C7.9267 45.4414 7.85382 45.2774 7.85382 45.1134Z" fill="#FD84B2"/>
<path d="M19.5137 45.4596C19.3133 45.4232 19.204 45.3139 19.2222 45.1135C19.2222 44.8766 19.3862 44.7673 19.6048 44.8037C19.8052 44.8402 19.8963 44.9859 19.8599 45.1681C19.8417 45.3867 19.7141 45.4596 19.5137 45.4596Z" fill="#FD84B2"/>
<path d="M9.96719 45.4594C9.76678 45.4412 9.65747 45.3319 9.65747 45.1315C9.65747 44.8764 9.80322 44.7853 10.0401 44.8035C10.2405 44.8217 10.3316 44.9675 10.3133 45.1679C10.2951 45.3683 10.1676 45.4594 9.96719 45.4594Z" fill="#FD84B2"/>
<path d="M17.9288 45.1497C17.9105 45.3501 17.8012 45.4594 17.6008 45.4594C17.364 45.4594 17.2547 45.2954 17.2729 45.0768C17.2911 44.8764 17.4369 44.7853 17.6373 44.8035C17.8377 44.8218 17.9288 44.9493 17.9288 45.1497Z" fill="#FD84B2"/>
<path d="M11.9166 45.4594C11.7162 45.4412 11.5886 45.3319 11.5886 45.1315C11.6068 44.8764 11.7526 44.7853 11.9712 44.8035C12.1716 44.8217 12.2627 44.9675 12.2445 45.1679C12.2263 45.3683 12.117 45.4594 11.9166 45.4594Z" fill="#FD84B2"/>
<path d="M13.9206 45.4596C13.6656 45.4414 13.538 45.3321 13.538 45.1316C13.538 44.8948 13.6838 44.7855 13.9024 44.8037C14.121 44.8219 14.2121 44.9495 14.1939 45.1499C14.1757 45.3685 14.0481 45.4414 13.9206 45.4596Z" fill="#FD84B2"/>
</g>
</g>
</svg>
