<svg width="70" height="70" viewBox="0 0 70 70" fill="none" xmlns="http://www.w3.org/2000/svg">
<path d="M64.1667 26.25V43.75C64.1667 51.0416 62.7084 56.1458 59.4417 59.4416L40.8334 40.8333L63.3792 18.2875C63.9042 20.5916 64.1667 23.2166 64.1667 26.25Z" stroke="#1E2021" stroke-width="1.5" stroke-linecap="round" stroke-linejoin="round"/>
<path d="M63.3792 18.2876L18.2875 63.3792C9.50834 61.3667 5.83337 55.3 5.83337 43.75V26.25C5.83337 11.6667 11.6667 5.83337 26.25 5.83337H43.75C55.3 5.83337 61.3667 9.50839 63.3792 18.2876Z" stroke="#1E2021" stroke-width="2.5" stroke-linecap="round" stroke-linejoin="round"/>
<path d="M59.4417 59.4417C56.1459 62.7084 51.0417 64.1667 43.75 64.1667H26.25C23.2167 64.1667 20.5916 63.9042 18.2875 63.3792L40.8333 40.8334L59.4417 59.4417Z" stroke="#1E2021" stroke-width="2.5" stroke-linecap="round" stroke-linejoin="round"/>
<path d="M18.1999 23.275C20.1832 14.7291 33.0166 14.7291 34.9999 23.275C36.1374 28.2916 32.9874 32.55 30.2166 35.175C28.2041 37.1 25.025 37.1 22.9833 35.175C20.2125 32.55 17.0332 28.2916 18.1999 23.275Z" stroke="#1E2021" stroke-width="2.5"/>
<path d="M26.5259 25.3751H26.5521" stroke="#1E2021" stroke-width="2" stroke-linecap="round" stroke-linejoin="round"/>
</svg>
