<svg width="70" height="70" viewBox="0 0 70 70" fill="none" xmlns="http://www.w3.org/2000/svg">
<path d="M8.77917 32.725V45.8208C8.77917 58.9166 14.0292 64.1666 27.125 64.1666H42.8458C55.9417 64.1666 61.1917 58.9166 61.1917 45.8208V32.725" stroke="#1E2021" stroke-width="2.5" stroke-linecap="round" stroke-linejoin="round"/>
<path d="M35 35C40.3375 35 44.275 30.6542 43.75 25.3167L41.825 5.83337H28.2041L26.25 25.3167C25.725 30.6542 29.6625 35 35 35Z" stroke="#1E2021" stroke-width="2.5" stroke-linecap="round" stroke-linejoin="round"/>
<path d="M53.4042 35C59.2959 35 63.6125 30.2167 63.0292 24.3542L62.2125 16.3334C61.1625 8.75004 58.2459 5.83337 50.6042 5.83337H41.7084L43.75 26.2792C44.2459 31.0917 48.5917 35 53.4042 35Z" stroke="#1E2021" stroke-width="2.5" stroke-linecap="round" stroke-linejoin="round"/>
<path d="M16.45 35C21.2625 35 25.6084 31.0917 26.075 26.2792L26.7167 19.8334L28.1167 5.83337H19.2209C11.5792 5.83337 8.66252 8.75004 7.61252 16.3334L6.82502 24.3542C6.24169 30.2167 10.5584 35 16.45 35Z" stroke="#1E2021" stroke-width="2.5" stroke-linecap="round" stroke-linejoin="round"/>
<path d="M35 49.5834C30.1292 49.5834 27.7084 52.0042 27.7084 56.875V64.1667H42.2917V56.875C42.2917 52.0042 39.8709 49.5834 35 49.5834Z" stroke="#1E2021" stroke-width="2.5" stroke-linecap="round" stroke-linejoin="round"/>
</svg>
