<svg width="12" height="13" viewBox="0 0 12 13" fill="none" xmlns="http://www.w3.org/2000/svg">
<path d="M8.52001 0.25H3.48001C0.96001 0.25 0.333344 0.88125 0.333344 3.4V10.4375C0.333344 12.1 1.30668 12.4938 2.48668 11.3063L2.49334 11.3C3.04001 10.7563 3.87334 10.8 4.34668 11.3938L5.02001 12.2375C5.56001 12.9062 6.43334 12.9062 6.97334 12.2375L7.64668 11.3938C8.12668 10.7937 8.96001 10.75 9.50668 11.3C10.6933 12.4875 11.66 12.0938 11.66 10.4313V3.4C11.6667 0.88125 11.04 0.25 8.52001 0.25ZM4.00001 3.375C4.36668 3.375 4.66668 3.65625 4.66668 4C4.66668 4.34375 4.37334 4.625 4.00001 4.625C3.62668 4.625 3.33334 4.34375 3.33334 4C3.33334 3.65625 3.62668 3.375 4.00001 3.375ZM8.00001 7.75C7.62668 7.75 7.33334 7.46875 7.33334 7.125C7.33334 6.78125 7.63334 6.5 8.00001 6.5C8.36668 6.5 8.66668 6.78125 8.66668 7.125C8.66668 7.46875 8.37334 7.75 8.00001 7.75ZM8.60001 3.74375L4.11334 7.95C4.01334 8.04375 3.88668 8.0875 3.76001 8.0875C3.63334 8.0875 3.50668 8.04375 3.40668 7.95C3.21334 7.76875 3.21334 7.46875 3.40668 7.2875L7.89334 3.08125C8.08668 2.9 8.40668 2.9 8.60001 3.08125C8.79334 3.2625 8.79334 3.5625 8.60001 3.74375Z" fill="white"/>
</svg>
