<svg width="89" height="40" viewBox="0 0 89 40" fill="none" xmlns="http://www.w3.org/2000/svg">
<g clip-path="url(#clip0_229_630)">
<path d="M27.7194 29.3868C27.5346 29.3868 27.3913 29.451 27.2932 29.5795C27.1952 29.708 27.1424 29.897 27.1424 30.1465V31.9494C26.9123 31.6999 26.6785 31.5147 26.4371 31.3937C26.1957 31.2728 25.9016 31.2123 25.5508 31.2123C24.9437 31.2123 24.4534 31.424 24.0838 31.8511C23.7104 32.2782 23.5256 32.8716 23.5256 33.6351C23.5256 33.9941 23.5709 34.3305 23.6652 34.6405C23.7595 34.9504 23.8952 35.2187 24.0763 35.4493C24.2573 35.6799 24.4722 35.8537 24.7212 35.9785C24.9701 36.1032 25.2378 36.1637 25.532 36.1637C25.7507 36.1637 25.9544 36.1334 26.1392 36.0729C26.324 36.0125 26.4975 35.9218 26.6559 35.8046C26.8142 35.6874 26.9764 35.5325 27.1386 35.3473V35.4682C27.1386 35.6912 27.1914 35.8651 27.3008 35.986C27.4101 36.107 27.5459 36.1674 27.7118 36.1674C27.8778 36.1674 28.0211 36.1107 28.1267 35.9936C28.2323 35.8764 28.2888 35.7025 28.2888 35.472V30.0898C28.2888 29.8592 28.2398 29.6853 28.138 29.5682C28.0399 29.451 27.8966 29.3905 27.7118 29.3905L27.7194 29.3868ZM26.9198 34.5384C26.8142 34.769 26.6747 34.9391 26.4975 35.0524C26.3202 35.1658 26.1241 35.2187 25.9091 35.2187C25.6942 35.2187 25.5018 35.1583 25.3246 35.0411C25.1473 34.9239 25.004 34.7501 24.9022 34.5157C24.8003 34.2852 24.7476 34.0017 24.7476 33.6691C24.7476 33.3554 24.7966 33.0795 24.8909 32.8451C24.9889 32.607 25.1247 32.4256 25.2982 32.3009C25.4754 32.1724 25.6715 32.1119 25.894 32.1119C26.1166 32.1119 26.3051 32.1724 26.4861 32.2971C26.6672 32.4218 26.8105 32.5995 26.9161 32.8338C27.0217 33.0681 27.0745 33.3478 27.0745 33.6729C27.0745 34.0168 27.0217 34.3079 26.9161 34.5384H26.9198ZM33.4216 31.8889C33.2067 31.6697 32.9502 31.4996 32.6485 31.3786C32.3468 31.2577 32.0149 31.201 31.6453 31.201C31.2758 31.201 30.9514 31.2615 30.6497 31.3786C30.348 31.4958 30.0953 31.6659 29.8841 31.8813C29.6729 32.1005 29.5108 32.3613 29.3976 32.6675C29.2845 32.9736 29.2279 33.3138 29.2279 33.6804C29.2279 34.0471 29.2845 34.3797 29.3938 34.6858C29.507 34.9882 29.6692 35.249 29.8841 35.472C30.0991 35.695 30.3555 35.8651 30.6497 35.9822C30.9439 36.0994 31.2758 36.1599 31.6453 36.1599C32.0149 36.1599 32.3506 36.0994 32.6485 35.9822C32.9465 35.8651 33.2029 35.695 33.4141 35.4758C33.6291 35.2565 33.7912 34.992 33.9044 34.6858C34.0175 34.3797 34.0741 34.0433 34.0741 33.6804C34.0741 33.3176 34.0175 32.9774 33.9082 32.675C33.7988 32.3727 33.6328 32.1081 33.4179 31.8889H33.4216ZM32.5241 34.837C32.3053 35.1167 32.0112 35.2565 31.6416 35.2565C31.3964 35.2565 31.1852 35.1923 31.0042 35.0676C30.8232 34.9391 30.6874 34.7576 30.5894 34.5195C30.4913 34.2814 30.4461 34.0017 30.4461 33.6842C30.4461 33.3667 30.4951 33.0795 30.5931 32.8376C30.6912 32.5957 30.8307 32.4142 31.0118 32.2895C31.1928 32.1648 31.404 32.1043 31.6416 32.1043C32.0112 32.1043 32.3053 32.2442 32.5241 32.5201C32.7428 32.796 32.8522 33.1853 32.8522 33.6804C32.8522 34.1756 32.7428 34.5573 32.5241 34.837ZM38.8826 34.1189C38.7581 34.1189 38.6525 34.1567 38.5658 34.236C38.479 34.3154 38.3998 34.4212 38.3244 34.5573C38.1924 34.7879 38.0378 34.9617 37.8643 35.0751C37.6908 35.1885 37.4796 35.2452 37.2382 35.2452C37.0572 35.2452 36.8913 35.2112 36.7404 35.1394C36.5896 35.0676 36.4576 34.9655 36.352 34.8294C36.2464 34.6934 36.1634 34.5309 36.1068 34.3381C36.0503 34.1453 36.0239 33.9337 36.0239 33.7069C36.0239 33.2193 36.1332 32.8338 36.3558 32.5503C36.5745 32.2668 36.8649 32.127 37.2269 32.127C37.4758 32.127 37.6833 32.1837 37.8454 32.2971C38.0076 32.4105 38.1622 32.5806 38.3131 32.8073C38.396 32.9245 38.4715 33.0077 38.5394 33.0606C38.6072 33.1135 38.6902 33.1399 38.792 33.1399C38.9467 33.1399 39.0787 33.0908 39.188 32.9888C39.2974 32.8867 39.3502 32.762 39.3502 32.6184C39.3502 32.4747 39.3012 32.3198 39.2069 32.1572C39.1088 31.9909 38.9693 31.836 38.7883 31.6886C38.6072 31.5412 38.381 31.424 38.1207 31.3295C37.8567 31.2388 37.5701 31.1896 37.2533 31.1896C36.7442 31.1896 36.3067 31.2955 35.9409 31.5034C35.5751 31.715 35.296 32.0098 35.1037 32.3954C34.9113 32.7809 34.8133 33.2231 34.8133 33.722C34.8133 34.4628 35.0245 35.0487 35.4469 35.4909C35.8692 35.9293 36.4576 36.1485 37.2081 36.1485C37.5626 36.1485 37.8794 36.0994 38.1622 36.0049C38.4451 35.9104 38.6789 35.7819 38.8637 35.6269C39.0485 35.472 39.188 35.3057 39.2785 35.1318C39.3691 34.958 39.4143 34.7954 39.4143 34.6442C39.4143 34.5157 39.3653 34.3948 39.2672 34.2814C39.1692 34.168 39.0447 34.1113 38.8976 34.1113L38.8826 34.1189ZM44.5999 33.843C44.7772 33.7522 44.8639 33.5519 44.8639 33.2458C44.8639 32.9132 44.7809 32.5919 44.6112 32.2706C44.4415 31.9531 44.1851 31.6923 43.8456 31.492C43.5062 31.2917 43.0989 31.1896 42.62 31.1896C42.2541 31.1896 41.9223 31.2501 41.6206 31.3673C41.3188 31.4845 41.0662 31.6545 40.8625 31.8738C40.6589 32.093 40.5005 32.3576 40.3949 32.6675C40.2893 32.9774 40.2327 33.31 40.2327 33.6729C40.2327 34.4401 40.4514 35.0449 40.8851 35.4909C41.3188 35.9369 41.926 36.1599 42.7105 36.1599C43.0537 36.1599 43.3554 36.1145 43.6194 36.0276C43.8834 35.9369 44.1021 35.8273 44.2756 35.6912C44.4491 35.5551 44.5811 35.4153 44.664 35.2679C44.7508 35.1205 44.7923 34.992 44.7923 34.8824C44.7923 34.7576 44.7545 34.6594 44.6753 34.5913C44.5961 34.5233 44.4981 34.4893 44.3736 34.4893C44.2567 34.4893 44.17 34.5157 44.1059 34.5686C43.955 34.7123 43.8306 34.8257 43.7363 34.9088C43.642 34.992 43.5364 35.0713 43.4233 35.1432C43.3101 35.215 43.1932 35.2717 43.0725 35.3057C42.9518 35.3397 42.8198 35.3586 42.6728 35.3586C42.454 35.3586 42.2579 35.3057 42.0769 35.1961C41.8959 35.0902 41.7525 34.9277 41.6432 34.7161C41.5338 34.5044 41.4772 34.2587 41.4772 33.9828H43.8607C44.1775 33.9828 44.4264 33.9374 44.5999 33.8467V33.843ZM41.481 33.2873C41.5225 32.8754 41.6394 32.5654 41.8355 32.3538C42.0316 32.1421 42.2805 32.0401 42.5822 32.0401C42.899 32.0401 43.1555 32.1421 43.3516 32.35C43.5477 32.5579 43.6571 32.8678 43.6872 33.2873H41.481ZM49.6271 33.9715C49.5027 33.7976 49.3216 33.6464 49.084 33.5179C48.8464 33.3894 48.5372 33.2798 48.1601 33.1853C47.8433 33.1097 47.5906 33.0417 47.4096 32.9888C47.2285 32.9358 47.0852 32.8678 46.9759 32.7847C46.8703 32.7015 46.8137 32.5995 46.8137 32.4709C46.8137 32.3311 46.8854 32.2139 47.0324 32.1194C47.1795 32.0249 47.3605 31.9796 47.5793 31.9796C47.798 31.9796 47.964 32.0136 48.0884 32.0854C48.2129 32.1572 48.3222 32.2517 48.4127 32.3727C48.5259 32.5163 48.6277 32.6221 48.7145 32.6939C48.8012 32.7658 48.9068 32.7998 49.035 32.7998C49.2085 32.7998 49.3405 32.7544 49.4348 32.6675C49.5291 32.5768 49.5743 32.4634 49.5743 32.3235C49.5743 32.195 49.5291 32.0627 49.4423 31.9305C49.3556 31.7982 49.2274 31.6734 49.0576 31.5638C48.8879 31.4542 48.6805 31.3673 48.4278 31.2993C48.1752 31.235 47.8923 31.201 47.5793 31.201C47.1795 31.201 46.8363 31.2652 46.5497 31.3937C46.2668 31.5223 46.0519 31.6961 45.9048 31.9153C45.7577 32.1346 45.6861 32.3651 45.6861 32.607C45.6861 32.8829 45.7653 33.1135 45.9237 33.2987C46.0821 33.4877 46.2933 33.6389 46.5535 33.7522C46.8175 33.8656 47.1569 33.9752 47.5755 34.0811C47.9489 34.1718 48.2129 34.2625 48.375 34.3645C48.5372 34.4628 48.6164 34.6178 48.6164 34.8332C48.6164 34.9731 48.5372 35.0978 48.3826 35.2074C48.2279 35.317 48.0281 35.3699 47.7829 35.3699C47.4812 35.3699 47.2436 35.317 47.0701 35.2074C46.8967 35.1016 46.7458 34.9391 46.6214 34.7198C46.5572 34.6064 46.4931 34.5195 46.4252 34.4553C46.3574 34.391 46.2593 34.3608 46.1311 34.3608C45.984 34.3608 45.8633 34.4099 45.769 34.5044C45.6747 34.5989 45.6257 34.7161 45.6257 34.8483C45.6257 35.0524 45.7011 35.2528 45.8482 35.4531C45.9953 35.6534 46.2291 35.8235 46.5384 35.9558C46.8476 36.0881 47.2248 36.1561 47.6622 36.1561C48.0997 36.1561 48.5108 36.0956 48.8276 35.9709C49.1482 35.8462 49.3895 35.6647 49.5517 35.4266C49.7139 35.1885 49.7968 34.8975 49.7968 34.5611C49.7968 34.3381 49.7365 34.1378 49.612 33.9639L49.6271 33.9715Z" fill="#FFF0F4"/>
<path d="M13.2477 15.7348C8.68061 15.3115 7.27767 14.669 7.49264 12.2765C7.71138 9.88017 9.25386 9.00707 11.6374 9.04865C14.0171 9.09022 15.0353 10.6777 15.6651 11.5848C16.295 12.4919 19.131 14.771 21.4202 13.1987C23.6302 11.6793 23.9772 8.31539 19.8099 5.58649C15.6425 2.85758 7.66612 1.53849 3.58175 6.04761C-0.506385 10.5567 -0.389473 15.7726 2.31458 18.1576C5.01864 20.5426 6.97597 22.0317 11.2904 22.0771C14.3565 22.1111 15.2465 23.8384 15.3182 25.5355C15.3672 26.6883 13.8888 28.3097 12.0975 28.3022C9.29534 28.2908 9.02004 27.1758 7.60955 25.3049C6.19907 23.4302 3.27628 23.3168 2.08453 24.2655C0.892785 25.2142 -0.732666 26.4275 0.357253 28.5327C1.44717 30.638 4.07957 34.2589 8.29594 35.2227C12.5123 36.1865 17.2868 35.9711 19.6892 33.4916C22.0915 31.0122 25.1124 27.7617 23.6001 23.3433C22.0878 18.9249 17.811 16.1544 13.2439 15.7311L13.2477 15.7348ZM40.062 13.4293C40.292 18.0329 41.2764 22.1565 36.9544 22.542C32.6324 22.9275 32.5985 19.6014 32.4665 13.4293C31.6557 7.47253 24.7466 8.09617 24.5278 12.2765C24.4788 15.0091 24.392 17.8477 24.4109 20.0021C24.4335 22.1565 29.0421 30.3848 37.4145 29.8065C45.7869 29.2282 48.1968 23.0447 48.2307 19.197C48.2647 15.3493 48.0761 14.0151 48.0233 12.9379C47.6047 9.04486 40.8577 6.84511 40.0582 13.433L40.062 13.4293ZM70.2139 18.271C76.991 15.9994 80.7925 7.48765 81.6071 5.23876C83.7304 -0.430709 75.8671 -1.60618 74.5887 2.2415C73.2046 6.39911 66.205 15.7235 59.2845 16.5437C59.2016 13.8715 59.1525 11.7813 59.0545 9.97088C58.8018 5.40884 50.7236 6.10808 50.7688 9.74032C50.8028 12.5297 51.3308 31.8248 51.3459 34.0775C51.3949 41.6405 59.937 41.2059 60.0916 36.0391C60.201 32.3766 59.8729 30.1542 59.8616 27.3875C59.854 26.0268 61.3399 21.7898 65.1565 24.2731C69.7689 27.2741 70.5118 32.0591 71.1417 34.8825C73.0386 43.4132 81.2375 39.917 79.7743 34.3042C78.2129 28.3173 75.128 22.4588 70.2214 18.271H70.2139ZM79.3028 11.8116C79.3481 13.4595 81.313 15.5307 83.9077 15.5005C86.5023 15.4703 87.728 13.5842 87.7054 11.8116C87.6828 10.0389 85.782 8.19444 83.3306 8.23602C80.8793 8.2776 79.2576 10.1636 79.3028 11.8116ZM88.9688 27.1532C88.8066 25.2973 88.3842 21.7974 88.3918 19.1932C87.5809 14.8466 79.5442 16.2753 79.8761 20.0021C80.4456 22.2321 80.3739 26.7336 80.5662 28.1926C81.3431 34.1077 89.5232 33.4878 88.9688 27.1532Z" fill="#FFF0F4"/>
</g>
<defs>
<clipPath id="clip0_229_630">
<rect width="89" height="40" fill="white"/>
</clipPath>
</defs>
</svg>
