<?xml version="1.0" encoding="UTF-8"?>
<svg xmlns="http://www.w3.org/2000/svg" viewBox="0 0 235.99 105.83">
  <defs>
    <style>
      .cls-1 {
        fill: #E9228F;
      }

      .cls-2 {
        isolation: isolate;
      }

      .cls-3 {
        fill: #BB255A;
      }
    </style>
  </defs>
  <g id="name-1_copiar" data-name="name-1 copiar" class="cls-2">
    <g id="name-1_copiar-2" data-name="name-1 copiar">
      <path class="cls-3" d="M73.5,77.75c-.49,0-.87.17-1.13.51-.26.34-.4.84-.4,1.5v4.77c-.61-.66-1.23-1.15-1.87-1.47s-1.42-.48-2.35-.48c-1.61,0-2.91.56-3.89,1.69-.99,1.13-1.48,2.7-1.48,4.72,0,.95.12,1.84.37,2.66.25.82.61,1.53,1.09,2.14.48.61,1.05,1.07,1.71,1.4.66.33,1.37.49,2.15.49.58,0,1.12-.08,1.61-.24.49-.16.95-.4,1.37-.71.42-.31.85-.72,1.28-1.21v.32c0,.59.14,1.05.43,1.37.29.32.65.48,1.09.48s.82-.15,1.1-.46c.28-.31.43-.77.43-1.38v-14.24c0-.61-.13-1.07-.4-1.38-.26-.31-.64-.47-1.13-.47ZM71.38,91.38c-.28.61-.65,1.06-1.12,1.36-.47.3-.99.44-1.56.44s-1.08-.16-1.55-.47c-.47-.31-.85-.77-1.12-1.39-.27-.61-.41-1.36-.41-2.24,0-.83.13-1.56.38-2.18.26-.63.62-1.11,1.08-1.44.47-.34.99-.5,1.58-.5s1.09.16,1.57.49c.48.33.86.8,1.14,1.42.28.62.42,1.36.42,2.22,0,.91-.14,1.68-.42,2.29ZM88.62,84.37c-.57-.58-1.25-1.03-2.05-1.35-.8-.32-1.68-.47-2.66-.47s-1.84.16-2.64.47c-.8.31-1.47.76-2.03,1.33-.56.58-.99,1.27-1.29,2.08-.3.81-.45,1.71-.45,2.68s.15,1.85.44,2.66c.3.8.73,1.49,1.3,2.08.57.59,1.25,1.04,2.03,1.35s1.66.47,2.64.47,1.87-.16,2.66-.47c.79-.31,1.47-.76,2.03-1.34.57-.58,1-1.28,1.3-2.09.3-.81.45-1.7.45-2.66s-.15-1.86-.44-2.66-.73-1.5-1.3-2.08ZM86.24,92.17c-.58.74-1.36,1.11-2.34,1.11-.65,0-1.21-.17-1.69-.5-.48-.34-.84-.82-1.1-1.45-.26-.63-.38-1.37-.38-2.21s.13-1.6.39-2.24c.26-.64.63-1.12,1.11-1.45.48-.33,1.04-.49,1.67-.49.98,0,1.76.37,2.34,1.1.58.73.87,1.76.87,3.07s-.29,2.32-.87,3.06ZM103.1,90.27c-.33,0-.61.1-.84.31-.23.21-.44.49-.64.85-.35.61-.76,1.07-1.22,1.37-.46.3-1.02.45-1.66.45-.48,0-.92-.09-1.32-.28-.4-.19-.75-.46-1.03-.82-.28-.36-.5-.79-.65-1.3-.15-.51-.22-1.07-.22-1.67,0-1.29.29-2.31.88-3.06.58-.75,1.35-1.12,2.31-1.12.66,0,1.21.15,1.64.45.43.3.84.75,1.24,1.35.22.31.42.53.6.67.18.14.4.21.67.21.41,0,.76-.13,1.05-.4.29-.27.43-.6.43-.98s-.13-.79-.38-1.22c-.26-.44-.63-.85-1.11-1.24-.48-.39-1.08-.7-1.77-.95-.7-.24-1.46-.37-2.3-.37-1.35,0-2.51.28-3.48.83-.97.56-1.71,1.34-2.22,2.36-.51,1.02-.77,2.19-.77,3.51,0,1.96.56,3.51,1.68,4.68,1.12,1.16,2.68,1.74,4.67,1.74.94,0,1.78-.13,2.53-.38.75-.25,1.37-.59,1.86-1,.49-.41.86-.85,1.1-1.31.24-.46.36-.89.36-1.29,0-.34-.13-.66-.39-.96-.26-.3-.59-.45-.98-.45ZM118.26,89.54c.47-.24.7-.77.7-1.58,0-.88-.22-1.73-.67-2.58-.45-.84-1.13-1.53-2.03-2.06-.9-.53-1.98-.8-3.25-.8-.97,0-1.85.16-2.65.47-.8.31-1.47.76-2.01,1.34-.54.58-.96,1.28-1.24,2.1-.28.82-.43,1.7-.43,2.66,0,2.03.58,3.63,1.73,4.81,1.15,1.18,2.76,1.77,4.84,1.77.91,0,1.71-.12,2.41-.35.7-.24,1.28-.53,1.74-.89.46-.36.81-.73,1.03-1.12.23-.39.34-.73.34-1.02,0-.33-.1-.59-.31-.77-.21-.18-.47-.27-.8-.27-.31,0-.54.07-.71.21-.4.38-.73.68-.98.9-.25.22-.53.43-.83.62-.3.19-.61.34-.93.43-.32.09-.67.14-1.06.14-.58,0-1.1-.14-1.58-.43-.48-.28-.86-.71-1.15-1.27-.29-.56-.44-1.21-.44-1.94h6.32c.84,0,1.5-.12,1.96-.36ZM109.99,88.07c.11-1.09.42-1.91.94-2.47.52-.56,1.18-.83,1.98-.83.84,0,1.52.27,2.04.82.52.55.81,1.37.89,2.48h-5.85ZM131.59,89.88c-.33-.46-.81-.86-1.44-1.2-.63-.34-1.45-.63-2.45-.88-.84-.2-1.51-.38-1.99-.52-.48-.14-.86-.32-1.15-.54-.28-.22-.43-.49-.43-.83,0-.37.19-.68.58-.93.39-.25.87-.37,1.45-.37s1.02.09,1.35.28c.33.19.62.44.86.76.3.38.57.66.8.85.23.19.51.28.85.28.46,0,.81-.12,1.06-.35.25-.24.37-.54.37-.91,0-.34-.12-.69-.35-1.04-.23-.35-.57-.68-1.02-.97-.45-.29-1-.52-1.67-.7-.67-.17-1.42-.26-2.25-.26-1.06,0-1.97.17-2.73.51-.75.34-1.32.8-1.71,1.38-.39.58-.58,1.19-.58,1.83,0,.73.21,1.34.63,1.83.42.5.98.9,1.67,1.2.7.3,1.6.59,2.71.87.99.24,1.69.48,2.12.75.43.26.64.67.64,1.24,0,.37-.21.7-.62.99-.41.29-.94.43-1.59.43-.8,0-1.43-.14-1.89-.43-.46-.28-.86-.71-1.19-1.29-.17-.3-.34-.53-.52-.7-.18-.17-.44-.25-.78-.25-.39,0-.71.13-.96.38-.25.25-.38.56-.38.91,0,.54.2,1.07.59,1.6.39.53,1.01.98,1.83,1.33s1.82.53,2.98.53,2.25-.16,3.09-.49c.85-.33,1.49-.81,1.92-1.44.43-.63.65-1.4.65-2.29,0-.59-.16-1.12-.49-1.58Z"/>
    </g>
  </g>
  <g id="name_copiar" data-name="name copiar" class="cls-2">
    <g id="name_copiar-2" data-name="name copiar">
      <path class="cls-1" d="M35.13,41.63c-12.11-1.12-15.83-2.82-15.26-9.15.58-6.34,4.67-8.65,10.99-8.54,6.31.11,9.01,4.31,10.68,6.71,1.67,2.4,9.19,8.43,15.26,4.27,5.86-4.02,6.78-12.92-4.27-20.14S20.33,4.07,9.5,16C-1.34,27.93-1.03,41.73,6.14,48.04s12.36,10.25,23.8,10.37c8.13.09,10.49,4.66,10.68,9.15.13,3.05-3.79,7.34-8.54,7.32-7.43-.03-8.16-2.98-11.9-7.93-3.74-4.96-11.49-5.26-14.65-2.75-3.16,2.51-7.47,5.72-4.58,11.29,2.89,5.57,9.87,15.15,21.05,17.7s23.84,1.98,30.21-4.58c6.37-6.56,14.38-15.16,10.37-26.85s-15.35-19.02-27.46-20.14ZM106.23,35.53c.61,12.18,3.22,23.09-8.24,24.11-11.46,1.02-11.55-7.78-11.9-24.11-2.15-15.76-20.47-14.11-21.05-3.05-.13,7.23-.36,14.74-.31,20.44.06,5.7,12.28,27.47,34.48,25.94,22.2-1.53,28.59-17.89,28.68-28.07.09-10.18-.41-13.71-.55-16.56-1.11-10.3-19-16.12-21.12,1.31ZM186.18,48.34c17.97-6.01,28.05-28.53,30.21-34.48,5.63-15-15.22-18.11-18.61-7.93-3.67,11-22.23,35.67-40.58,37.84-.22-7.07-.35-12.6-.61-17.39-.67-12.07-22.09-10.22-21.97-.61.09,7.38,1.49,58.43,1.53,64.39.13,20.01,22.78,18.86,23.19,5.19.29-9.69-.58-15.57-.61-22.89-.02-3.6,3.92-14.81,14.04-8.24,12.23,7.94,14.2,20.6,15.87,28.07,5.03,22.57,26.77,13.32,22.89-1.53-4.14-15.84-12.32-31.34-25.33-42.42ZM210.28,31.25c.12,4.36,5.33,9.84,12.21,9.76s10.13-5.07,10.07-9.76-5.1-9.57-11.6-9.46c-6.5.11-10.8,5.1-10.68,9.46ZM235.91,71.84c-.43-4.91-1.55-14.17-1.53-21.06-2.15-11.5-23.46-7.72-22.58,2.14,1.51,5.9,1.32,17.81,1.83,21.67,2.06,15.65,23.75,14.01,22.28-2.75Z"/>
    </g>
  </g>
</svg>