<?xml version="1.0" encoding="UTF-8"?>
<svg version="1.1" xmlns="http://www.w3.org/2000/svg" width="512" height="512">
<path d="M0 0 C5.2654432 1.33687464 10.53887585 2.64149945 15.81225586 3.94665527 C17.02548523 4.24718811 18.2387146 4.54772095 19.4887085 4.85736084 C41.54705306 10.30473834 63.68178728 15.44238673 85.79644775 20.6550293 C86.78293619 20.88757542 87.76942463 21.12012154 88.78580666 21.35971451 C90.75680431 21.8243233 92.72782138 22.28884971 94.69885826 22.75329208 C99.49569125 23.88401087 104.29188274 25.01733147 109.08676147 26.15631104 C110.93926276 26.59622197 112.79177121 27.03610274 114.64428711 27.47595215 C115.54196619 27.6891724 116.43964527 27.90239265 117.36452675 28.12207413 C122.43580291 29.32349852 127.51170422 30.50095477 132.59467316 31.6518898 C135.60646468 32.33584212 138.61510411 33.03302595 141.62333679 33.73244476 C143.61107944 34.18938131 145.60300935 34.62798798 147.59509277 35.06561279 C160.38722873 38.05920382 171.21304481 43.43244797 181.24194336 51.97790527 C182.23194336 52.69978027 183.22194336 53.42165527 184.24194336 54.16540527 C198.60458021 66.41940015 204.47627795 85.68564872 210.17599487 102.93899536 C211.64617334 107.38892744 213.13907887 111.83113646 214.63072205 116.27391052 C215.39571015 118.55272566 216.1595937 120.83191188 216.92237854 123.11146545 C220.12630929 132.67637913 223.43064428 142.20374022 226.77587891 151.72000122 C232.7102466 168.60172196 238.5053424 185.52802196 244.24194336 202.47790527 C249.79314943 218.87920264 255.39521749 235.26026544 261.11694336 251.60290527 C261.42118225 252.47198517 261.72542114 253.34106506 262.03887939 254.23648071 C262.33937195 255.09482513 262.6398645 255.95316956 262.94946289 256.83752441 C263.5469971 258.54446003 264.14449103 260.25140975 264.74194336 261.95837402 C265.17747025 263.20267937 265.17747025 263.20267937 265.62179565 264.47212219 C268.54671346 272.83618615 271.4407931 281.21076554 274.31866455 289.59112549 C274.84454915 291.12229846 275.37102382 292.65326892 275.89813232 294.184021 C276.61606559 296.26966221 277.33173857 298.35606381 278.04663086 300.44274902 C278.64967041 302.20026489 278.64967041 302.20026489 279.26489258 303.99328613 C283.26349878 316.20791902 282.96512024 331.41302419 277.24194336 342.97790527 C271.71164637 353.56570184 264.88756757 360.41352843 254.17163086 365.67712402 C253.13171242 366.1918074 253.13171242 366.1918074 252.07078552 366.71688843 C243.29193846 371.00447376 234.29916385 374.79622433 225.30444336 378.60290527 C223.46899289 379.38360704 221.63370872 380.16469988 219.79858398 380.94616699 C216.08698185 382.52581843 212.37415633 384.10254328 208.66040039 385.67712402 C204.31853044 387.5189827 199.98092615 389.37057653 195.64561462 391.22781372 C192.5665042 392.54682194 189.48613347 393.86286751 186.40548706 395.17828369 C184.96895212 395.7922076 183.53285161 396.40714911 182.09719849 397.02313232 C180.12605926 397.86826612 178.15304472 398.70885318 176.17944336 399.54821777 C175.0747168 400.02017578 173.96999023 400.49213379 172.83178711 400.97839355 C170.24194336 401.97790527 170.24194336 401.97790527 168.24194336 401.97790527 C168.27336426 403.29226563 168.27336426 403.29226563 168.30541992 404.63317871 C168.37436361 407.9433483 168.424109 411.25273458 168.46166992 414.56335449 C168.48155347 415.98502789 168.50867063 417.4066221 168.54370117 418.82800293 C168.91565655 434.32979051 165.17963841 448.3968164 154.24194336 459.97790527 C142.72670564 469.98647637 131.21225438 473.28156486 116.26327515 473.25205994 C114.95156267 473.25729662 113.63985019 473.26253329 112.28838885 473.26792866 C108.65797482 473.28207149 105.02764656 473.28377266 101.39720893 473.28333175 C97.47746505 473.28498326 93.55775617 473.29805607 89.63803101 473.30952454 C81.07173063 473.33234841 72.50545506 473.34029242 63.9391284 473.34535098 C58.58654761 473.34861121 53.23397398 473.35513569 47.88139725 473.36235237 C33.05087453 473.38191534 18.22035846 473.39832118 3.38982201 473.4012289 C1.96699 473.40151026 1.96699 473.40151026 0.51541392 473.4017973 C-1.40739846 473.40216354 -3.33021084 473.40252724 -5.25302322 473.40288841 C-6.20746257 473.40307122 -7.16190192 473.40325403 -8.14526367 473.40344238 C-9.10087308 473.40362293 -10.05648249 473.40380348 -11.04104976 473.4039895 C-26.51921576 473.40752982 -41.99724251 473.43454463 -57.47536023 473.47194027 C-73.3805766 473.51005909 -89.28572394 473.52938665 -105.19098699 473.52968842 C-114.1155395 473.5302722 -123.03992592 473.53871317 -131.96443558 473.56768608 C-139.56495757 473.59224789 -147.1652529 473.59945061 -154.76580389 473.58443855 C-158.63993872 473.57728904 -162.5136264 473.57804157 -166.38771057 473.60084915 C-169.94242193 473.62157498 -173.49634625 473.61871423 -177.05105035 473.59797431 C-178.92902597 473.59287625 -180.8070205 473.61215432 -182.68489134 473.63263601 C-196.96577096 473.49286973 -209.04085832 467.80063793 -219.04321289 457.66149902 C-225.66508763 449.95041872 -230.86776674 439.95060143 -230.89227772 429.59203625 C-230.89673556 428.71550685 -230.90119341 427.83897745 -230.90578634 426.93588656 C-230.90560197 425.97725075 -230.90541761 425.01861494 -230.90522766 424.03092957 C-230.90890435 423.00904016 -230.91258104 421.98715075 -230.91636914 420.934295 C-230.92740987 417.49920105 -230.93125056 414.06413736 -230.93505859 410.62902832 C-230.94132315 408.17004805 -230.94796994 405.71106873 -230.95497131 403.25209045 C-230.97420375 395.86318591 -230.98480243 388.4742894 -230.9936991 381.08536717 C-230.99808619 377.60111335 -231.00345209 374.11686104 -231.00868797 370.63260841 C-231.02570261 359.04054295 -231.04019337 347.44847843 -231.04743671 335.8564024 C-231.04934646 332.8489704 -231.05126681 329.84153841 -231.05322266 326.83410645 C-231.0537064 326.08666819 -231.05419014 325.33922993 -231.05468854 324.56914202 C-231.06297601 312.48061124 -231.08829009 300.39217982 -231.12080333 288.30369236 C-231.15395261 275.87674496 -231.17189276 263.44984788 -231.17508096 251.02285606 C-231.17723932 244.05216393 -231.18588806 237.08161649 -231.21154213 230.11096764 C-231.23564993 223.54542839 -231.23902563 216.98010142 -231.22878075 210.41451073 C-231.22828704 208.01325109 -231.2345582 205.61197837 -231.24833679 203.21075821 C-231.33424456 187.34294566 -230.63416815 173.05936727 -223.07055664 158.72790527 C-222.72371826 158.06081543 -222.37687988 157.39372559 -222.01953125 156.7064209 C-214.90339246 143.47866213 -203.70105859 133.99064724 -192.75805664 123.97790527 C-191.64308943 122.95097816 -190.52846858 121.92367476 -189.41430664 120.89587402 C-186.53763063 118.24693873 -183.64834151 115.61198761 -180.75805664 112.97790527 C-178.77822522 111.1661232 -176.79890188 109.35380787 -174.82055664 107.54040527 C-174.32773193 107.08883057 -173.83490723 106.63725586 -173.32714844 106.17199707 C-169.07975202 102.27791779 -164.84602706 98.36913614 -160.61376953 94.45861816 C-156.51127456 90.6693935 -152.39660997 86.89367837 -148.27758789 83.12243652 C-144.59596617 79.75003238 -140.92506641 76.36618746 -137.25805664 72.97790527 C-133.09960765 69.13553792 -128.93396615 65.30128953 -124.75805664 61.47790527 C-118.4077251 55.66295489 -112.08203495 49.82148641 -105.75805664 43.97790527 C-98.94522659 37.68260772 -92.13191438 31.38806976 -85.28393555 25.13098145 C-82.65309658 22.72493758 -80.03540372 20.30622388 -77.43383789 17.86853027 C-55.77016152 -2.40093356 -55.77016152 -2.40093356 -40.75805664 -5.02209473 C-40.10836914 -5.15615723 -39.45868164 -5.29021973 -38.78930664 -5.42834473 C-26.00921046 -7.52656947 -12.30612556 -3.12942854 0 0 Z M-53.00805664 38.60290527 C-54.50747565 40.03840821 -56.00747797 41.47330211 -57.50805664 42.90759277 C-58.59666992 43.95318359 -58.59666992 43.95318359 -59.70727539 45.01989746 C-62.43971563 47.62872731 -65.21701111 50.18181853 -68.00805664 52.72790527 C-72.10338524 56.46517235 -76.18674211 60.21454067 -80.25805664 63.97790527 C-88.86227024 71.92587615 -97.48706249 79.84803513 -106.20336914 87.67321777 C-110.56914358 91.61176046 -114.89599853 95.59273189 -119.22583008 99.57067871 C-121.73482776 101.87499079 -124.24656132 104.17631619 -126.75805664 106.47790527 C-127.75807016 107.39455719 -128.75807015 108.31122387 -129.75805664 109.22790527 C-147.75805664 125.72790527 -147.75805664 125.72790527 -149.2578125 127.10266113 C-150.25865332 128.02011213 -151.25946709 128.93759264 -152.26025391 129.85510254 C-154.74716925 132.13501078 -157.23453979 134.4144182 -159.72290039 136.69274902 C-160.71379945 137.60028621 -161.70468485 138.50783831 -162.69555664 139.41540527 C-163.18362793 139.86222656 -163.67169922 140.30904785 -164.17456055 140.76940918 C-166.85464216 143.22520152 -169.52727683 145.68866706 -172.19165039 148.16149902 C-172.7660083 148.6939624 -173.34036621 149.22642578 -173.93212891 149.77502441 C-175.02888144 150.79243673 -176.12450863 151.81106414 -177.21875 152.83117676 C-179.72597149 155.15614207 -182.25685907 157.40058928 -184.91821289 159.54821777 C-194.5653303 167.80201011 -199.40105845 179.86020645 -200.55979979 192.26729846 C-200.86606142 196.45456789 -200.89935816 200.62344552 -200.89176941 204.82034302 C-200.89403497 205.75837623 -200.89630052 206.69640944 -200.89863473 207.6628679 C-200.90491946 210.77782159 -200.90414897 213.89273114 -200.90332031 217.00769043 C-200.90631513 219.25231482 -200.9097184 221.49693869 -200.91349792 223.74156189 C-200.92230615 229.81776213 -200.92467461 235.89394828 -200.92531371 241.97015429 C-200.92602566 245.76838737 -200.92816265 249.56661689 -200.93081093 253.36484909 C-200.93957541 265.93753816 -200.94423196 278.51021925 -200.94348045 291.08291073 C-200.9434405 291.7591769 -200.94340054 292.43544307 -200.94335938 293.13220215 C-200.94331849 293.80929943 -200.94327761 294.48639672 -200.94323549 295.1840121 C-200.94282866 306.16784825 -200.95241106 317.15165018 -200.96649774 328.13547643 C-200.98086984 339.43143731 -200.9875845 350.72738202 -200.98690397 362.02335393 C-200.98664907 368.35820194 -200.98949593 374.69301113 -201.00008202 381.0278511 C-201.00976135 386.98194086 -201.00984327 392.93595465 -201.00256538 398.89004707 C-201.00151956 401.07332406 -201.00388226 403.25660578 -201.00992584 405.43987465 C-201.01764855 408.42315063 -201.0129991 411.40616444 -201.0052948 414.38943481 C-201.01043836 415.25033805 -201.01558193 416.11124128 -201.02088135 416.99823248 C-200.98139565 423.93115391 -200.45350134 430.85757481 -195.69555664 436.29040527 C-194.9047168 437.24366699 -194.9047168 437.24366699 -194.09790039 438.21618652 C-187.05948871 443.51555826 -178.69265932 443.40822953 -170.23327637 443.3588562 C-168.99462027 443.36353617 -167.75596417 443.36821615 -166.47977304 443.37303793 C-163.06262944 443.3828953 -159.64598433 443.37939979 -156.22887158 443.37007928 C-152.5355546 443.36326936 -148.84228002 443.37377961 -145.14897156 443.38201904 C-137.92209879 443.39533791 -130.69531966 443.39248689 -123.46844327 443.38378112 C-117.59344108 443.3769977 -111.71846507 443.3760907 -105.84346008 443.37935257 C-105.00634354 443.37981227 -104.169227 443.38027197 -103.30674329 443.3807456 C-101.60599767 443.3817048 -99.90525206 443.38267744 -98.20450646 443.38366337 C-82.26784036 443.39221185 -66.3312261 443.38239164 -50.3945685 443.36626227 C-36.72908418 443.35285958 -23.06367631 443.35518783 -9.39819336 443.36901855 C6.48261539 443.38508394 22.36337876 443.39138793 38.24419451 443.38218176 C39.9385786 443.38122615 41.6329627 443.38028303 43.3273468 443.37935257 C44.57775297 443.37865833 44.57775297 443.37865833 45.85341987 443.37795006 C51.71932288 443.37536305 57.58519704 443.37972494 63.45109558 443.38679123 C70.60259922 443.39521708 77.75400411 443.39290332 84.90549648 443.376949 C88.55220909 443.36908084 92.19875724 443.36594969 95.84546852 443.37589645 C99.80279245 443.38652696 103.75984881 443.37380799 107.71716309 443.3588562 C108.86376577 443.36554837 110.01036845 443.37224053 111.19171667 443.37913549 C118.56909029 443.32508705 125.70896702 442.86007018 131.61694336 438.04040527 C132.15319336 437.35978027 132.68944336 436.67915527 133.24194336 435.97790527 C133.79881836 435.29728027 134.35569336 434.61665527 134.92944336 433.91540527 C136.96334416 430.91298028 137.36747874 428.39591418 137.37616444 424.86567116 C137.38062228 424.02473337 137.38508012 423.18379558 137.38967305 422.31737483 C137.38948869 421.39337142 137.38930433 420.46936801 137.38911438 419.5173645 C137.39462941 418.04494862 137.39462941 418.04494862 137.40025586 416.54278696 C137.41130992 413.23811413 137.41513953 409.93347274 137.41894531 406.62878418 C137.42520886 404.26522725 137.43185556 401.90167131 137.43885803 399.53811646 C137.45810118 392.43208834 137.4686908 385.32605962 137.47758582 378.22001272 C137.48197108 374.87048377 137.48733747 371.52095639 137.49257469 368.17142868 C137.50959074 357.0297637 137.52408185 345.8880997 137.53132343 334.74642372 C137.53323323 331.85499699 137.53515357 328.96357026 137.53710938 326.07214355 C137.53759312 325.35352132 137.53807686 324.63489909 137.53857525 323.89450042 C137.54686399 312.27014295 137.57217957 300.64588878 137.60469005 289.02157636 C137.63782512 277.07605547 137.65577821 265.13058692 137.65896767 253.18501985 C137.66112738 246.48264598 137.67024327 239.78044544 137.69542885 233.07811356 C137.7187628 226.76618787 137.72292117 220.454532 137.71266747 214.14257431 C137.71217323 211.83239086 137.71846029 209.5221939 137.73222351 207.21205139 C137.84337797 187.43984547 135.80028293 173.64333044 121.49951172 158.9954834 C116.91828685 154.38720535 112.18316114 150.02356324 107.27490234 145.76574707 C103.93938163 142.83239554 100.7193426 139.77911895 97.49194336 136.72790527 C90.79242196 130.42082446 84.03890294 124.17978221 77.24194336 117.97790527 C75.26222401 116.1660032 73.28289487 114.35369012 71.30444336 112.54040527 C70.81097412 112.08818604 70.31750488 111.6359668 69.80908203 111.17004395 C64.48822825 106.29122767 59.18526001 101.39308439 53.88305664 96.49401855 C51.17016751 93.98776424 48.45601044 91.48288383 45.74194336 88.97790527 C42.47958651 85.96687655 39.21750744 82.95555001 35.95678711 79.94274902 C28.73430412 73.27046857 21.49438566 66.61759997 14.24194336 59.97790527 C12.75944232 58.62065845 11.27702494 57.26332105 9.79492188 55.90563965 C8.80091546 54.99515908 7.80661176 54.08500296 6.81201172 53.1751709 C4.20274161 50.78577596 1.60391353 48.38613972 -0.98071289 45.97009277 C-14.1649299 32.08321421 -14.1649299 32.08321421 -30.94555664 25.60290527 C-32.29713867 25.52942871 -32.29713867 25.52942871 -33.67602539 25.45446777 C-41.63531417 26.80623545 -47.43528287 33.17956326 -53.00805664 38.60290527 Z M41.24194336 42.97790527 C42.37019876 44.10616067 43.4988165 45.23405483 44.62866211 46.36071777 C45.78223096 47.51707977 46.93003645 48.67920271 48.07397461 49.84509277 C51.85226575 53.67554967 55.71587278 57.30566772 59.79272461 60.81384277 C63.08493243 63.72274729 66.28627399 66.72424689 69.49194336 69.72790527 C76.03472437 75.85680152 82.62296682 81.93138076 89.24194336 87.97790527 C91.22188249 89.78956272 93.20085898 91.60226842 95.17944336 93.41540527 C95.67210693 93.86681885 96.16477051 94.31823242 96.67236328 94.7833252 C100.91987204 98.67762225 105.15380394 102.58651825 109.38623047 106.49719238 C113.48568303 110.28360696 117.59661996 114.0572676 121.71362305 117.82458496 C124.34966298 120.23820359 126.97955184 122.6581579 129.60131836 125.08728027 C130.16238281 125.60677246 130.72344727 126.12626465 131.30151367 126.66149902 C132.42166738 127.6994693 133.54082146 128.73851947 134.65893555 129.77868652 C137.5339873 132.44328379 140.45594691 134.99609865 143.49194336 137.47790527 C156.8062424 149.07876077 164.81653882 166.6972238 167.24194336 183.97790527 C167.34091045 186.55575156 167.39655226 189.10728097 167.40016174 191.68478394 C167.40756871 192.81953421 167.40756871 192.81953421 167.41512531 193.97720873 C167.43043157 196.50136458 167.43884221 199.02549513 167.44726562 201.54968262 C167.45684956 203.3633547 167.46685994 205.17702458 167.4772644 206.99069214 C167.50426371 211.90752124 167.52530017 216.82435989 167.54526639 221.7412219 C167.56715666 226.88219658 167.59453046 232.02314198 167.62132263 237.16409302 C167.67120841 246.89618499 167.7161625 256.62829324 167.759345 266.36041701 C167.80875255 277.44138038 167.86365763 288.52231437 167.91902459 299.60324931 C168.03278146 322.39477388 168.13963419 345.18632664 168.24194336 367.97790527 C173.23511409 366.3554489 178.16220255 364.69011775 182.99853516 362.63708496 C184.0337883 362.1994281 185.06904144 361.76177124 186.13566589 361.31085205 C187.22647964 360.84519836 188.3172934 360.37954468 189.44116211 359.89978027 C190.59381058 359.4101178 191.74645905 358.92045532 192.93403625 358.41595459 C195.98258865 357.11932104 199.0296231 355.81919405 202.07623291 354.51800537 C205.13387275 353.21440732 208.1951556 351.91939773 211.25561523 350.62243652 C233.06783645 343.4180595 233.06783645 343.4180595 249.50009155 329.29760742 C252.16052846 320.9786667 249.66272311 312.72308365 246.83178711 304.82165527 C246.47327164 303.77840088 246.11475616 302.73514648 245.74537659 301.66027832 C244.57264223 298.26039866 243.37626401 294.86937261 242.17944336 291.47790527 C241.34981402 289.08715073 240.52170819 286.695867 239.69506836 284.30407715 C237.61512604 278.29868887 235.51612556 272.30018832 233.40960693 266.30407715 C231.7121594 261.46877836 230.02571727 256.62966392 228.33959961 251.79040527 C226.5398278 246.62764607 224.73826701 241.46554037 222.92919922 236.30603027 C217.93922413 222.06170991 213.0804365 207.77429663 208.24194336 193.47790527 C202.07245853 175.25005327 195.83205726 157.04984821 189.453125 138.89416504 C186.61012469 130.79787684 183.79553018 122.69535892 181.07788086 114.55603027 C180.58055495 113.07526656 180.08308151 111.59455238 179.58544922 110.1138916 C178.68285946 107.42762627 177.79488278 104.73719516 176.91601562 102.04309082 C172.13542888 87.80943189 165.3432081 77.09168046 152.18920898 69.41931152 C146.68064673 66.72526319 140.81210939 65.47625852 134.86694336 64.10290527 C133.3783522 63.74620458 131.89008446 63.38815217 130.40209961 63.02893066 C126.87631861 62.18232042 123.34767528 61.34888783 119.81713867 60.52233887 C114.86580082 59.36223531 109.91790406 58.18833382 104.97143555 57.00769043 C96.51049795 54.98826299 88.04774256 52.97660023 79.58361053 50.97060394 C77.24083975 50.41514361 74.89828011 49.85879872 72.5557251 49.3024292 C68.82275173 48.41648807 65.08861245 47.53562345 61.35356522 46.65846825 C59.95593877 46.32953751 58.55867163 45.999076 57.16178513 45.66701698 C55.23116519 45.20841746 53.29908539 44.75597682 51.36694336 44.30383301 C50.27639648 44.04674057 49.18584961 43.78964813 48.06225586 43.52476501 C45.06627339 42.85100194 45.06627339 42.85100194 41.24194336 42.97790527 Z " fill="#000000" transform="translate(230.758056640625,22.0220947265625)"/>
<path d="M0 0 C1.45908959 1.0540754 2.89730443 2.13768761 4.3125 3.25 C4.99054688 3.77851563 5.66859375 4.30703125 6.3671875 4.8515625 C16.7994327 14.06603589 22.35702276 29.29848537 23.2734375 42.875 C23.46706609 59.6045104 17.94216664 73.98760984 6.8125 86.375 C-2.65647545 95.53201308 -14.42892795 98.59400596 -27.19506836 98.6328125 C-39.35117116 98.41181338 -49.11592391 93.86560816 -57.6875 85.25 C-69.76998938 71.23175968 -73.85114616 56.51173733 -72.6875 38.25 C-70.91447227 24.24308089 -64.28627915 11.41810749 -53.41015625 2.3515625 C-37.33845141 -9.68317382 -17.08075033 -10.5779266 0 0 Z M-37.6875 31.25 C-41.41486207 37.38211179 -42.34037917 43.17325616 -41.6875 50.25 C-40.17933171 56.36029945 -37.37701382 62.25010511 -32.25 66.0625 C-27.98964244 68.03681204 -25.27286477 68.64297356 -20.75 67.25 C-15.28803949 64.99913537 -12.12224387 60.91452432 -9.375 55.8125 C-7.12158878 47.41342182 -7.41167221 40.21529433 -11.5 32.4375 C-14.05837857 28.70957695 -16.64602443 26.27073779 -20.6875 24.25 C-28.44100258 22.83442277 -32.69170187 25.4078549 -37.6875 31.25 Z " fill="#000000" transform="translate(300.6875,318.75)"/>
<path d="M0 0 C12.794841 8.30130728 21.17873034 20.75594634 24.4921875 35.609375 C26.72028586 50.48621633 25.188791 65.94085792 16.68359375 78.73046875 C8.90691899 89.21364284 -0.09880475 96.82569795 -13 100 C-16.13974291 100.40487287 -19.21190338 100.47827657 -22.375 100.4375 C-23.20499512 100.42992676 -24.03499023 100.42235352 -24.89013672 100.41455078 C-37.60749531 100.07432853 -48.49534637 94.44604532 -57.23828125 85.234375 C-68.77647229 70.60057173 -71.54457466 55.25439531 -70 37 C-67.83090442 24.35985372 -61.13867624 11.99065162 -51 4 C-35.61907731 -6.35648794 -16.76599386 -9.4237237 0 0 Z M-33 30 C-38.7236358 37.70907044 -39.96799347 44.42882861 -39 54 C-37.13351423 59.82405519 -34.4352681 64.89413251 -29 68 C-24.7785448 69.79802721 -22.81278368 70.2382297 -18.375 68.9375 C-12.82474261 65.75124113 -8.35479865 61.43388648 -6.44140625 55.171875 C-4.81818232 47.18503865 -5.67289981 39.93731869 -10 33 C-14.23493441 28.09031968 -14.23493441 28.09031968 -20.05078125 25.6640625 C-25.55524292 25.56899408 -28.76738077 26.15216434 -33 30 Z " fill="#000000" transform="translate(147,198)"/>
<path d="M0 0 C4.03542267 3.73276597 6.19668059 7.26803747 6.68481445 12.87158203 C5.82177323 24.27011069 -1.53351964 36.74789368 -5.96682739 47.13873291 C-7.65567597 51.0974085 -9.33551358 55.05988871 -11.01591492 59.02215576 C-11.88814333 61.07869047 -12.76079605 63.13504528 -13.63386536 65.19122314 C-17.97803235 75.42553449 -22.27468785 85.67947825 -26.5625 95.9375 C-27.30456656 97.71168647 -28.04667276 99.48585636 -28.78881836 101.26000977 C-31.4103963 107.52787136 -34.0304938 113.79635146 -36.65032959 120.06494141 C-41.19471419 130.93836393 -45.74154503 141.81074177 -50.29994202 152.67829895 C-52.06424797 156.88491759 -53.82639656 161.09240778 -55.58300781 165.30224609 C-57.20677152 169.19359593 -58.83637971 173.08244386 -60.47058105 176.96942139 C-61.06467067 178.38536571 -61.65661736 179.80221142 -62.24621582 181.22003174 C-63.05154293 183.15570509 -63.86463572 185.08793655 -64.6796875 187.01953125 C-65.13069824 188.0969458 -65.58170898 189.17436035 -66.04638672 190.28442383 C-68.83146197 196.08611821 -71.39560462 200.06235941 -77.28515625 202.68359375 C-82.6292502 204.20105253 -87.04832698 203.06521934 -91.875 200.5625 C-95.34218973 197.59062309 -97.26033274 195.6492444 -97.7401886 190.97067261 C-97.90056089 183.92086331 -96.63504607 178.72778494 -93.79296875 172.3203125 C-93.40099808 171.39350677 -93.0090274 170.46670105 -92.60517883 169.5118103 C-91.31748669 166.47889996 -90.0026314 163.45860031 -88.6875 160.4375 C-87.77151316 158.29313869 -86.85748237 156.14794088 -85.9453125 154.00195312 C-84.06507414 149.58585156 -82.17450525 145.17440738 -80.27490234 140.76660156 C-76.52121026 132.05026642 -72.84014823 123.3035667 -69.15701294 114.55725098 C-67.99302421 111.79595152 -66.82598609 109.03596063 -65.65795898 106.27636719 C-60.23354025 93.45737601 -54.86900829 80.61422266 -49.52761841 67.76043701 C-46.2469101 59.86965373 -42.95563269 51.98327618 -39.66253662 44.09765625 C-38.52196065 41.36511239 -37.38325738 38.63179331 -36.24462891 35.8984375 C-34.51454949 31.74913544 -32.77309167 27.60479212 -31.02233887 23.46417236 C-30.39195001 21.96893298 -29.76512443 20.47218534 -29.14221191 18.97381592 C-28.29343587 16.9339627 -27.43170265 14.90007694 -26.56640625 12.8671875 C-26.09146729 11.73780762 -25.61652832 10.60842773 -25.12719727 9.44482422 C-19.81297566 -0.78495271 -11.04228098 -5.3239569 0 0 Z " fill="#000000" transform="translate(245.5,202.6875)"/>
<path d="M0 0 C4.7344316 1.91391916 7.72684393 5.45368786 10 10 C10.54360446 14.95482094 10.56437074 18.87125852 8.3125 23.375 C7.549375 24.24125 6.78625 25.1075 6 26 C5.34 26.78375 4.68 27.5675 4 28.375 C-0.8271549 30.98970891 -5.63837357 30.71924257 -11 30 C-15.49167626 27.87236388 -18.06291663 25.58782903 -20 21 C-21.27054103 16.19404046 -21.49549493 12.28368869 -19.4375 7.6875 C-14.81293904 -0.1398819 -8.51482342 -1.06760783 0 0 Z " fill="#000000" transform="translate(205,97)"/>
</svg>
