<svg width="21" height="20" viewBox="0 0 21 20" fill="none" xmlns="http://www.w3.org/2000/svg">
<path d="M9.60473 3.033H4.77121C3.16952 3.033 1.87109 4.33143 1.87109 5.93311V15.6002C1.87109 17.2019 3.16952 18.5004 4.77121 18.5004H14.4382C16.0399 18.5004 17.3384 17.2019 17.3384 15.6002L17.3384 10.7667M6.70461 13.6667L10.2218 12.9581C10.4085 12.9204 10.58 12.8285 10.7146 12.6938L18.5881 4.81591C18.9656 4.43821 18.9654 3.82597 18.5876 3.44859L16.9197 1.78257C16.542 1.40534 15.9301 1.4056 15.5527 1.78315L7.67838 9.66183C7.54399 9.79628 7.45224 9.96738 7.41458 10.1537L6.70461 13.6667Z" stroke="#6A717F" stroke-width="1.45006" stroke-linecap="round" stroke-linejoin="round"/>
</svg>
