<svg width="16" height="16" viewBox="0 0 16 16" fill="none" xmlns="http://www.w3.org/2000/svg">
<path d="M8.00002 2.94999C8.0889 2.94999 8.17224 2.96377 8.25002 2.99133C8.32779 3.01888 8.40001 3.06622 8.46668 3.13333L12.8667 7.53333C13 7.66666 13.0667 7.82488 13.0667 8.008C13.0667 8.19111 13 8.34955 12.8667 8.48333C12.7333 8.61666 12.5778 8.68333 12.4 8.68333C12.2222 8.68333 12.0667 8.61666 11.9333 8.48333L8.66668 5.21666L8.66668 12.6833C8.66668 12.8722 8.60268 13.0278 8.47468 13.15C8.34668 13.2722 8.18846 13.3333 8.00001 13.3333C7.81113 13.3333 7.65268 13.2693 7.52468 13.1413C7.39668 13.0133 7.3329 12.8551 7.33335 12.6667L7.33335 5.21666L4.06668 8.48333C3.93335 8.61666 3.77779 8.68333 3.60001 8.68333C3.42224 8.68333 3.26668 8.61666 3.13335 8.48333C3.00001 8.34999 2.93335 8.19155 2.93335 8.00799C2.93335 7.82444 3.00001 7.66622 3.13335 7.53333L7.53335 3.13333C7.60002 3.06666 7.67224 3.01933 7.75002 2.99133C7.82779 2.96333 7.91113 2.94955 8.00002 2.94999Z" fill="#1EB564"/>
</svg>
