<?xml version="1.0" encoding="UTF-8"?>
<svg version="1.1" xmlns="http://www.w3.org/2000/svg" width="512" height="512">
<path d="M0 0 C5.65850263 5.25672043 10.55674452 10.92382632 15.25 17.0625 C15.97574219 17.96097656 16.70148438 18.85945313 17.44921875 19.78515625 C43.43852941 52.75937763 52.83918627 95.27522487 48.78515625 136.57421875 C44.89386837 168.43626995 31.18244619 196.29537537 11.25 221.0625 C15.55864292 226.21752116 20.08214765 231.01857105 24.86010742 235.73852539 C25.59743607 236.47118118 26.33476471 237.20383698 27.09443665 237.95869446 C28.6844222 239.53823415 30.27550319 241.11667179 31.86757469 242.69410896 C34.38816752 245.19256788 36.90467717 247.69507164 39.41999817 250.19883728 C46.56800936 257.31335061 53.72016867 264.42365175 60.88256836 271.52368164 C65.27254206 275.87600316 69.65516616 280.2356102 74.03316689 284.59997368 C75.69975933 286.25851851 77.36912338 287.91428316 79.04131126 289.56718636 C81.37716976 291.87655782 83.70357343 294.19507576 86.02807617 296.51586914 C86.7185202 297.1939563 87.40896423 297.87204346 88.12033081 298.57067871 C92.43822559 302.90679116 95.77442999 306.80144852 96.6875 313.0625 C96.1208265 316.94826111 94.72260877 319.04042261 92.25 322.0625 C88.6443455 324.28424147 85.94812978 324.55196514 81.81881714 323.86802673 C70.86094917 320.43187106 59.81273019 304.74922289 51.8671875 296.77734375 C50.20018098 295.10846894 48.53295115 293.43981715 46.86550903 291.77137756 C42.50684904 287.40892472 38.15120224 283.04347571 33.79620361 278.67736816 C29.33993122 274.21081168 24.88077762 269.74713362 20.421875 265.28320312 C11.69511505 256.54576295 2.97153975 247.80515067 -5.75 239.0625 C-6.28648666 239.46671173 -6.82297333 239.87092346 -7.37571716 240.28738403 C-8.0863179 240.82177094 -8.79691864 241.35615784 -9.52905273 241.90673828 C-10.2305394 242.43470001 -10.93202606 242.96266174 -11.6547699 243.50662231 C-47.74602379 270.30729519 -90.75788831 282.12091686 -135.625 275.9375 C-175.49880163 269.70650306 -213.35064558 248.52196432 -237.75 216.0625 C-238.14783691 215.53962402 -238.54567383 215.01674805 -238.95556641 214.47802734 C-264.70164014 180.45463611 -276.15555189 137.95483859 -270.8046875 95.51782227 C-265.94447376 61.96577854 -251.82147635 30.96054088 -228.17089844 6.53466797 C-226.73663861 5.0486565 -225.32542224 3.54289917 -223.9140625 2.03515625 C-212.84820692 -9.60268444 -199.98088099 -18.54781074 -185.75 -25.9375 C-185.10869141 -26.27378418 -184.46738281 -26.61006836 -183.80664062 -26.95654297 C-123.11702974 -58.34822946 -49.71521129 -45.23603535 0 0 Z M-212.05493164 21.94750977 C-218.05872782 28.18044165 -223.1746003 34.72429349 -227.75 42.0625 C-228.13736328 42.68060547 -228.52472656 43.29871094 -228.92382812 43.93554688 C-248.28819811 75.35878317 -254.04167928 112.16873146 -245.96484375 148.12109375 C-241.3491344 167.40910694 -233.37691322 185.61707937 -220.75 201.0625 C-220.30398437 201.61244629 -219.85796875 202.16239258 -219.3984375 202.72900391 C-195.32557137 232.23274725 -162.68792061 250.0472166 -124.875 254.75 C-87.0340924 257.67039845 -50.653474 246.80960666 -21.75 222.0625 C-20.91855469 221.35351562 -20.08710938 220.64453125 -19.23046875 219.9140625 C8.51681868 195.61920254 24.60677681 161.68493583 27.25 125.0625 C29.30716667 92.05978342 19.12151801 57.81464894 -1.75 32.0625 C-2.22727539 31.46856445 -2.70455078 30.87462891 -3.19628906 30.26269531 C-26.78800521 1.16880693 -59.64138214 -17.14797409 -96.98925781 -21.17919922 C-140.8980172 -25.4395608 -181.32010904 -9.05022209 -212.05493164 21.94750977 Z " fill="#000000" transform="translate(343.75,115.9375)"/>
</svg>
