<?xml version="1.0" encoding="UTF-8"?>
<svg version="1.1" xmlns="http://www.w3.org/2000/svg" width="512" height="512">
<path d="M0 0 C1.21471051 -0.00226556 2.42942101 -0.00453111 3.68094093 -0.00686532 C7.03126505 -0.01207896 10.38153526 -0.01285391 13.73185956 -0.01167095 C17.35368375 -0.01146604 20.97550008 -0.01699426 24.59732056 -0.02172852 C31.68547224 -0.03001645 38.7736156 -0.03278252 45.86177173 -0.03334089 C51.62707522 -0.03381697 57.39237598 -0.03587629 63.1576786 -0.03904152 C79.52417084 -0.0478433 95.89065653 -0.05246168 112.25715115 -0.05171105 C113.57918804 -0.05165111 113.57918804 -0.05165111 114.92793274 -0.05158997 C116.25159475 -0.05152864 116.25159475 -0.05152864 117.60199741 -0.05146609 C131.89593518 -0.05105983 146.18984657 -0.06062548 160.48377671 -0.07472833 C175.1810724 -0.08911405 189.87835524 -0.0959973 204.57565814 -0.09513456 C212.81883884 -0.09480333 221.06199191 -0.09751778 229.30516624 -0.10831261 C236.32475041 -0.11744658 243.34429441 -0.11956919 250.36388197 -0.11280318 C253.94030262 -0.10955245 257.51664634 -0.10942853 261.09305954 -0.11815643 C264.98289175 -0.12755095 268.87261339 -0.12120768 272.76245117 -0.11352539 C273.87503491 -0.11866895 274.98761864 -0.12381252 276.13391703 -0.12911195 C299.9116532 -0.02598916 321.02038284 6.7189335 338.08540344 23.48918152 C338.94778625 24.36187683 339.81016907 25.23457214 340.69868469 26.13371277 C341.69835266 27.11791199 341.69835266 27.11791199 342.71821594 28.12199402 C350.07976442 35.88236228 359.69868469 50.16009414 359.69868469 61.13371277 C360.30712219 61.25746277 360.91555969 61.38121277 361.54243469 61.50871277 C374.70042855 64.60471132 386.74970857 71.00509081 396.69868469 80.13371277 C397.45407532 80.79757996 398.20946594 81.46144714 398.98774719 82.14543152 C412.65228338 94.84734574 421.56055233 113.20597955 422.97852898 131.80414772 C423.09287279 135.85624102 423.116486 139.89816738 423.10273743 143.95133972 C423.10845502 145.49378448 423.11542458 147.03622502 423.12353516 148.57865906 C423.14133067 152.72971971 423.14032383 156.88056741 423.13459277 161.0316546 C423.13148037 164.5152441 423.13761614 167.99879389 423.14363152 171.48237771 C423.15763114 179.71083551 423.15615428 187.93918939 423.14472961 196.16764832 C423.13325913 204.61500281 423.1473165 213.06203941 423.17412609 221.50935203 C423.19638537 228.79984764 423.20289739 236.09024421 423.19704968 243.38077134 C423.19370248 247.7183346 423.19594409 252.05569433 423.2133007 256.39322853 C423.22893157 260.47697136 423.22463862 264.56024879 423.20599556 268.6439743 C423.20235347 270.12887937 423.20528741 271.6138202 423.21588135 273.09869194 C423.30266796 286.28624183 421.37773842 299.54357946 415.07368469 311.32121277 C414.73522522 311.97283386 414.39676575 312.62445496 414.04804993 313.29582214 C403.67622265 332.56214205 387.37662735 345.90522068 366.69868469 353.13371277 C357.20205847 355.95852229 348.20715907 356.53704314 338.35249329 356.42326355 C336.86105827 356.41753001 335.369617 356.41326555 333.87817383 356.41033936 C330.69383222 356.40180559 327.50970022 356.38465689 324.32543564 356.36101151 C319.28059443 356.32523443 314.23597734 356.31920679 309.19102478 356.31874084 C294.85482294 356.31380519 280.51898478 356.28454924 266.18305969 356.19230652 C258.24422009 356.14147378 250.30597776 356.12295343 242.36698592 356.13989437 C237.36061965 356.14885111 232.35653444 356.11893367 227.35053611 356.05963445 C224.22819933 356.03231009 221.10682522 356.04304607 217.98447609 356.06422234 C216.54739821 356.06655764 215.11019484 356.05373989 213.67342567 356.02386284 C204.22010274 355.83827629 198.94406229 357.32590036 191.9979496 363.87322807 C190.85981347 364.992168 190.85981347 364.992168 189.69868469 366.13371277 C188.27056689 367.27918418 186.82838027 368.40774457 185.36274719 369.50480652 C184.69831604 370.01068298 184.03388489 370.51655945 183.34931946 371.0377655 C182.34663025 371.7968219 182.34663025 371.7968219 181.32368469 372.57121277 C179.84571676 373.69607698 178.36785306 374.82107817 176.89009094 375.94621277 C176.17611145 376.48890808 175.46213196 377.03160339 174.72651672 377.59074402 C166.75782615 383.65408671 158.84755087 389.79239615 150.94868469 395.94621277 C144.35828909 401.0805665 137.73746257 406.172763 131.0941925 411.2384491 C125.93901531 415.17388518 120.81363734 419.14617565 115.69868469 423.13371277 C80.85350714 450.26870942 80.85350714 450.26870942 73.69868469 450.13371277 C68.45898524 448.38714628 66.30353805 445.92715613 63.69868469 441.13371277 C63.3379758 438.17281957 63.18972064 435.59966477 63.24458313 432.64982605 C63.24399902 431.81989639 63.24341492 430.98996674 63.24281311 430.1348877 C63.24558698 427.40749947 63.27664518 424.68122119 63.30805969 421.95402527 C63.31552458 420.05688575 63.32121634 418.1597385 63.32521057 416.2625885 C63.34044738 411.28115874 63.37971239 406.30019911 63.42402649 401.31895447 C63.46502134 396.23123025 63.48323058 391.14342971 63.50337219 386.05558777 C63.54620851 376.08142344 63.6144362 366.10760727 63.69868469 356.13371277 C63.01616638 356.14156799 62.33364807 356.14942322 61.63044739 356.15751648 C58.49696477 356.18896143 55.36351551 356.20829435 52.22993469 356.22746277 C51.1564679 356.24003113 50.0830011 356.25259949 48.977005 356.26554871 C30.12837279 356.35187832 12.89486267 349.49238963 -1.30131531 337.13371277 C-1.88783875 336.68898621 -2.47436218 336.24425964 -3.07865906 335.78605652 C-13.74007489 327.4938442 -22.64790679 313.21568441 -25.48881531 300.00871277 C-26.02592712 297.85812611 -26.02592712 297.85812611 -27.30131531 296.13371277 C-30.13979383 294.70073893 -32.92067803 293.89703114 -35.98881531 293.06730652 C-53.6779756 288.08180026 -69.52700212 273.933735 -78.61381531 258.25871277 C-86.68673317 243.70671479 -89.60464505 230.20239411 -89.59184265 213.77018738 C-89.59783639 212.22833433 -89.60464386 210.68648426 -89.61219788 209.14463806 C-89.62978416 204.97685803 -89.63455027 200.80916025 -89.63582945 196.64134669 C-89.63725638 194.02952085 -89.6415363 191.41771556 -89.64682388 188.80589485 C-89.6653034 179.67109488 -89.67349755 170.53635308 -89.67192078 161.40153503 C-89.6707216 152.92473929 -89.69178532 144.44819908 -89.7234081 135.97146791 C-89.74968415 128.66407844 -89.76028328 121.35677181 -89.75900996 114.04933554 C-89.75850342 109.69828482 -89.76401337 105.34746116 -89.78536606 100.99645805 C-89.80493927 96.89637286 -89.80474485 92.79672677 -89.79033279 88.69662476 C-89.78826663 87.2052654 -89.79281196 85.71387715 -89.80505371 84.2225666 C-89.90704878 70.91850656 -87.96490725 57.67071496 -81.55131531 45.82121277 C-81.03697937 44.83604675 -81.03697937 44.83604675 -80.51225281 43.83097839 C-69.37814891 23.04596326 -52.59031524 10.0309603 -30.30131531 3.13371277 C-20.34843559 0.28796922 -10.29376902 -0.01418566 0 0 Z M-51.11381531 44.88371277 C-62.03226005 57.63817505 -64.76254339 71.89056386 -64.70536804 88.22111511 C-64.71108296 89.70902007 -64.71805152 91.19692065 -64.72616577 92.68481445 C-64.74398952 96.69530276 -64.74294919 100.70557098 -64.73722339 104.71608686 C-64.73411551 108.07807831 -64.74024171 111.44002845 -64.74626213 114.80201399 C-64.76027064 122.74074076 -64.75877708 130.67935983 -64.74736023 138.61808777 C-64.73588532 146.77690149 -64.74995245 154.93538624 -64.7767567 163.09415662 C-64.79899053 170.1280924 -64.80553378 177.1619255 -64.79968029 184.19589388 C-64.79632749 188.38416405 -64.79861302 192.57222349 -64.81593132 196.76046371 C-64.83152141 200.7021827 -64.82731315 204.64341852 -64.80862617 208.58511925 C-64.80497322 210.02129341 -64.80795111 211.45750435 -64.81851196 212.89364433 C-64.9346507 230.01032928 -60.06099859 244.70583209 -47.92631531 257.07121277 C-42.32954004 262.40624063 -36.85231793 266.32430119 -29.30131531 268.13371277 C-29.29984875 267.43816819 -29.29838219 266.74262362 -29.29687119 266.02600193 C-29.25966926 249.02907747 -29.20047908 232.03238205 -29.11741257 215.0356226 C-29.07775991 206.81579361 -29.045298 198.59605846 -29.03031921 190.37614441 C-29.01723071 183.20390971 -28.99008501 176.03188266 -28.94670224 168.85976499 C-28.92424752 165.06916964 -28.90839487 161.27882884 -28.90943146 157.48816109 C-28.90872704 119.98045861 -28.90872704 119.98045861 -20.55131531 104.75871277 C-20.20914978 104.10717224 -19.86698425 103.45563171 -19.51445007 102.78434753 C-9.40537963 84.0281764 6.02555092 70.47298478 26.49555969 63.84074402 C36.00747533 61.06141846 44.55370284 59.98418988 54.42973328 59.97549438 C55.61909001 59.97055641 56.80844674 59.96561843 58.03384459 59.96053082 C61.32675402 59.94784342 64.61962139 59.93954326 67.91254544 59.93310416 C71.46667764 59.92508219 75.02078855 59.91139062 78.5749054 59.89839172 C84.72989102 59.87665442 90.88487882 59.85849992 97.03988266 59.84278679 C105.93895728 59.82006312 114.83800831 59.79192377 123.73706289 59.76246751 C138.17559437 59.7148222 152.6141355 59.67154973 167.0526886 59.63102722 C181.07743582 59.59165672 195.10217447 59.55022676 209.12690735 59.50602722 C209.99155973 59.50330295 210.8562121 59.50057868 211.74706607 59.49777185 C216.08482303 59.48409212 220.42257986 59.47037189 224.76033664 59.45663154 C260.73976817 59.34271485 296.71921801 59.23589487 332.69868469 59.13371277 C331.91247175 57.5262403 331.12222387 55.92074089 330.33027649 54.31608582 C329.89064072 53.42181381 329.45100494 52.52754181 328.99804688 51.60617065 C322.8444925 39.89703809 311.38870635 32.84289347 299.46040344 28.17668152 C289.8078716 25.50043437 280.10960183 24.83890697 270.1374054 24.87974548 C268.94307294 24.8766255 267.74874048 24.87350552 266.51821613 24.87029099 C263.24337433 24.86375092 259.96868395 24.86602716 256.69384623 24.87226343 C253.14640963 24.87682381 249.59899214 24.86978654 246.05155945 24.86430359 C239.11801779 24.85544591 232.18451963 24.85731536 225.25097632 24.86312887 C219.61209238 24.86765969 213.97322057 24.86825214 208.33433533 24.86608124 C207.12699925 24.86562154 207.12699925 24.86562154 205.89527255 24.86515255 C204.259763 24.86451305 202.62425345 24.86386463 200.9887439 24.86320737 C185.68001781 24.8575147 170.37131573 24.86404525 155.06259358 24.8748081 C141.94876558 24.88374264 128.83497299 24.8821903 115.72114563 24.87297058 C100.46433906 24.86224914 85.20755349 24.85806392 69.95074368 24.86419511 C68.32150714 24.86483216 66.6922706 24.8654609 65.06303406 24.86608124 C64.26157796 24.86638979 63.46012186 24.86669834 62.63437921 24.86701624 C57.00725981 24.86873756 51.38015382 24.86584026 45.7530365 24.86112213 C38.88832471 24.85549243 32.02365861 24.85707346 25.158952 24.86768362 C21.66161541 24.87291234 18.16435479 24.87504529 14.66701889 24.86838531 C10.86459237 24.86288999 7.06237718 24.86981235 3.25996399 24.87974548 C1.62583038 24.87305332 1.62583038 24.87305332 -0.04131603 24.86622596 C-20.18777681 24.96774473 -36.92104719 30.12228617 -51.11381531 44.88371277 Z M8.69868469 104.13371277 C-1.61046323 117.77025359 -4.6095783 130.7996806 -4.57597351 147.64274597 C-4.58032812 149.09256755 -4.58551375 150.54238684 -4.59146118 151.99220276 C-4.60478329 155.90766614 -4.60543736 159.82303258 -4.60289788 163.73851418 C-4.60182334 167.01847575 -4.60672395 170.2984181 -4.6115033 173.57837552 C-4.62257547 181.3233172 -4.62304911 189.06821037 -4.61698914 196.81315613 C-4.61095361 204.77648812 -4.6232549 212.73964323 -4.6445592 220.70294505 C-4.66223186 227.56356592 -4.66816759 234.42413077 -4.66492146 241.28477353 C-4.66311714 245.37184698 -4.66565888 249.4587943 -4.679636 253.54584694 C-4.69230203 257.39307238 -4.69018832 261.24002422 -4.67722511 265.08724594 C-4.67487857 266.48997659 -4.67752407 267.89272704 -4.68584824 269.29543495 C-4.78114127 286.61789246 -0.73188886 301.2648682 11.49555969 313.95793152 C12.22259094 314.67593933 12.94962219 315.39394714 13.69868469 316.13371277 C14.24009094 316.69703308 14.78149719 317.26035339 15.33930969 317.84074402 C24.67050863 326.77136118 37.98756154 331.37927743 50.70649719 331.47746277 C51.4356131 331.49208557 52.164729 331.50670837 52.91593933 331.52177429 C55.99683615 331.58333199 59.07791672 331.62357793 62.15913391 331.66545105 C64.42512576 331.69935736 66.69071443 331.74440174 68.95649719 331.78996277 C69.64414154 331.79523987 70.33178589 331.80051697 71.04026794 331.80595398 C76.39902046 331.91579591 80.83577306 332.57289491 85.01118469 336.07121277 C88.08574551 339.82900932 87.84591411 343.30294405 87.90400696 347.99186707 C87.91390656 348.68480865 87.92380615 349.37775024 87.93400574 350.09169006 C87.96557429 352.38040255 87.99035972 354.66913578 88.01509094 356.95793152 C88.03566449 358.54548683 88.05666107 360.13303671 88.07806396 361.72058105 C88.1332433 365.89787905 88.18267081 370.07522613 88.23091125 374.25260925 C88.2811565 378.51575589 88.33682678 382.77883127 88.39204407 387.04191589 C88.49957503 395.40578793 88.60103123 403.7697196 88.69868469 412.13371277 C89.95156655 411.19506407 91.20430506 410.25622403 92.45698547 409.31730652 C93.15462006 408.79451111 93.85225464 408.2717157 94.57102966 407.733078 C97.91826028 405.21695381 101.24754845 402.67762639 104.57368469 400.13371277 C105.29910461 399.57901306 106.02452454 399.02431335 106.77192688 398.45280457 C112.95073486 393.72070634 119.09690587 388.9473853 125.23603821 384.16398621 C132.71493729 378.33737361 140.2316153 372.56113174 147.75337219 366.78996277 C148.78720032 365.99590027 149.82102844 365.20183777 150.88618469 364.38371277 C151.41212219 363.97975281 151.93805969 363.57579285 152.47993469 363.15959167 C156.4044335 360.14065702 160.31049091 357.09861366 164.21308899 354.05143738 C168.03485667 351.07010942 171.86457033 348.09914149 175.69868469 345.13371277 C176.45810364 344.5460614 177.21752258 343.95841003 177.99995422 343.35295105 C180.18533141 341.66786931 182.3780471 339.99289428 184.57368469 338.32121277 C185.23344299 337.81154968 185.89320129 337.3018866 186.57295227 336.77677917 C191.99731619 332.6746527 195.27218767 332.00992064 201.97662354 332.00241089 C203.91298172 331.99639862 203.91298172 331.99639862 205.88845825 331.99026489 C207.31730654 331.99073998 208.74615481 331.99127609 210.17500305 331.99186707 C211.68157554 331.98883443 213.18814711 331.98531269 214.69471741 331.9813385 C217.93968749 331.97345401 221.1846466 331.96830613 224.42962456 331.96504784 C229.57090471 331.95912634 234.71211604 331.94257279 239.85336304 331.92370605 C241.61579414 331.91736853 243.37822528 331.9110429 245.14065647 331.90472889 C246.02336849 331.90156308 246.90608052 331.89839727 247.81554139 331.89513552 C259.78186648 331.853129 271.74815996 331.82011724 283.71455383 331.80778503 C291.78915686 331.79937818 299.86358968 331.77678787 307.93810755 331.73842937 C312.20583593 331.71875103 316.47331035 331.70623646 320.74108696 331.71126366 C324.7639949 331.71594443 328.78642323 331.70191992 332.80923462 331.67425156 C334.27602628 331.66739602 335.74286815 331.66715159 337.20965767 331.67445183 C354.65759893 331.75243709 369.63090039 326.7243982 382.41352844 314.61027527 C396.75755891 299.064779 399.00409082 280.03509492 398.98921204 259.81730652 C398.99521931 258.46013529 399.00202976 257.10296742 399.00956726 255.74580383 C399.02700251 252.10941841 399.03191272 248.47312745 399.03319883 244.83670425 C399.0346329 242.55417687 399.03892564 240.27167258 399.04419327 237.989151 C399.06261293 229.99663296 399.0708733 222.00418102 399.06929016 214.01164246 C399.06808812 206.60714102 399.08922351 199.20293072 399.12077749 191.79850292 C399.14706048 185.39885456 399.15765259 178.9993007 399.15637934 172.59959888 C399.15587361 168.79583233 399.16133954 164.99232576 399.18273544 161.18861389 C399.20232501 157.60962457 399.20210385 154.03113807 399.18770218 150.45212936 C399.18466834 148.5407182 399.20114032 146.62930579 399.21858215 144.7179718 C399.09407434 127.25025767 393.52085109 112.37812978 381.40571594 99.64543152 C368.53520704 87.70353076 353.27662991 83.81660984 336.1940918 83.87301636 C334.9575524 83.86919081 333.721013 83.86536526 332.44700271 83.86142379 C329.03575295 83.85292354 325.62472004 83.8533148 322.21347678 83.85760438 C318.52624303 83.8600793 314.83903421 83.85104794 311.15180969 83.84356689 C303.93598265 83.83083876 296.72019285 83.82902387 289.50435647 83.83136716 C283.63653467 83.83315271 277.76872415 83.8313956 271.9009037 83.82714272 C271.06465333 83.82654753 270.22840296 83.82595234 269.36681167 83.82533911 C267.66776325 83.82412731 265.96871483 83.82291318 264.26966641 83.82169674 C248.34722964 83.81082831 232.42481407 83.8129803 216.50237612 83.81908158 C201.95164402 83.82424925 187.40097889 83.81299803 172.85026004 83.79398336 C157.8930667 83.77458807 142.93590502 83.76635198 127.97869903 83.77010661 C119.58801781 83.7720162 111.19739357 83.7695548 102.80672264 83.75539207 C95.66299675 83.74345568 88.51936292 83.74209858 81.37563571 83.75418224 C77.7346226 83.76005533 74.09377769 83.7612142 70.45277596 83.74917984 C66.49651097 83.73625604 62.54049847 83.74682292 58.58422852 83.75949097 C57.44636436 83.75211668 56.3085002 83.7447424 55.13615531 83.73714465 C37.04987889 83.85852496 20.89760777 90.56835188 8.69868469 104.13371277 Z " fill="#000000" transform="translate(89.30131530761719,30.866287231445313)"/>
<path d="M0 0 C0.88207969 -0.00583219 1.76415937 -0.01166439 2.67296875 -0.01767331 C3.63774363 -0.01389399 4.60251852 -0.01011467 5.59652901 -0.00622082 C7.13888826 -0.01195914 7.13888826 -0.01195914 8.71240628 -0.01781338 C12.16855252 -0.02815769 15.62453307 -0.02414847 19.08069038 -0.02018261 C21.5542739 -0.0245283 24.02785607 -0.02971097 26.50143623 -0.03567028 C32.52948308 -0.04769276 38.55746445 -0.05020974 44.58551727 -0.04787002 C49.48526147 -0.04608765 54.38499214 -0.04783476 59.28473473 -0.05209446 C59.98185146 -0.05268965 60.6789682 -0.05328484 61.39720968 -0.05389806 C62.81337316 -0.05510981 64.22953664 -0.05632394 65.64570011 -0.05754044 C78.93023909 -0.06841989 92.21475269 -0.06625167 105.4992931 -0.06015559 C117.65208716 -0.05498704 129.80480104 -0.06623951 141.95757924 -0.08525381 C154.43533937 -0.10462694 166.91306156 -0.11288908 179.39083683 -0.10913056 C186.39641782 -0.10721759 193.40193059 -0.10971531 200.40749931 -0.1238451 C206.99515956 -0.13699744 213.58268573 -0.13450598 220.17035484 -0.12143421 C222.58989961 -0.11906268 225.00945559 -0.12182363 227.4289875 -0.13005733 C230.72867496 -0.14047755 234.02781842 -0.13246168 237.32748604 -0.11974621 C238.28779948 -0.12712049 239.24811292 -0.13449478 240.23752677 -0.14209253 C246.30201792 -0.0928372 250.58446524 0.76797138 255.40149117 4.75447559 C258.15885597 8.23746271 257.88105251 12.0195861 257.58899117 16.25447559 C256.06907013 19.43907206 254.30603158 21.99027525 251.58899117 24.25447559 C248.80634507 25.18202429 247.14227634 25.38200007 244.26979542 25.38869667 C243.38273999 25.39315451 242.49568456 25.39761236 241.58174866 25.40220529 C240.11854423 25.40192874 240.11854423 25.40192874 238.62578011 25.40164661 C237.07245184 25.40716165 237.07245184 25.40716165 235.4877432 25.41278809 C232.00089838 25.423844 228.51408333 25.42767199 225.02722359 25.43147755 C222.53408399 25.43774067 220.04094533 25.44438733 217.54780769 25.45139027 C210.05471348 25.47062977 202.56162717 25.48121951 195.06851551 25.49011806 C191.54026305 25.49450133 188.0120121 25.49986798 184.48376083 25.50510693 C172.75617948 25.52211755 161.02859906 25.53661241 149.30100727 25.54385567 C146.25792311 25.54576557 143.21483896 25.5476859 140.17175484 25.54964161 C139.03723616 25.55036722 139.03723616 25.55036722 137.87979791 25.55110749 C125.62346117 25.55941043 113.36722193 25.58475251 101.11092778 25.61722229 C88.5292438 25.65028257 75.9476094 25.66830343 63.36588174 25.67149991 C56.30100634 25.67366581 49.23627321 25.68242626 42.17144012 25.70796108 C35.52714804 25.73192048 28.88306621 25.73550026 22.23872375 25.7251997 C19.79820848 25.72470273 17.35768086 25.7310704 14.9172039 25.74475574 C11.58887695 25.76237772 8.26147981 25.75541558 4.93315315 25.74222279 C3.96437569 25.75319203 2.99559823 25.76416128 1.99746388 25.77546293 C-3.62342266 25.72156487 -7.01606598 25.12009557 -11.41100883 21.25447559 C-13.62750531 17.46498162 -14.41100883 15.0212929 -14.41100883 10.62947559 C-13.0380245 5.99565346 -10.64915322 3.58014763 -6.51872814 1.13366157 C-4.17533802 0.15617101 -2.53111058 0.0028839 0 0 Z " fill="#000000" transform="translate(164.41100883483887,272.7455244064331)"/>
<path d="M0 0 C0.8744962 -0.00384115 1.74899239 -0.00768229 2.64998847 -0.01163983 C3.60629934 -0.01077335 4.56261021 -0.00990687 5.5479002 -0.00901413 C6.56726703 -0.01198525 7.58663386 -0.01495637 8.63689059 -0.01801753 C12.06302049 -0.02671023 15.48911548 -0.02821326 18.91525555 -0.02970505 C21.36751156 -0.03433278 23.81976685 -0.03935738 26.27202129 -0.04475021 C32.94146456 -0.0578797 39.61089413 -0.06435681 46.28034711 -0.06876087 C50.44538611 -0.07152453 54.6104228 -0.07576209 58.77546024 -0.08026505 C70.30921088 -0.0924562 81.84295967 -0.10275607 93.37671661 -0.10614014 C94.48371871 -0.10646949 94.48371871 -0.10646949 95.61308448 -0.10680549 C96.35284086 -0.10702377 97.09259724 -0.10724204 97.85477048 -0.10746694 C99.35377332 -0.1079104 100.85277615 -0.10835696 102.35177898 -0.10880661 C103.46711225 -0.10913875 103.46711225 -0.10913875 104.60497751 -0.10947761 C116.65362751 -0.11342576 128.70221704 -0.13088097 140.75084368 -0.15416613 C153.1235123 -0.17788439 165.49615058 -0.19034219 177.8688423 -0.19150805 C184.8146581 -0.19242451 191.76039508 -0.19816935 198.70618916 -0.21632767 C205.23885156 -0.23334591 211.77139077 -0.23497773 218.3040781 -0.22618866 C220.70224311 -0.22541677 223.10041607 -0.22978085 225.49856091 -0.23964691 C228.77161558 -0.25232313 232.04413655 -0.24651275 235.31718731 -0.23606491 C236.74161537 -0.24814952 236.74161537 -0.24814952 238.19481975 -0.26047826 C244.46839196 -0.21362237 249.5808631 0.49489246 254.49801922 4.75642776 C256.82563248 9.67027799 257.21369762 14.35939256 255.49801922 19.50642776 C253.30328203 22.57905983 252.0735648 23.57958632 248.62301922 25.13142776 C245.19676897 25.57476133 241.79428348 25.54464779 238.34337139 25.52583694 C236.77522919 25.5349736 236.77522919 25.5349736 235.17540735 25.54429483 C231.66703066 25.56096406 228.15901535 25.55614331 224.65060711 25.55134964 C222.13746544 25.55868763 219.62432715 25.56727307 217.11119366 25.57701492 C210.99035692 25.59695507 204.8696535 25.60261003 198.74878866 25.60082704 C193.77373753 25.5995193 188.79871595 25.60332415 183.82367039 25.61075211 C182.390501 25.6128513 180.95733162 25.6149489 179.52416223 25.61704493 C178.45416687 25.61861022 178.45416687 25.61861022 177.36255544 25.62020713 C163.87294049 25.63910766 150.38337992 25.63805978 136.89375722 25.6312378 C124.55344412 25.62566152 112.21333859 25.64649162 99.873074 25.67959827 C87.20090978 25.71333143 74.528845 25.72850415 61.85663503 25.72388124 C54.74258978 25.72163628 47.6287364 25.72688351 40.5147295 25.75177383 C33.82598515 25.77497711 27.13774405 25.77220898 20.44896793 25.75184631 C17.99233065 25.74842656 15.53566453 25.75356657 13.07906628 25.7678299 C9.72875206 25.785942 6.3799192 25.77333138 3.02965069 25.75288773 C2.05445557 25.76540557 1.07926046 25.77792342 0.07451397 25.7908206 C-4.36512522 25.73262524 -7.42009666 25.57516042 -10.95683861 22.73077011 C-14.36511424 19.07012767 -15.26681136 16.08057723 -15.37698078 11.13142776 C-14.62782609 7.490676 -13.1350981 4.86508969 -10.43948078 2.25642776 C-7.01241984 0.3871218 -3.86694578 0.00639168 0 0 Z " fill="#000000" transform="translate(165.37698078155518,166.86857223510742)"/>
<path d="M0 0 C1.03882102 -0.0055344 2.07764204 -0.01106879 3.14794248 -0.0167709 C6.62804156 -0.03038157 10.10742401 -0.0154053 13.58750916 -0.00050354 C16.08271591 -0.00428652 18.57792057 -0.00978638 21.07312012 -0.01687622 C27.14609329 -0.0293988 33.21878566 -0.02325912 39.29173166 -0.00820064 C46.3645025 0.00866885 53.43722162 0.00544806 60.51000636 0.00170528 C73.12930715 -0.00417164 85.74850811 0.00999224 98.36778259 0.03465271 C110.61228679 0.05857811 122.85665765 0.06565479 135.10118103 0.05516052 C148.43697655 0.04375144 161.77271042 0.04182072 175.10850519 0.05625862 C176.5304406 0.05778445 177.95237602 0.05930481 179.37431145 0.06081963 C180.42372723 0.06195635 180.42372723 0.06195635 181.49434333 0.06311603 C186.42432925 0.06785854 191.35428764 0.0660077 196.28427315 0.06175423 C202.91876 0.05631346 209.55308886 0.06706817 216.1875515 0.08870888 C218.62524924 0.09428264 221.06296473 0.09473667 223.50066376 0.08975601 C226.82250788 0.08381906 230.14378335 0.09627839 233.46557617 0.11352539 C234.43522011 0.10751535 235.40486405 0.1015053 236.40389115 0.09531313 C241.31084973 0.14179203 244.70914335 0.27149872 248.66929626 3.50120544 C251.06362341 6.14756702 252.56467511 8.08881991 252.83335876 11.71604919 C252.4841481 16.71308754 251.47070341 20.01658222 247.66929626 23.50120544 C242.85720939 26.16801547 237.88824167 25.78291012 232.54150391 25.76190186 C231.51240998 25.7657274 230.48331606 25.76955295 229.42303747 25.77349442 C225.96999711 25.7838245 222.51712303 25.77983221 219.06407166 25.77586365 C216.59034064 25.78021009 214.11661096 25.78539302 211.6428833 25.79135132 C205.61831566 25.80336634 199.59381353 25.80589189 193.56923992 25.80355106 C188.67238005 25.80176792 183.77553371 25.80351744 178.87867546 25.8077755 C178.18169422 25.80837069 177.48471297 25.80896588 176.76661108 25.8095791 C175.35068914 25.81079085 173.93476719 25.81200499 172.51884525 25.81322148 C159.24097835 25.82409736 145.96313685 25.82193425 132.68526851 25.81583663 C120.53900455 25.81066698 108.39282078 25.82192409 96.24657268 25.84093485 C83.77330094 25.86030774 71.30006715 25.86857025 58.82678026 25.8648116 C51.82456762 25.86289877 44.82242323 25.86539503 37.82022285 25.87952614 C31.23665321 25.89267801 24.65321773 25.89018739 18.06963921 25.87711525 C15.65170615 25.87474373 13.23376187 25.87750462 10.81584167 25.88573837 C7.51839713 25.89615857 4.22149696 25.88814277 0.92407227 25.87542725 C-0.03555906 25.88280153 -0.99519038 25.89017582 -1.98390144 25.89777356 C-8.03820851 25.84856675 -12.59654772 25.14108022 -17.14320374 20.75120544 C-19.52759442 16.23341256 -19.67225378 12.68658501 -18.26820374 7.81370544 C-13.80918985 0.1902301 -8.05452257 -0.0799697 0 0 Z " fill="#000000" transform="translate(169.33070373535156,219.49879455566406)"/>
</svg>
