<?xml version="1.0" encoding="UTF-8"?>
<svg version="1.1" xmlns="http://www.w3.org/2000/svg" width="512" height="512">
<path d="M0 0 C0.66 0 1.32 0 2 0 C2.48202881 1.2176001 2.96405762 2.4352002 3.46069336 3.68969727 C5.95181203 9.98108734 8.44444997 16.27187503 10.9375 22.5625 C11.65773346 24.37988174 11.65773346 24.37988174 12.39251709 26.23397827 C20.07063974 45.60580711 27.77125477 64.96864973 35.48046875 84.328125 C36.16502419 86.04728528 36.16502419 86.04728528 36.86340904 87.80117607 C41.50253746 99.45160247 46.14237157 111.10174702 50.78431797 122.75105095 C52.5535696 127.19152538 54.32221504 131.63224111 56.0907383 136.07300568 C56.91982916 138.15442277 57.74919616 140.2357299 58.57886314 142.31691742 C61.06028406 148.54157142 63.53638598 154.76827496 66 161 C66.28155693 161.71149075 66.56311386 162.42298149 66.85320282 163.15603256 C67.58646889 165.01408868 68.31376217 166.87449891 69.04052734 168.73510742 C69.61956314 170.21559822 69.61956314 170.21559822 70.21029663 171.72599792 C71 174 71 174 71 176 C71.75393539 176.03669296 72.50787079 176.07338593 73.28465271 176.1111908 C105.88064193 177.72745573 138.44013112 179.94101244 171.00383317 182.09595048 C177.32673918 182.51423054 183.64979965 182.93013552 189.97290331 183.34541565 C197.63759314 183.84882822 205.30217669 184.35384454 212.96672893 184.85934711 C215.14124266 185.00265974 217.31577531 185.14568213 219.49031258 185.28863716 C223.54318656 185.5551727 227.59593926 185.82351176 231.64868164 186.09204102 C232.82846085 186.1694603 234.00824005 186.24687958 235.22377014 186.3266449 C242.48948515 186.8099023 249.74542514 187.37123866 257 188 C255.08399704 192.2760899 252.11178181 194.7472304 248.5625 197.6875 C247.93142334 198.21931885 247.30034668 198.7511377 246.65014648 199.29907227 C242.10833435 203.1152049 237.50734787 206.85820357 232.90234375 210.59765625 C228.77244783 214.01607616 224.73527988 217.53766778 220.69213867 221.05786133 C215.03600979 225.98000517 209.32240409 230.83064755 203.58837891 235.66162109 C200.91091047 237.91767427 198.23627043 240.17706606 195.5625 242.4375 C195.03011719 242.88738281 194.49773437 243.33726562 193.94921875 243.80078125 C190.50778995 246.71275946 187.08328959 249.64371267 183.66601562 252.58398438 C179.00818074 256.59165256 174.33696364 260.56841613 169.5625 264.4375 C164.45692535 268.58060991 159.50199947 272.8823045 154.54711914 277.20288086 C150.91262149 280.36465838 147.24479157 283.46850206 143.5 286.5 C137.19949905 291.60265121 131.10135845 296.93412794 124.99707031 302.26831055 C123.128755 303.88835462 121.25307281 305.49930337 119.37518311 307.10823059 C118.74351604 307.6494798 118.11184898 308.19072901 117.4610405 308.74837971 C116.97889713 309.1614144 116.49675377 309.5744491 116 310 C118.87593569 323.37661887 122.12031018 336.63725578 125.515625 349.890625 C126.05005653 351.98505096 126.58426104 354.07953486 127.11825562 356.17407227 C128.53426133 361.72515539 129.95377451 367.27533582 131.37403107 372.82533264 C132.54712104 377.41161737 133.71789626 381.99849167 134.88866615 386.58536911 C140.3233528 407.87634251 145.77258095 429.16351755 151.2734375 450.4375 C151.46691772 451.1859594 151.66039795 451.93441879 151.85974121 452.70555878 C153.77748466 460.12321346 155.69981063 467.53964508 157.62988281 474.95410156 C157.93407135 476.12610107 158.23825989 477.29810059 158.55166626 478.50561523 C159.10721736 480.64595847 159.66466689 482.7858103 160.22445679 484.92504883 C160.46185577 485.84084717 160.69925476 486.75664551 160.94384766 487.70019531 C161.14966461 488.48952454 161.35548157 489.27885376 161.5675354 490.09210205 C162 492 162 492 162 494 C156.98647587 492.30219302 152.79405461 489.47019409 148.375 486.625 C146.6641327 485.5337441 144.9531932 484.44260139 143.2421875 483.3515625 C142.37045898 482.7937207 141.49873047 482.23587891 140.60058594 481.66113281 C136.57726647 479.09122429 132.53836918 476.54616611 128.5 474 C126.91658146 473.00013493 125.33324837 472.00013452 123.75 471 C122.574375 470.2575 122.574375 470.2575 121.375 469.5 C38.25 417 38.25 417 35.87158203 415.49755859 C34.29998264 414.50515684 32.72804648 413.51328821 31.15576172 412.52197266 C27.01487313 409.91015985 22.88152099 407.28730604 18.7578125 404.6484375 C17.89865234 404.10058594 17.03949219 403.55273438 16.15429688 402.98828125 C14.51018996 401.93960765 12.8681407 400.88769858 11.22851562 399.83203125 C10.48537109 399.35894531 9.74222656 398.88585937 8.9765625 398.3984375 C8.32768066 397.98255371 7.67879883 397.56666992 7.01025391 397.13818359 C4.65697381 395.80578235 2.61924831 394.71873301 0 394 C-2.38813511 394.8076586 -2.38813511 394.8076586 -4.6328125 396.4453125 C-5.51155029 397.02168457 -6.39028809 397.59805664 -7.2956543 398.19189453 C-8.69618042 399.14878174 -8.69618042 399.14878174 -10.125 400.125 C-12.11293151 401.43802966 -14.10121885 402.75052074 -16.08984375 404.0625 C-17.58233643 405.06023437 -17.58233643 405.06023437 -19.10498047 406.078125 C-23.25436021 408.83271408 -27.46687434 411.48144801 -31.6875 414.125 C-33.24380579 415.1062695 -34.79979607 416.08803959 -36.35546875 417.0703125 C-37.12036621 417.55274414 -37.88526367 418.03517578 -38.67333984 418.53222656 C-42.61660245 421.01983357 -46.55820768 423.51006414 -50.5 426 C-52.0833256 427.00001224 -53.66665893 428.00001225 -55.25 429 C-56.03375 429.495 -56.8175 429.99 -57.625 430.5 C-102.75 459 -102.75 459 -105.12426758 460.49951172 C-106.71007325 461.50109035 -108.29584791 462.50271808 -109.8815918 463.50439453 C-113.80184757 465.98064184 -117.72261107 468.45607701 -121.64453125 470.9296875 C-122.79900757 471.65816895 -122.79900757 471.65816895 -123.97680664 472.40136719 C-125.52646277 473.37907435 -127.07642736 474.35629277 -128.62670898 475.33300781 C-133.10324487 478.15697557 -137.56504491 481.00246255 -142.015625 483.8671875 C-143.02197998 484.51316895 -144.02833496 485.15915039 -145.06518555 485.82470703 C-147.03522441 487.09014048 -149.00291307 488.35924164 -150.96801758 489.63232422 C-151.85642334 490.20225098 -152.7448291 490.77217773 -153.66015625 491.359375 C-154.45043213 491.86952148 -155.24070801 492.37966797 -156.05493164 492.90527344 C-158 494 -158 494 -160 494 C-157.27754847 482.27113658 -154.42145131 470.58203199 -151.46484375 458.91015625 C-151.02874115 457.18458232 -150.59272895 455.45898555 -150.15679932 453.73336792 C-148.99298849 449.12836344 -147.82720584 444.5238603 -146.66094589 439.91947556 C-145.93381306 437.04793982 -145.20735692 434.1762337 -144.48110962 431.30447388 C-139.14389531 410.20135121 -133.78281624 389.10457831 -128.359375 368.0234375 C-128.1374605 367.16062353 -127.915546 366.29780956 -127.68690681 365.40884972 C-125.57220537 357.18778333 -123.45473271 348.9674461 -121.32853889 340.74934387 C-120.55749263 337.76753932 -119.78834465 334.78524711 -119.01955414 331.80286026 C-118.66559384 330.43188087 -118.31069918 329.06114231 -117.95478058 327.69067001 C-117.47040291 325.8255442 -116.98939311 323.95954472 -116.50854492 322.09350586 C-116.23958908 321.0546373 -115.97063324 320.01576874 -115.69352722 318.94541931 C-114.98841542 315.95080013 -114.31546821 313.06270634 -114 310 C-115.90032301 307.39251735 -115.90032301 307.39251735 -118.75 305.1875 C-119.25370117 304.75864502 -119.75740234 304.32979004 -120.27636719 303.88793945 C-121.83439077 302.57041453 -123.41338807 301.28287766 -125 300 C-126.31484375 298.9171875 -126.31484375 298.9171875 -127.65625 297.8125 C-129.42688217 296.36186159 -131.20319461 294.91813578 -132.984375 293.48046875 C-136.54670222 290.55031618 -140.02470796 287.53237122 -143.5 284.5 C-147.78202781 280.76581042 -152.08332047 277.07540724 -156.5 273.5 C-161.58809206 269.38106834 -166.52003823 265.09852666 -171.453125 260.796875 C-175.08756499 257.63520769 -178.75529818 254.53142528 -182.5 251.5 C-187.53348541 247.42242873 -192.42333309 243.19494085 -197.30810547 238.94189453 C-202.96419371 234.01987908 -208.67768348 229.16927867 -214.41162109 224.33837891 C-217.08908953 222.08232573 -219.76372957 219.82293394 -222.4375 217.5625 C-222.96988281 217.11261719 -223.50226563 216.66273438 -224.05078125 216.19921875 C-226.89094272 213.7960052 -229.72235889 211.38317177 -232.54296875 208.95703125 C-233.43121338 208.19302002 -233.43121338 208.19302002 -234.33740234 207.41357422 C-235.51928774 206.39633279 -236.7006128 205.37843994 -237.88134766 204.35986328 C-242.49049547 200.39784138 -247.20449684 196.59005138 -251.98828125 192.83984375 C-254 191 -254 191 -255 188 C-155.4764709 181.27881688 -155.4764709 181.27881688 -111.77453613 178.38705444 C-108.51723424 178.1714818 -105.25999528 177.95499312 -102.00280762 177.73770142 C-98.21462402 177.4850484 -94.42631908 177.2343047 -90.63790512 176.98513031 C-88.62889001 176.85255296 -86.61999953 176.71809116 -84.6111145 176.58355713 C-82.82723831 176.46690704 -82.82723831 176.46690704 -81.00732422 176.34790039 C-79.98420135 176.28018936 -78.96107849 176.21247833 -77.9069519 176.14271545 C-74.93308896 175.99671503 -71.97694414 175.97533665 -69 176 C-68.8299089 175.39741206 -68.65981779 174.79482412 -68.48457241 174.17397594 C-66.65500274 167.86622659 -64.45712654 161.8032521 -61.99438477 155.71801758 C-61.60357224 154.74222748 -61.2127597 153.76643738 -60.81010437 152.76107788 C-59.52452993 149.55394427 -58.23292723 146.34927422 -56.94140625 143.14453125 C-56.03235885 140.87913562 -55.12375197 138.61356317 -54.21556091 136.3478241 C-51.82202176 130.37915774 -49.42363109 124.41245401 -47.02386475 118.44628906 C-42.76163367 107.84794343 -38.50701532 97.2465402 -34.25390625 86.64453125 C-33.79838253 85.50946325 -33.34285881 84.37439526 -32.87353134 83.20493126 C-26.16740964 66.48945141 -19.58159276 49.73418981 -13.12692261 32.92019653 C-10.5630262 26.27636726 -7.91105334 19.66787422 -5.25 13.0625 C-4.72638711 11.75853395 -4.20295103 10.4544969 -3.6796875 9.15039062 C-2.45482372 6.09957251 -1.22832739 3.04942478 0 0 Z M0 85 C-0.39486603 85.98716507 -0.78973206 86.97433014 -1.19656372 87.9914093 C-16.79770915 126.99427287 -32.39885457 165.99713643 -48 205 C-56.22895472 205.58633495 -64.45815935 206.16910769 -72.6875 206.75 C-73.94242249 206.83859283 -75.19734497 206.92718567 -76.49029541 207.01846313 C-91.65149909 208.0867059 -106.81399941 209.13024548 -121.98046875 210.12109375 C-122.67175306 210.1662701 -123.36303738 210.21144646 -124.0752697 210.25799179 C-131.45967139 210.74015835 -138.84434863 211.21789683 -146.22924805 211.69238281 C-147.47164749 211.77271255 -148.71404694 211.8530423 -149.99409485 211.93580627 C-152.29909858 212.08479258 -154.60417706 212.23262934 -156.90934753 212.37901306 C-163.61762625 212.81336345 -170.30854557 213.35627394 -177 214 C-173.30356211 218.97107165 -168.97840588 222.59227529 -164.15234375 226.453125 C-160.74419632 229.18480518 -157.4328598 232.02328629 -154.125 234.875 C-149.57744297 238.78877929 -145.02033126 242.69005614 -140.4375 246.5625 C-139.90527832 247.01222168 -139.37305664 247.46194336 -138.82470703 247.92529297 C-137.7528666 248.83068442 -136.68092674 249.73595817 -135.60888672 250.64111328 C-132.90427711 252.92546186 -130.20227873 255.21289508 -127.5 257.5 C-126.41667901 258.41668126 -125.33334568 259.33334793 -124.25 260.25 C-104.75 276.75 -104.75 276.75 -103.12255859 278.12719727 C-102.04753638 279.03674435 -100.9723432 279.94608939 -99.89697266 280.85522461 C-97.0599883 283.2541262 -94.22673026 285.6572607 -91.3984375 288.06640625 C-90.80869141 288.56785156 -90.21894531 289.06929687 -89.61132812 289.5859375 C-88.48132318 290.54688659 -87.35236044 291.50906304 -86.22460938 292.47265625 C-83.87844506 294.46585779 -81.56586635 296.28942243 -79 298 C-80.60674502 308.48796333 -83.37153542 318.69177874 -86.015625 328.953125 C-86.51437761 330.9000444 -87.01280477 332.8470472 -87.51092529 334.79412842 C-88.82037935 339.90871684 -90.13448656 345.02209865 -91.44952393 350.13525391 C-92.50684761 354.24942413 -93.56098943 358.36440609 -94.61489105 362.47945404 C-95.64210664 366.49005695 -96.67036281 370.50039269 -97.69874573 374.51069641 C-98.20032421 376.46708481 -98.70165813 378.42353591 -99.20274353 380.38005066 C-103.7373856 398.08232395 -103.7373856 398.08232395 -106.10742188 406.84570312 C-106.54740509 408.48161407 -106.54740509 408.48161407 -106.99627686 410.15057373 C-107.50655741 412.03643715 -108.02465863 413.9202141 -108.55303955 415.80108643 C-109.58360749 419.61129234 -110.17972616 422.22207519 -109 426 C-108.52393311 425.69932617 -108.04786621 425.39865234 -107.55737305 425.08886719 C-47.25 387 -47.25 387 -44.8737793 385.49926758 C-43.29446854 384.5017825 -41.71520402 383.50422421 -40.13598633 382.5065918 C-36.11648855 379.96750329 -32.09613233 377.42979166 -28.07421875 374.89453125 C-27.26355957 374.38293457 -26.45290039 373.87133789 -25.61767578 373.34423828 C-24.01461303 372.33382883 -22.41014826 371.32563987 -20.80419922 370.31982422 C-17.11281204 368.00140115 -13.45926992 365.65149265 -9.87109375 363.17578125 C-9.23469971 362.74354248 -8.59830566 362.31130371 -7.94262695 361.8659668 C-6.24667483 360.70807228 -4.56417517 359.5305421 -2.8828125 358.3515625 C0 357 0 357 2.34375 357.4375 C6.15389048 359.6787591 9.90812394 361.98190131 13.625 364.375 C15.3358673 365.4662559 17.0468068 366.55739861 18.7578125 367.6484375 C19.62954102 368.2062793 20.50126953 368.76412109 21.39941406 369.33886719 C25.42273353 371.90877571 29.46163082 374.45383389 33.5 377 C35.08341854 377.99986507 36.66675163 378.99986548 38.25 380 C39.425625 380.7425 39.425625 380.7425 40.625 381.5 C43 383 45.375 384.5 47.75 386 C48.5335083 386.49483887 49.3170166 386.98967773 50.12426758 387.49951172 C51.71007325 388.50109035 53.29584791 389.50271808 54.8815918 390.50439453 C58.80184757 392.98064184 62.72261107 395.45607701 66.64453125 397.9296875 C68.20053308 398.91143892 69.75652263 399.89320981 71.3125 400.875 C72.08126465 401.35976807 72.8500293 401.84453613 73.64208984 402.34399414 C78.02718455 405.11212471 82.40268537 407.89456444 86.76953125 410.69140625 C87.7443042 411.3148291 88.71907715 411.93825195 89.72338867 412.58056641 C91.60132013 413.78237934 93.47787897 414.98634094 95.3527832 416.19287109 C100.79560826 419.67421281 106.31005722 422.93851633 112 426 C111.31668036 417.97390056 109.15801714 410.31162959 107.1328125 402.54296875 C106.7373254 401.01092746 106.34229035 399.47876942 105.94767761 397.94650269 C105.11132329 394.70269732 104.27194129 391.45969724 103.43008423 388.21731567 C102.12158821 383.17738924 100.82032136 378.13561456 99.52026367 373.09350586 C97.80599409 366.44740314 96.08922392 359.80195341 94.36962891 353.15722656 C91.57638132 342.36375086 88.78471988 331.56988091 86.00994873 320.77163696 C85.32562286 318.11347381 84.63684946 315.45649054 83.94775391 312.79956055 C83.54437835 311.23231521 83.14120542 309.6650177 82.73828125 308.09765625 C82.55798874 307.40751434 82.37769623 306.71737244 82.19194031 306.00631714 C81.48521088 303.24071071 81 300.8701174 81 298 C82.87890625 296.1953125 82.87890625 296.1953125 85.5625 294.125 C90.32043974 290.36518661 94.93746983 286.49453462 99.5 282.5 C104.65751031 278.00140431 109.88161892 273.61000659 115.19921875 269.30078125 C119.07166793 266.11964796 122.86728783 262.85246445 126.66601562 259.58398438 C132.2141872 254.81025769 137.79874354 250.08068993 143.39111328 245.35888672 C145.5532069 243.53275423 147.71359805 241.7046147 149.8737793 239.8762207 C150.9544245 238.96170382 152.0353149 238.04747659 153.11645508 237.13354492 C155.87924672 234.79765816 158.63812039 232.45737836 161.390625 230.109375 C166.98582557 225.34396085 172.60704854 220.65575172 178.48828125 216.2421875 C178.98714844 215.83226562 179.48601562 215.42234375 180 215 C180 214.67 180 214.34 180 214 C178.75481598 213.91674469 177.50963196 213.83348938 176.22671509 213.74771118 C164.37350869 212.95501259 152.52039563 212.16093063 140.66736794 211.36556435 C134.57662993 210.95690413 128.48586233 210.54869708 122.39501953 210.14160156 C116.49451571 209.74720977 110.59409954 209.35152862 104.69373703 208.95502853 C102.4656405 208.80551516 100.23751503 208.65643243 98.00935745 208.50783157 C81.99801082 207.4395883 65.99751648 206.25854902 50 205 C34 165 18 125 2 85 C1.34 85 0.68 85 0 85 Z " fill="#000000" transform="translate(255,9)"/>
</svg>
