<svg width="21" height="20" viewBox="0 0 21 20" fill="none" xmlns="http://www.w3.org/2000/svg">
<path d="M12.8551 7.50001L12.5668 15M8.57678 15L8.28844 7.50001M16.5951 4.82501C16.8801 4.86834 17.1634 4.91417 17.4468 4.96334M16.5951 4.82501L15.7051 16.3942C15.6688 16.8652 15.456 17.3051 15.1093 17.626C14.7626 17.9469 14.3075 18.1251 13.8351 18.125H7.30844C6.83602 18.1251 6.38096 17.9469 6.03426 17.626C5.68756 17.3051 5.47477 16.8652 5.43844 16.3942L4.54844 4.82501M16.5951 4.82501C15.6333 4.6796 14.6666 4.56925 13.6968 4.49417M4.54844 4.82501C4.26344 4.86751 3.98011 4.91334 3.69678 4.96251M4.54844 4.82501C5.51022 4.67961 6.47697 4.56926 7.44678 4.49417M13.6968 4.49417V3.73084C13.6968 2.74751 12.9384 1.92751 11.9551 1.89667C11.0331 1.86721 10.1104 1.86721 9.18844 1.89667C8.20511 1.92751 7.44678 2.74834 7.44678 3.73084V4.49417M13.6968 4.49417C11.6165 4.33341 9.52701 4.33341 7.44678 4.49417" stroke="#6A717F" stroke-width="1.5" stroke-linecap="round" stroke-linejoin="round"/>
</svg>
