<?xml version="1.0" encoding="UTF-8"?>
<svg version="1.1" xmlns="http://www.w3.org/2000/svg" width="512" height="512">
<path d="M0 0 C1.01823853 0.00215515 2.03647705 0.0043103 3.08557129 0.00653076 C17.7097884 0.05623391 32.00304638 0.37042012 46.375 3.3125 C47.37160645 3.50585938 48.36821289 3.69921875 49.39501953 3.8984375 C90.07517094 11.93647321 128.21678434 28.98564078 160.375 55.3125 C162.10369779 58.76989557 161.86466895 62.53225568 161.375 66.3125 C159.58106332 69.18279869 158.39236724 70.80381638 155.375 72.3125 C147.85567555 73.22868553 144.22361517 70.80178067 138.3125 66.375 C136.62985055 65.17133266 134.94492934 63.97083509 133.2578125 62.7734375 C132.01692871 61.88543457 132.01692871 61.88543457 130.75097656 60.97949219 C81.30514767 26.28815231 17.79398126 15.10727828 -41.10546875 25.09375 C-96.28927789 35.06937877 -149.38903128 65.37023011 -183.625 110.3125 C-184.0590918 110.88081543 -184.49318359 111.44913086 -184.94042969 112.03466797 C-206.73913372 140.72078618 -222.07699788 173.02835439 -229.625 208.3125 C-229.83527832 209.28300293 -230.04555664 210.25350586 -230.26220703 211.25341797 C-233.41101385 226.53373229 -234.01164781 241.64154852 -234.0625 257.1875 C-234.07189606 258.5270575 -234.07189606 258.5270575 -234.08148193 259.89367676 C-234.15939725 277.44924795 -232.17569774 294.63094064 -227.9375 311.6875 C-227.55621948 313.23848389 -227.55621948 313.23848389 -227.16723633 314.82080078 C-215.51929972 360.66646566 -191.0146326 397.38732906 -157.625 430.3125 C-156.07600055 427.40597872 -155.01002345 424.56281088 -154.06640625 421.41015625 C-147.94528836 401.61511718 -139.60873968 383.55904286 -126.625 367.3125 C-126.16512695 366.7345166 -125.70525391 366.1565332 -125.23144531 365.56103516 C-102.9864752 337.93178826 -73.79185461 319.70392797 -39.625 310.3125 C-38.7592334 310.0738623 -37.8934668 309.83522461 -37.00146484 309.58935547 C-12.90228049 303.32067358 16.41370934 303.70787103 40.375 310.3125 C41.81093506 310.70719482 41.81093506 310.70719482 43.27587891 311.10986328 C63.73883332 316.94651226 82.71674131 325.99972963 99.375 339.3125 C99.9529834 339.77237305 100.5309668 340.23224609 101.12646484 340.70605469 C128.33843661 362.61506657 145.60445902 390.63275206 155.58813477 423.98852539 C156.34481715 426.22335618 157.2666942 428.23289023 158.375 430.3125 C170.46734343 418.6911692 181.7348822 407.05865731 191.375 393.3125 C191.80925293 392.70696289 192.24350586 392.10142578 192.69091797 391.47753906 C204.8180702 374.51161126 214.40814978 355.95033395 221.375 336.3125 C221.65037598 335.53874023 221.92575195 334.76498047 222.20947266 333.96777344 C225.45205769 324.68369935 227.98462941 315.28366768 230.125 305.6875 C230.32375732 304.80666748 230.52251465 303.92583496 230.72729492 303.01831055 C233.97347816 287.73077723 234.7850613 272.51976884 234.75 256.9375 C234.74945618 256.02140961 234.74891235 255.10531921 234.74835205 254.16146851 C234.63429064 212.16359967 223.55450666 171.53939758 202.04296875 135.34765625 C200.01414275 131.65585811 199.83629089 129.46825598 200.375 125.3125 C201.62955972 122.48974064 202.65884722 120.84961459 205.125 119 C208.87064718 117.85549669 212.52344798 117.78294861 216.30078125 118.86328125 C219.53599009 121.12366257 221.15476225 124.38220896 223.0625 127.75 C223.49747803 128.50861328 223.93245605 129.26722656 224.38061523 130.04882812 C237.65088245 153.56124789 246.93300327 178.87454979 252.375 205.3125 C252.58527832 206.31361816 252.79555664 207.31473633 253.01220703 208.34619141 C258.95272866 238.01117157 259.58890238 272.64432637 253.375 302.3125 C253.07698486 303.77478027 253.07698486 303.77478027 252.77294922 305.26660156 C242.9091358 352.42080175 221.88745417 395.54154351 188.78515625 430.69140625 C186.36354452 433.26092207 186.36354452 433.26092207 184.28125 435.953125 C182.56660596 438.07534837 180.89361761 439.75150162 178.8125 441.5 C175.58077402 444.25141441 172.47002084 447.0958 169.375 450 C136.12182324 480.19278824 93.70139326 499.6669231 49.9375 508.625 C49.21860596 508.77235596 48.49971191 508.91971191 47.7590332 509.0715332 C33.08339502 511.86090125 18.55831162 512.66142619 3.64770508 512.62817383 C0.70811513 512.6250221 -2.2304558 512.64854926 -5.16992188 512.67382812 C-18.54306192 512.71848737 -31.43916711 511.51301542 -44.625 509.3125 C-46.33055054 509.03031616 -46.33055054 509.03031616 -48.07055664 508.74243164 C-50.6662622 508.27617402 -53.23774939 507.7574418 -55.8125 507.1875 C-57.20142456 506.88054199 -57.20142456 506.88054199 -58.6184082 506.56738281 C-101.81787364 496.52249509 -141.64439095 475.17908436 -173.90625 444.8203125 C-175.82820503 443.04747467 -177.74177239 441.37306591 -179.76171875 439.72265625 C-182.07697173 437.77380074 -184.00301185 435.92939028 -185.9375 433.625 C-188.49457821 430.61568744 -191.12156708 427.70258138 -193.8125 424.8125 C-223.21842707 392.06725579 -242.23635664 350.92250253 -251.375 308.125 C-251.57383789 307.20017822 -251.77267578 306.27535645 -251.97753906 305.32250977 C-255.26941382 289.1158142 -256.00030274 273.18212039 -255.9375 256.6875 C-255.93534485 255.66926147 -255.9331897 254.65102295 -255.93096924 253.60192871 C-255.88126609 238.9777116 -255.56707988 224.68445362 -252.625 210.3125 C-252.33496094 208.81759033 -252.33496094 208.81759033 -252.0390625 207.29248047 C-242.86144882 160.84497419 -221.82128348 119.68309046 -190.625 84.3125 C-190.15674805 83.78108398 -189.68849609 83.24966797 -189.20605469 82.70214844 C-184.28310387 77.14830822 -179.31504 71.76212344 -173.609375 66.9921875 C-172.23269459 65.82688716 -170.8905172 64.62006774 -169.578125 63.3828125 C-157.05275411 51.59168749 -142.67653893 41.59934051 -127.625 33.3125 C-126.78485352 32.84602051 -125.94470703 32.37954102 -125.07910156 31.89892578 C-111.65665332 24.50351315 -98.1507404 18.21136617 -83.625 13.3125 C-82.40248535 12.89943604 -82.40248535 12.89943604 -81.15527344 12.47802734 C-71.38442323 9.23994494 -61.50281263 6.70764527 -51.4375 4.5625 C-50.51283936 4.36374268 -49.58817871 4.16498535 -48.63549805 3.96020508 C-32.42888823 0.66750973 -16.4946298 -0.06280278 0 0 Z M-103.02734375 371.70703125 C-120.46431979 390.18593556 -137.2303173 419.91857968 -137.66796875 445.859375 C-135.9661636 449.86212268 -132.56845308 451.43447343 -128.9375 453.625 C-128.16293457 454.10573975 -127.38836914 454.58647949 -126.59033203 455.08178711 C-124.2778846 456.50799441 -121.95219595 457.91053763 -119.625 459.3125 C-118.47996889 460.02523926 -117.33538387 460.73869607 -116.19140625 461.453125 C-64.14760178 492.79406968 0.8888235 499.09754151 59.18701172 484.77978516 C86.30930331 477.81919705 112.05854616 466.29291793 135 450.16015625 C135.97066406 449.47771851 135.97066406 449.47771851 136.9609375 448.78149414 C138.80194266 447.18537097 138.80194266 447.18537097 138.625 443.4375 C138.24991593 441.71955768 137.82614549 440.01205336 137.375 438.3125 C137.14167969 437.1678125 136.90835937 436.023125 136.66796875 434.84375 C129.05065063 400.06147547 106.91798515 368.28756019 76.96337891 349.03808594 C58.37927056 337.49927247 38.23705274 329.58656695 16.375 327.3125 C14.49167969 327.11140625 14.49167969 327.11140625 12.5703125 326.90625 C-31.77903168 322.88853938 -72.02346108 340.80397421 -103.02734375 371.70703125 Z " fill="#000000" transform="translate(255.625,-0.3125)"/>
<path d="M0 0 C2.4326433 1.91056917 4.75364666 3.90013189 7.06640625 5.953125 C8.071875 6.74589844 8.071875 6.74589844 9.09765625 7.5546875 C24.92395041 20.30364668 35.37692769 40.98391777 38.06640625 60.953125 C40.19360372 85.61095037 36.61650695 109.57429039 21.00390625 129.453125 C19.70140416 130.96181468 18.38957864 132.4625308 17.06640625 133.953125 C16.53789062 134.6234375 16.009375 135.29375 15.46484375 135.984375 C2.71588457 151.81066916 -17.96438652 162.26364644 -37.93359375 164.953125 C-62.59141912 167.08032247 -86.55475914 163.5032257 -106.43359375 147.890625 C-107.94228343 146.58812291 -109.44299955 145.27629739 -110.93359375 143.953125 C-111.60390625 143.42460937 -112.27421875 142.89609375 -112.96484375 142.3515625 C-128.79113791 129.60260332 -139.24411519 108.92233223 -141.93359375 88.953125 C-144.06079122 64.29529963 -140.48369445 40.33195961 -124.87109375 20.453125 C-123.56859166 18.94443532 -122.25676614 17.4437192 -120.93359375 15.953125 C-120.40507812 15.2828125 -119.8765625 14.6125 -119.33203125 13.921875 C-91.27616577 -20.90609594 -35.55651168 -24.80907073 0 0 Z M-96.18359375 21.390625 C-97.7731437 22.90495965 -99.3570071 24.42529876 -100.93359375 25.953125 C-101.56007813 26.49453125 -102.1865625 27.0359375 -102.83203125 27.59375 C-113.10323364 36.79600373 -120.0837583 52.67434335 -121.1105957 66.30224609 C-121.6162952 86.30860465 -119.2764684 103.6929872 -105.43359375 119.328125 C-103.94162897 120.87756916 -102.44228792 122.41996552 -100.93359375 123.953125 C-100.39347656 124.57703125 -99.85335937 125.2009375 -99.296875 125.84375 C-87.85860934 138.63616801 -69.6457751 143.88822506 -53.06640625 144.8984375 C-36.73940694 145.31707851 -20.07600988 139.43711411 -7.80859375 128.703125 C-6.16707244 127.13692666 -4.54180702 125.55350606 -2.93359375 123.953125 C-2.16015625 123.21449219 -1.38671875 122.47585937 -0.58984375 121.71484375 C12.76196408 108.11154639 17.59796409 90.88007902 17.48657227 72.23999023 C16.99525295 53.81944017 9.93690556 39.03233511 -2.93359375 25.953125 C-3.74376953 25.01726562 -3.74376953 25.01726562 -4.5703125 24.0625 C-16.00857816 11.27008199 -34.2214124 6.01802494 -50.80078125 5.0078125 C-67.21761482 4.58686805 -83.93142648 10.50803534 -96.18359375 21.390625 Z " fill="#000000" transform="translate(307.93359375,121.046875)"/>
<path d="M0 0 C3.125 1.875 3.125 1.875 5 5 C5.98876625 10.02622846 5.7769173 13.70513784 3.125 18.125 C-1.29486216 20.7769173 -4.97377154 20.98876625 -10 20 C-13.125 18.125 -13.125 18.125 -15 15 C-15.98876625 9.97377154 -15.7769173 6.29486216 -13.125 1.875 C-8.70513784 -0.7769173 -5.02622846 -0.98876625 0 0 Z " fill="#000000" transform="translate(445,82)"/>
</svg>
