<svg width="31" height="30" viewBox="0 0 31 30" fill="none" xmlns="http://www.w3.org/2000/svg">
<path d="M28 11.25V18.75C28 21.875 27.375 24.0625 25.975 25.475L18 17.5L27.6625 7.83749C27.8875 8.82499 28 9.94999 28 11.25Z" stroke="#1E2021" stroke-width="1.75" stroke-linecap="round" stroke-linejoin="round"/>
<path d="M27.6625 7.83751L8.33749 27.1625C4.57499 26.3 3 23.7 3 18.75V11.25C3 5 5.5 2.5 11.75 2.5H19.25C24.2 2.5 26.8 4.07501 27.6625 7.83751Z" stroke="#1E2021" stroke-width="1.75" stroke-linecap="round" stroke-linejoin="round"/>
<path d="M25.9749 25.475C24.5624 26.875 22.3749 27.5 19.2499 27.5H11.7499C10.4499 27.5 9.3249 27.3875 8.3374 27.1625L17.9999 17.5L25.9749 25.475Z" stroke="#1E2021" stroke-width="1.75" stroke-linecap="round" stroke-linejoin="round"/>
<path d="M8.30008 9.97499C9.15008 6.31249 14.6501 6.31249 15.5001 9.97499C15.9876 12.125 14.6376 13.95 13.4501 15.075C12.5876 15.9 11.2251 15.9 10.3501 15.075C9.1626 13.95 7.80008 12.125 8.30008 9.97499Z" stroke="#1E2021" stroke-width="1.75"/>
<path d="M11.8681 10.875H11.8794" stroke="#1E2021" stroke-width="1.75" stroke-linecap="round" stroke-linejoin="round"/>
</svg>
