<svg width="31" height="30" viewBox="0 0 31 30" fill="none" xmlns="http://www.w3.org/2000/svg">
<path d="M4.26245 14.025V19.6375C4.26245 25.25 6.51245 27.5 12.125 27.5H18.8625C24.475 27.5 26.725 25.25 26.725 19.6375V14.025" stroke="#1E2021" stroke-width="1.75" stroke-linecap="round" stroke-linejoin="round"/>
<path d="M15.5001 15C17.7876 15 19.4751 13.1375 19.2501 10.85L18.4251 2.5H12.5876L11.7501 10.85C11.5251 13.1375 13.2126 15 15.5001 15Z" stroke="#1E2021" stroke-width="1.75" stroke-linecap="round" stroke-linejoin="round"/>
<path d="M23.3875 15C25.9125 15 27.7625 12.95 27.5125 10.4375L27.1625 7C26.7125 3.75 25.4625 2.5 22.1875 2.5H18.375L19.25 11.2625C19.4625 13.325 21.325 15 23.3875 15Z" stroke="#1E2021" stroke-width="1.75" stroke-linecap="round" stroke-linejoin="round"/>
<path d="M7.54997 15C9.61247 15 11.475 13.325 11.675 11.2625L11.95 8.5L12.55 2.5H8.73748C5.46248 2.5 4.21248 3.75 3.76248 7L3.42498 10.4375C3.17498 12.95 5.02498 15 7.54997 15Z" stroke="#1E2021" stroke-width="1.75" stroke-linecap="round" stroke-linejoin="round"/>
<path d="M15.5 21.25C13.4125 21.25 12.375 22.2875 12.375 24.375V27.5H18.625V24.375C18.625 22.2875 17.5875 21.25 15.5 21.25Z" stroke="#1E2021" stroke-width="1.75" stroke-linecap="round" stroke-linejoin="round"/>
</svg>
