<svg width="358" height="88" viewBox="0 0 358 88" fill="none" xmlns="http://www.w3.org/2000/svg">
<path d="M356.792 6.40303C357.066 6.44296 357.319 6.25382 357.359 5.98058C357.399 5.70734 357.21 5.45347 356.937 5.41354L356.865 5.90828L356.792 6.40303ZM0.388184 82.1939L0.300351 82.6861C42.5941 90.2331 72.6752 87.2755 97.3571 79.0584C122.021 70.8472 141.266 57.3893 161.851 44.025C182.446 30.6546 204.417 17.3503 234.611 9.33334C264.804 1.31638 303.253 -1.42127 356.792 6.40303L356.865 5.90828L356.937 5.41354C303.294 -2.42579 264.705 0.307883 234.354 8.36683C204.002 16.4258 181.922 29.802 161.307 43.1863C140.681 56.5768 121.557 69.9479 97.0413 78.1096C72.5435 86.2654 42.6346 89.2245 0.476017 81.7017L0.388184 82.1939Z" fill="#1A202C"/>
</svg>
