<svg width="25" height="24" viewBox="0 0 25 24" fill="none" xmlns="http://www.w3.org/2000/svg">
<path fill-rule="evenodd" clip-rule="evenodd" d="M12.5 0C5.87259 0 0.5 5.37259 0.5 12C0.5 18.6274 5.87259 24 12.5 24C19.1274 24 24.5 18.6274 24.5 12C24.5 5.37259 19.1274 0 12.5 0ZM16.9906 7.50946C17.2201 7.73902 17.3003 8.07861 17.1977 8.38659L14.0366 17.8699C13.9307 18.1874 13.6497 18.4143 13.3169 18.4509C12.9842 18.4874 12.6606 18.3267 12.4884 18.0398L10.2279 14.2722L6.46026 12.0116C6.17322 11.8394 6.01271 11.5158 6.04925 11.1831C6.08576 10.8503 6.31265 10.5693 6.63022 10.4635L16.1134 7.30239C16.4214 7.19973 16.761 7.27989 16.9906 7.50946Z" fill="white"/>
</svg>
