<svg width="26" height="26" viewBox="0 0 26 26" fill="none" xmlns="http://www.w3.org/2000/svg">
<mask id="path-1-inside-1_229_646" fill="white">
<path d="M20.013 19.8099H8.33462C7.24903 19.8099 6.20729 19.3457 5.4726 18.5389C4.7379 17.7321 4.36508 16.649 4.4528 15.5548L5.36295 4.54708C5.39585 4.20447 5.27522 3.87291 5.04494 3.61872C4.81466 3.36452 4.49666 3.23189 4.15673 3.23189H2.25968C1.81009 3.23189 1.43726 2.85613 1.43726 2.40299C1.43726 1.94986 1.81009 1.5741 2.25968 1.5741H4.1677C4.96819 1.5741 5.72481 1.9167 6.26212 2.50246C6.55819 2.83402 6.77751 3.22085 6.89813 3.65187H20.5942C21.7017 3.65187 22.7215 4.09395 23.4672 4.88969C24.2019 5.69648 24.5747 6.74643 24.487 7.86267L23.8948 16.1517C23.7742 18.1742 22.0197 19.8099 20.013 19.8099ZM6.95296 5.29861L6.09764 15.6875C6.04282 16.3285 6.25116 16.9363 6.67882 17.4116C7.10648 17.8868 7.69862 18.141 8.33462 18.141H20.013C21.1534 18.141 22.1842 17.1684 22.2719 16.019L22.8641 7.73006C22.9079 7.07799 22.6996 6.45908 22.2719 6.00595C21.8443 5.54177 21.2521 5.28754 20.6052 5.28754H6.95296V5.29861Z"/>
</mask>
<path d="M4.4528 15.5548L2.70875 15.4106L2.7084 15.415L4.4528 15.5548ZM5.36295 4.54708L3.62096 4.37982L3.61986 4.39134L3.6189 4.40288L5.36295 4.54708ZM6.26212 2.50246L7.56744 1.33685L7.55965 1.32812L7.55173 1.31949L6.26212 2.50246ZM6.89813 3.65187L5.21288 4.12349L5.57063 5.40187H6.89813V3.65187ZM23.4672 4.88969L24.7611 3.71142L24.7527 3.70219L24.7442 3.69309L23.4672 4.88969ZM24.487 7.86267L22.7423 7.72556L22.7414 7.73798L24.487 7.86267ZM23.8948 16.1517L22.1493 16.027L22.1486 16.0372L22.1479 16.0475L23.8948 16.1517ZM6.95296 5.29861L8.69706 5.4422L8.70296 5.37053V5.29861H6.95296ZM6.09764 15.6875L7.84129 15.8366L7.84174 15.8311L6.09764 15.6875ZM22.2719 16.019L24.0169 16.1522L24.0175 16.1437L22.2719 16.019ZM22.8641 7.73006L24.6096 7.85475L24.6101 7.84751L22.8641 7.73006ZM22.2719 6.00595L20.9849 7.19172L20.992 7.19945L20.9992 7.2071L22.2719 6.00595ZM6.95296 5.28754V3.53755H5.20296V5.28754H6.95296ZM20.013 19.8099V18.0599H8.33462V19.8099V21.5599H20.013V19.8099ZM8.33462 19.8099V18.0599C7.74713 18.0599 7.17333 17.8074 6.7665 17.3606L5.4726 18.5389L4.1787 19.7172C5.24125 20.884 6.75092 21.5599 8.33462 21.5599V19.8099ZM5.4726 18.5389L6.7665 17.3606C6.35693 16.9109 6.1483 16.3046 6.1972 15.6947L4.4528 15.5548L2.7084 15.415C2.58185 16.9933 3.11887 18.5533 4.1787 19.7172L5.4726 18.5389ZM4.4528 15.5548L6.19685 15.699L7.107 4.69128L5.36295 4.54708L3.6189 4.40288L2.70875 15.4106L4.4528 15.5548ZM5.36295 4.54708L7.10494 4.71434C7.18845 3.84457 6.87684 3.03432 6.34189 2.4438L5.04494 3.61872L3.74799 4.79364C3.67359 4.71151 3.60324 4.56437 3.62096 4.37982L5.36295 4.54708ZM5.04494 3.61872L6.34189 2.4438C5.76172 1.80339 4.96309 1.48189 4.15673 1.48189V3.23189V4.98189C4.03022 4.98189 3.86759 4.92566 3.74799 4.79364L5.04494 3.61872ZM4.15673 3.23189V1.48189H2.25968V3.23189V4.98189H4.15673V3.23189ZM2.25968 3.23189V1.48189C2.7895 1.48189 3.18726 1.9026 3.18726 2.40299H1.43726H-0.312744C-0.312744 3.80966 0.830672 4.98189 2.25968 4.98189V3.23189ZM1.43726 2.40299H3.18726C3.18726 2.90339 2.7895 3.3241 2.25968 3.3241V1.5741V-0.175903C0.830672 -0.175903 -0.312744 0.996333 -0.312744 2.40299H1.43726ZM2.25968 1.5741V3.3241H4.1677V1.5741V-0.175903H2.25968V1.5741ZM4.1677 1.5741V3.3241C4.46495 3.3241 4.75781 3.45137 4.97251 3.68542L6.26212 2.50246L7.55173 1.31949C6.6918 0.38204 5.47144 -0.175903 4.1677 -0.175903V1.5741ZM6.26212 2.50246L4.9568 3.66807C5.08646 3.81326 5.16879 3.96595 5.21288 4.12349L6.89813 3.65187L8.58338 3.18026C8.38623 2.47574 8.02993 1.85477 7.56744 1.33685L6.26212 2.50246ZM6.89813 3.65187V5.40187H20.5942V3.65187V1.90187H6.89813V3.65187ZM20.5942 3.65187V5.40187C21.2218 5.40187 21.7781 5.64647 22.1902 6.08629L23.4672 4.88969L24.7442 3.69309C23.665 2.54142 22.1817 1.90187 20.5942 1.90187V3.65187ZM23.4672 4.88969L22.1733 6.06796C22.5879 6.5233 22.7916 7.09916 22.7424 7.72557L24.487 7.86267L26.2316 7.99978C26.3578 6.39369 25.8158 4.86966 24.7611 3.71142L23.4672 4.88969ZM24.487 7.86267L22.7414 7.73798L22.1493 16.027L23.8948 16.1517L25.6404 16.2764L26.2325 7.98737L24.487 7.86267ZM23.8948 16.1517L22.1479 16.0475C22.0827 17.1407 21.0986 18.0599 20.013 18.0599V19.8099V21.5599C22.9408 21.5599 25.4657 19.2076 25.6417 16.2558L23.8948 16.1517ZM6.95296 5.29861L5.20886 5.15502L4.35355 15.5439L6.09764 15.6875L7.84174 15.8311L8.69706 5.4422L6.95296 5.29861ZM6.09764 15.6875L4.35401 15.5383C4.25735 16.6685 4.63125 17.7524 5.37799 18.5822L6.67882 17.4116L7.97966 16.241C7.87107 16.1203 7.82829 15.9885 7.84128 15.8366L6.09764 15.6875ZM6.67882 17.4116L5.37799 18.5822C6.14863 19.4386 7.21934 19.891 8.33462 19.891V18.141V16.391C8.1779 16.391 8.06433 16.335 7.97966 16.241L6.67882 17.4116ZM8.33462 18.141V19.891H20.013V18.141V16.391H8.33462V18.141ZM20.013 18.141V19.891C22.0921 19.891 23.8613 18.1898 24.0169 16.1522L22.2719 16.019L20.527 15.8859C20.5199 15.9795 20.4665 16.1157 20.3382 16.2364C20.2098 16.3572 20.0834 16.391 20.013 16.391V18.141ZM22.2719 16.019L24.0175 16.1437L24.6096 7.85475L22.8641 7.73006L21.1185 7.60536L20.5264 15.8943L22.2719 16.019ZM22.8641 7.73006L24.6101 7.84751C24.684 6.74911 24.3333 5.64048 23.5446 4.8048L22.2719 6.00595L20.9992 7.2071C21.0659 7.27769 21.1319 7.40687 21.118 7.6126L22.8641 7.73006ZM22.2719 6.00595L23.559 4.82018C22.7887 3.98412 21.7242 3.53755 20.6052 3.53755V5.28754V7.03755C20.78 7.03755 20.8999 7.09941 20.9849 7.19172L22.2719 6.00595ZM20.6052 5.28754V3.53755H6.95296V5.28754V7.03755H20.6052V5.28754ZM6.95296 5.28754H5.20296V5.29861H6.95296H8.70296V5.28754H6.95296Z" fill="#201613" mask="url(#path-1-inside-1_229_646)"/>
<mask id="path-3-inside-2_229_646" fill="white">
<path d="M17.8858 25.3359C16.6795 25.3359 15.6926 24.3412 15.6926 23.1255C15.6926 21.9098 16.6795 20.9151 17.8858 20.9151C19.092 20.9151 20.0789 21.9098 20.0789 23.1255C20.0789 24.3412 19.092 25.3359 17.8858 25.3359ZM17.8858 22.5729C17.5787 22.5729 17.3375 22.816 17.3375 23.1255C17.3375 23.435 17.5787 23.6781 17.8858 23.6781C18.1928 23.6781 18.434 23.435 18.434 23.1255C18.434 22.816 18.1928 22.5729 17.8858 22.5729Z"/>
</mask>
<path d="M17.8858 25.3359V23.5859C17.6589 23.5859 17.4426 23.3877 17.4426 23.1255H15.6926H13.9426C13.9426 25.2947 15.7001 27.0859 17.8858 27.0859V25.3359ZM15.6926 23.1255H17.4426C17.4426 22.8633 17.6589 22.6651 17.8858 22.6651V20.9151V19.1651C15.7001 19.1651 13.9426 20.9562 13.9426 23.1255H15.6926ZM17.8858 20.9151V22.6651C18.1126 22.6651 18.3289 22.8633 18.3289 23.1255H20.0789H21.8289C21.8289 20.9562 20.0714 19.1651 17.8858 19.1651V20.9151ZM20.0789 23.1255H18.3289C18.3289 23.3877 18.1126 23.5859 17.8858 23.5859V25.3359V27.0859C20.0714 27.0859 21.8289 25.2947 21.8289 23.1255H20.0789ZM17.8858 22.5729V20.8229C16.5993 20.8229 15.5875 21.8625 15.5875 23.1255H17.3375H19.0875C19.0875 23.7696 18.5581 24.3229 17.8858 24.3229V22.5729ZM17.3375 23.1255H15.5875C15.5875 24.3885 16.5993 25.4281 17.8858 25.4281V23.6781V21.9281C18.5581 21.9281 19.0875 22.4814 19.0875 23.1255H17.3375ZM17.8858 23.6781V25.4281C19.1722 25.4281 20.184 24.3885 20.184 23.1255H18.434H16.684C16.684 22.4814 17.2134 21.9281 17.8858 21.9281V23.6781ZM18.434 23.1255H20.184C20.184 21.8625 19.1722 20.8229 17.8858 20.8229V22.5729V24.3229C17.2134 24.3229 16.684 23.7696 16.684 23.1255H18.434Z" fill="#201613" mask="url(#path-3-inside-2_229_646)"/>
<mask id="path-5-inside-3_229_646" fill="white">
<path d="M9.11329 25.3359C7.90707 25.3359 6.92017 24.3412 6.92017 23.1255C6.92017 21.9098 7.90707 20.9151 9.11329 20.9151C10.3195 20.9151 11.3064 21.9098 11.3064 23.1255C11.3064 24.3412 10.3195 25.3359 9.11329 25.3359ZM9.11329 22.5729C8.80625 22.5729 8.56501 22.816 8.56501 23.1255C8.56501 23.435 8.80625 23.6781 9.11329 23.6781C9.42033 23.6781 9.66157 23.435 9.66157 23.1255C9.66157 22.816 9.42033 22.5729 9.11329 22.5729Z"/>
</mask>
<path d="M9.11329 25.3359V23.5859C8.88649 23.5859 8.67017 23.3877 8.67017 23.1255H6.92017H5.17017C5.17017 25.2947 6.92766 27.0859 9.11329 27.0859V25.3359ZM6.92017 23.1255H8.67017C8.67017 22.8633 8.88649 22.6651 9.11329 22.6651V20.9151V19.1651C6.92766 19.1651 5.17017 20.9562 5.17017 23.1255H6.92017ZM9.11329 20.9151V22.6651C9.34009 22.6651 9.55641 22.8633 9.55641 23.1255H11.3064H13.0564C13.0564 20.9562 11.2989 19.1651 9.11329 19.1651V20.9151ZM11.3064 23.1255H9.55641C9.55641 23.3877 9.34009 23.5859 9.11329 23.5859V25.3359V27.0859C11.2989 27.0859 13.0564 25.2947 13.0564 23.1255H11.3064ZM9.11329 22.5729V20.8229C7.82684 20.8229 6.81501 21.8625 6.81501 23.1255H8.56501H10.315C10.315 23.7696 9.78567 24.3229 9.11329 24.3229V22.5729ZM8.56501 23.1255H6.81501C6.81501 24.3885 7.82684 25.4281 9.11329 25.4281V23.6781V21.9281C9.78567 21.9281 10.315 22.4814 10.315 23.1255H8.56501ZM9.11329 23.6781V25.4281C10.3997 25.4281 11.4116 24.3885 11.4116 23.1255H9.66157H7.91157C7.91157 22.4814 8.44091 21.9281 9.11329 21.9281V23.6781ZM9.66157 23.1255H11.4116C11.4116 21.8625 10.3997 20.8229 9.11329 20.8229V22.5729V24.3229C8.44091 24.3229 7.91157 23.7696 7.91157 23.1255H9.66157Z" fill="#201613" mask="url(#path-5-inside-3_229_646)"/>
<mask id="path-7-inside-4_229_646" fill="white">
<path d="M23.0944 9.86312H9.9357C9.48611 9.86312 9.11328 9.48735 9.11328 9.03422C9.11328 8.58109 9.48611 8.20532 9.9357 8.20532H23.0944C23.544 8.20532 23.9169 8.58109 23.9169 9.03422C23.9169 9.48735 23.544 9.86312 23.0944 9.86312Z"/>
</mask>
<path d="M23.0944 9.86312V8.11312H9.9357V9.86312V11.6131H23.0944V9.86312ZM9.9357 9.86312V8.11312C10.4655 8.11312 10.8633 8.53382 10.8633 9.03422H9.11328H7.36328C7.36328 10.4409 8.5067 11.6131 9.9357 11.6131V9.86312ZM9.11328 9.03422H10.8633C10.8633 9.53462 10.4655 9.95532 9.9357 9.95532V8.20532V6.45532C8.5067 6.45532 7.36328 7.62756 7.36328 9.03422H9.11328ZM9.9357 8.20532V9.95532H23.0944V8.20532V6.45532H9.9357V8.20532ZM23.0944 8.20532V9.95532C22.5646 9.95532 22.1669 9.53462 22.1669 9.03422H23.9169H25.6669C25.6669 7.62756 24.5235 6.45532 23.0944 6.45532V8.20532ZM23.9169 9.03422H22.1669C22.1669 8.53382 22.5646 8.11312 23.0944 8.11312V9.86312V11.6131C24.5235 11.6131 25.6669 10.4409 25.6669 9.03422H23.9169Z" fill="#201613" mask="url(#path-7-inside-4_229_646)"/>
</svg>
