<svg width="14" height="14" viewBox="0 0 14 14" fill="none" xmlns="http://www.w3.org/2000/svg">
<g clip-path="url(#clip0_488_939)">
<path fill-rule="evenodd" clip-rule="evenodd" d="M3.00001 0C1.34315 0 0 1.34315 0 3.00002V11C0 12.6569 1.34315 14.0001 3.00001 14.0001H11.0001C12.6569 14.0001 14 12.6569 14 11V3.00002C14 1.34315 12.6569 0 11.0001 0H3.00001ZM11.8636 3.00436C11.8636 3.4816 11.4767 3.86849 10.9995 3.86849C10.5222 3.86849 10.1354 3.4816 10.1354 3.00436C10.1354 2.52711 10.5222 2.14023 10.9995 2.14023C11.4767 2.14023 11.8636 2.52711 11.8636 3.00436ZM7.00017 4.60336C5.67657 4.60336 4.60357 5.67636 4.60357 6.99996C4.60357 8.32356 5.67657 9.39656 7.00017 9.39656C8.32377 9.39656 9.39677 8.32356 9.39677 6.99996C9.39677 5.67636 8.32377 4.60336 7.00017 4.60336ZM3.4514 6.99996C3.4514 5.04003 5.04024 3.45119 7.00017 3.45119C8.96011 3.45119 10.549 5.04003 10.549 6.99996C10.549 8.9599 8.96011 10.5487 7.00017 10.5487C5.04024 10.5487 3.4514 8.9599 3.4514 6.99996Z" fill="url(#paint0_linear_488_939)"/>
</g>
<defs>
<linearGradient id="paint0_linear_488_939" x1="7" y1="0" x2="7" y2="14.0001" gradientUnits="userSpaceOnUse">
<stop stop-color="#515BD4"/>
<stop offset="0.25" stop-color="#8134AF"/>
<stop offset="0.5" stop-color="#DD2A7B"/>
<stop offset="0.75" stop-color="#F58529"/>
<stop offset="1" stop-color="#FEDA77"/>
</linearGradient>
<clipPath id="clip0_488_939">
<rect width="14" height="14" fill="white"/>
</clipPath>
</defs>
</svg>
