<svg width="12" height="11" viewBox="0 0 12 11" fill="none" xmlns="http://www.w3.org/2000/svg">
<path d="M5.82807 8.77138C5.88709 8.74245 5.95196 8.72736 6.01771 8.72736C6.08346 8.72736 6.14838 8.74245 6.20739 8.77138L8.51224 9.98945C8.5785 10.0247 8.65339 10.0406 8.72835 10.0354C8.80324 10.0302 8.87516 10.0041 8.93599 9.96C8.99675 9.91597 9.04397 9.85566 9.07223 9.78613C9.10049 9.71652 9.1086 9.64044 9.09573 9.56645L8.65079 6.96255C8.63956 6.89909 8.64432 6.83383 8.6647 6.77268C8.68507 6.71153 8.7204 6.65645 8.76747 6.61246L10.6347 4.81089C10.6899 4.75845 10.7288 4.69111 10.7465 4.61704C10.7643 4.54296 10.7602 4.46533 10.7347 4.39354C10.7092 4.32176 10.6635 4.2589 10.603 4.21258C10.5425 4.16626 10.47 4.13847 10.394 4.13258L7.8339 3.75329C7.76928 3.74614 7.70767 3.72217 7.65519 3.68378C7.60273 3.64539 7.56123 3.59391 7.53486 3.53448L6.37515 1.19319C6.34357 1.12499 6.29314 1.06726 6.22981 1.0268C6.16648 0.986343 6.09286 0.964844 6.01771 0.964844C5.94256 0.964844 5.86898 0.986343 5.80566 1.0268C5.74233 1.06726 5.6919 1.12499 5.66032 1.19319L4.50061 3.53448C4.47424 3.59391 4.43274 3.64539 4.38027 3.68378C4.3278 3.72217 4.26619 3.74614 4.20157 3.75329L1.64145 4.13258C1.56551 4.13847 1.49291 4.16626 1.43244 4.21258C1.37197 4.2589 1.32622 4.32176 1.30075 4.39354C1.27528 4.46533 1.27117 4.54296 1.28892 4.61704C1.30667 4.69111 1.34552 4.75845 1.40076 4.81089L3.26797 6.61246C3.31506 6.65645 3.35041 6.71153 3.37079 6.77268C3.39117 6.83383 3.39594 6.89909 3.38466 6.96255L2.93974 9.56645C2.92686 9.64044 2.93501 9.71652 2.96324 9.78613C2.99148 9.85566 3.03869 9.91597 3.09949 9.96C3.16029 10.0041 3.23223 10.0302 3.30715 10.0354C3.38207 10.0406 3.45693 10.0247 3.52325 9.98945L5.82807 8.77138Z" fill="#F7B5CC"/>
<path fill-rule="evenodd" clip-rule="evenodd" d="M5.24094 0.992796C5.38131 0.694911 5.68827 0.5 6.01778 0.5C6.34711 0.5 6.65389 0.69471 6.79435 0.992288L7.93676 3.29868L10.4481 3.67072C10.7756 3.7033 11.0625 3.92712 11.1728 4.23806C11.284 4.5515 11.2001 4.90928 10.9621 5.14086C10.9606 5.14238 10.959 5.1439 10.9575 5.1454L9.11553 6.92257L9.55363 9.48668C9.60986 9.80951 9.47414 10.1439 9.20879 10.3363C8.94642 10.5265 8.59139 10.5531 8.30366 10.4049C8.30084 10.4034 8.29794 10.4019 8.29511 10.4004L6.01777 9.19694L3.74047 10.4004C3.7375 10.402 3.73451 10.4036 3.73152 10.405C3.44388 10.553 3.089 10.5264 2.82671 10.3363C2.5614 10.1439 2.42567 9.80951 2.48189 9.48668L2.92001 6.92257L1.07808 5.1454C1.07674 5.1441 1.0754 5.14279 1.07407 5.14148C0.835535 4.90991 0.751443 4.55178 0.862762 4.23806C0.9731 3.92711 1.25999 3.70329 1.58751 3.67072L4.09878 3.29868L5.24094 0.992796ZM7.11529 3.73455C7.23549 3.99442 7.48579 4.17764 7.76982 4.21369L10.2097 4.57515L8.45024 6.27277C8.45002 6.27293 8.45039 6.27263 8.45024 6.27277C8.24216 6.46751 8.14391 6.75979 8.19261 7.0405C8.1926 7.04038 8.19263 7.04062 8.19261 7.0405L8.61608 9.51866L6.42459 8.36046C6.42049 8.3583 6.41636 8.35622 6.41222 8.35421C6.165 8.23284 5.87052 8.23277 5.6233 8.35414C5.61916 8.35614 5.61506 8.3583 5.61095 8.36046L3.4195 9.51866L3.84287 7.04086C3.84303 7.0399 3.84319 7.03895 3.84335 7.03801C3.89102 6.75825 3.79341 6.46776 3.58621 6.27361L1.82586 4.57515L4.26579 4.21368C4.54967 4.17762 4.79985 3.99456 4.9201 3.73489L6.01777 1.51882L7.11529 3.73455Z" fill="#F7B5CC"/>
</svg>
